<mxfile host="app.diagrams.net" agent="Mozilla/5.0 (Windows NT 10.0; Win64; x64) AppleWebKit/537.36 (KHTML, like Gecko) Chrome/131.0.0.0 Safari/537.36" version="26.0.6">
  <diagram name="PÃ¡gina-1" id="-lSz1ra0YestJSESE_OZ">
    <mxGraphModel dx="2263" dy="1706" grid="1" gridSize="10" guides="1" tooltips="1" connect="1" arrows="1" fold="1" page="1" pageScale="1" pageWidth="827" pageHeight="1169" background="#FFFFFF" math="0" shadow="0">
      <root>
        <mxCell id="0" />
        <mxCell id="1" parent="0" />
        <mxCell id="GqbFPElFmIpRKUHDmwWA-16" value="" style="shape=image;verticalLabelPosition=bottom;labelBackgroundColor=none;verticalAlign=top;aspect=fixed;imageAspect=0;image=data:image/png,iVBORw0KGgoAAAANSUhEUgAAASwAAACoCAMAAABt9SM9AAAAk1BMVEX///8AeNcAcdUAc9YAdte21PGPu+kAcNWjye4AetiSwOs5itzj8fsAbtV7sucAbNT2+/5boeLs9fzz+f2axO0Aftm/2vPO4/bf7fmFt+nH3/XS5vc0jd1cmd/I4PVyruYZgdlHleA9kd5pqORQm+Cnze9WnuEdhtunyO/q8f18remJtey40fBWlt6EueinzO8AZ9MaO9zYAAAJn0lEQVR4nO2daXuiOhSAIScY2TdBFEYQqPTe26nz/3/dJagdN5ZQKwi8H2ae6dQl75McDskh4bh+YisUy+76e/QeQwgDrFIIH682Rtffp8coK4cA5o9gROT51L/uY6144C/BKNpPvesO79G1qoOuwO36m/WOTUzwHVeFLlPp+tv1Cs9EJaoogLVpLJ4wZnBvBJ6BnLeuv2RPECJSrYqORZItu/6ePWC5LQtWV7ogGXvo8kJcMwL/As5szFmXMRMbq6KgbLyhS8gQi6piLMbjDF1ew2B1pQsl4xuL/yR6C1UUILNxZV3GwmEKVpcQWei6AU/EDeozqyqwmvpdt+FJeLs2weoSwKHVdTuegH07EdMKFC0GH7rmdydi2oCRPOzJm3VQNbvArAu2Xtct+jGs9PvB6hIg2jCzLuOTPGoEnusS51037AfYR6z3Ng0h8dCyrk36yGB1CUbmkEKXktRNhX4P4P8dSugyJLaJmFa6omGELvaJmDZgNIDJGz9WfyxYXenSd68972wlj86sqgBYvW7oMubiM0bgGSh61TRCCJ6sii/ugDZdt7sF/g6eOALPdYWvlnXZWvMlrkeD+P+6bj4Tws9nVlXAC4UuI9G7VMXT1f6kawkNsToI7DeQ+J+uPTRBCTodgidAfoFJeiPuhavcVtr/OfqwJ67ykRh27aIO93srgg+FrLu2UUPWNhPFgBBRVV3Xj38QBPh7aS3OurZRjdSqY+Wi+CBd7V1fOcYZW1kKi3AbAfrOfQB579ZGDQ57iwCcVFrfv3QZnhBmfGtfOH5y85lgjlgYOaZQc41fzgLU8qoBfY5aJlujMMiLywk7w7YK7IvLvrE2291qQp8viCJbU5z5306lLN9XZhrLWZSTBXGazD78v//t79osD+GgCwvN8JlGIfmaBraFMBBRcfnD9ApY/AWIgBNrX/UMb2ILW05/Z5oFFllEO77KT/jSa16uzFkdG6xk7EMR+ruK8c5wBw2neYGVWvd4Bb84/KbFnsSh/hbazBhkRce1BU2t/11VOvzumlkW9Hdii0EWHAehHTUQgKPjxTFltYUGIQudVpC3DQIRpMdf/mSNWgOT5WW1VwUSnK5p0shlcfZKrFqJxeTskZ3Ry8qvcvutqsJt9oABVDV9O1tlnmQVrCUzcOg0zQnATmBKVyumk6wvbGXpfny853wI7lK5U7cwyWJgksXAJIuBSRYDkywGJlkMTLIYmGQxMMliYJLFwCSLgUkWA5MsBiZZDEyyrjAsq7Rkb5JluDPz169kVky0+6HsRHJyWBtd/P71e3X+AaOXZcW0CAuDTtdDZzwtacDAF45CgtHu/ANGLyvNBdDpZJLLWiC6QkHXL9TP/L804ME8/4Cxy6IlXTiZv694l/PE3Fu8dmnBM1pOsm5k0foITB9NMiwqB2d5dLczXCysTrLuyYqK9S4jwDxanN7IsSdZ17LWdEEaF9vwWBHPk6J1+1yK6E2yrmVxUlEwiklsWM5J1hv9kT/JupHFrbeFLpRQWYefz2nPUiZZt7LyTNQslu69GB8L/VNclINOsq5k+bRQzcjyHzkWfT2aeQqtLCKLSdaNrI0uam+fYlFZXFS2IVVFNN3iClm8E8dxcCo/Hb0sRPN3GuFpVzrVakFRZqwVoR9jdKo/Hb0sHQEAIg5NsKzdoW4Z74on6EP1UFGjTrIOGO5M07TP0zMprpaKeXQ/VNy6iyNFzbHlu8nIa0pvEfDf+twvlPc0ym+x4U7N26hlFSkpMc9nAH2T13UUmKEW7jLCsL/N8GVxe11V/2RfG3/YGqhguid71tu28VNiI5DFeX7OqUTZz1TQ8n9YghQm4cLN77n9pvtSjkHWOS5Ptn4+NrdFxAKkws6lB1806lwjk+ViFBqcIJ91JaD2lEZbIoxLllI8PaZdXQMBLzirybMZ45K1zRNSw7x9X1g1ekhsVLIWRDa45F4XQhK3nGR94W02y0jf5MLuvgO4nFb7eaOQpUjBH/3PH53sOK/sIdfMMGqfvxuBLHvF6zhLwzxdX94fhMVbLDip7gOHL8sPdFE7HVKhlHYenHFW3eN3g5e1FlVT4Yy1FIba3qroPOqG29aMw6HL8kQ0y28PZYzydB1FUcV7fHKfNZ84EFmzsjcJ1FnDMwlwWrs5wjBkle7lIekpZ8mNbvzyoOWPomcd1+lvsEVQuLTh+0SGV7cnxDBklbRjr4bcvunGI+ORxeN7MX6n+5zccCY0H4abcQxD2pLbsyeMyOGWTd8Fb7k3vbprDUcWD6J2pUvJBdSm5V8mVpyyr97vekCyqK6/c+sUDyWHpdUmkKJMd101UzMoWbScNEqEL18eCpvvdIrTbSoZnFdxOz0wWbQ2mehZON/QnSQVnNRm5WevxJjwG25dbrfHshpHmzvCEOGdIDX5mBPYrqmOUrH5UY9lsWw2drfhGPOibbHtHJiH+X3p50J/Nxt7xF7BRGDcnjm/fpZnW7i/x5F6D5CVt91zWOoZ8rvM8sws6vE+5y02wL0hHzlMUQtMTijrir3eAvcR+5vjvDfsGWpliFv+seUTQT1g+YgNzmFrc0u54Q7UmIScXXpFwL0+Vab1DufnoDhvo2BmjliPvKjoz7Cr/8Yd0nh2pRJw5jZ9mEepJ09kZ6VjH/V5H+qc+CHHOGEkz5blD7Se45dvft3zjsW6vXKVLuRkcgMqtvPGPc4bDrS/5bltbBPKX07eunZRj9mTIz+KZ2F7T9KDA51e4SCZA2H3fQvDy5xEN+c7PqkI+H3XDprjmd2cBHkAkxc7hduNO4tcRO7vjF8ZTz+99gDCi/4fqHaLrZGnhy6Mwt5noiV42+eGLozi/s6M1iNkbY7LaamKZP2dcW+EsXCeFLqKrSFeHSV8xinJgMP+nkfEQuNnuFqDSfrKweqSj+xHxyLJXi+zqsCQfi6NACJ13bxHYyU/k0YAJK+aWVWx/IGsC8N2OMHqkvmjQxcaVrC6xJqJDwxdyJFeP7OqwntY6MKQDCOzqmIdNDikr14VCfp7zuMjecBEKokGHKwuMTT4li6A2Z3jngaL9407IABziJlVFW3nnTH6PY5gdYnUZvIGZS+0bvNILI31mHbAs2FnVlX4W5bQhZE5/MyqCsFpunyNVXmMweoSqdlEKopeoCjm57GSel0gfo43WF2yrAldgEZwG9icD7k8jcAo7Xlt6LOxV2WTN5C9d/3l+odnqnfGIqDVmG4Dm7PMrkMXkNHdBjbH3eKvXVsxID4Z6gT7Y1DeEtnhMeajWHOnbKEey/N9b4pUExMTE635H5d+r+hyUcHdAAAAAElFTkSuQmCC;" vertex="1" parent="1">
          <mxGeometry x="490" y="120.34" width="71.43" height="40" as="geometry" />
        </mxCell>
        <mxCell id="GqbFPElFmIpRKUHDmwWA-7" style="edgeStyle=orthogonalEdgeStyle;rounded=0;orthogonalLoop=1;jettySize=auto;html=1;labelBackgroundColor=none;fontColor=default;" edge="1" parent="1" source="GqbFPElFmIpRKUHDmwWA-1" target="GqbFPElFmIpRKUHDmwWA-6">
          <mxGeometry relative="1" as="geometry" />
        </mxCell>
        <mxCell id="GqbFPElFmIpRKUHDmwWA-12" style="edgeStyle=orthogonalEdgeStyle;rounded=0;orthogonalLoop=1;jettySize=auto;html=1;labelBackgroundColor=none;fontColor=default;" edge="1" parent="1" source="GqbFPElFmIpRKUHDmwWA-1" target="GqbFPElFmIpRKUHDmwWA-9">
          <mxGeometry relative="1" as="geometry" />
        </mxCell>
        <mxCell id="GqbFPElFmIpRKUHDmwWA-1" value="" style="shape=image;verticalLabelPosition=bottom;labelBackgroundColor=none;verticalAlign=top;aspect=fixed;imageAspect=0;image=data:image/webp,UklGRvBTAQBXRUJQVlA4WAoAAAAQAAAA/wcAfwQAQUxQSIEAAAABDzD/ERGCTNpGeqVPws5E9H8C9n78x3/8x3/8x3/8x3/8x3/8x3/8x3/8x3/8x3/8x3/8x3/8x3/8x3/8x3/8x3/8x3/8x3/8x3/8x3/8x3/8x3/8x3/8x3/8x3/8x3/8x3/8x3/8x3/8x3/8x3/8x3/8x3/8x3/8x3/8x3/8x2gAVlA4IEhTAQAwvQWdASoACIAEPhUKhEGhBDIhJAQAUSzt34KJGlMCK6e09X3kY4Ota/E1nWQntvCGdO/qH75+Rf7m+QrKPlX7f/kv83/ZP7x/uv9D80nGPV/46/C/5z+2/2f/jf6P7mv6n/c7L/eP+R/1/uc+BfyL9N/vP+B/yn+b/vH/Q/0n3O/6v+b/1v+Z/zP9g+qX8q/1v/I/0v7mfQR/Fv5R/b/7V/iv8t/cf+3/tPyn/3/9x7n/8h/4vyg+Cn9A/rH+n/xP+p/1X79/7X8if8p/p/7/9/P2l/uv+d/53+C/1X/X+gD+af2P5+P99+Yv/s/8vuV/5j/p/933Bv5L/Zf9T+YX78/8b7uv+x/p/9//x/3//8X6ffz//Q/9P/Sf6j/nfv//8v0S/lf9V/zn7Mf8P9//+v+AH/Y/+fsAf97/5/9n4SP4B+8P5//P/3E/xf5U/Av5F/E/4v/Hft//bPcP8c9rv2n/s37VcYz+qf8v+t9U/5B91Px393/yf/K/vH7q/b/70f85+Qfs3+c/13/J+4j5DvxT+U/4/+4ftf/i/2693f/W/zPmvb9/wv+3/lPYL91Pqn+p/vv+i/8f9z+KL7b/l/5n1a+zf+w/wX+G/YL7AP6b/Wf9h/f/3j/u////8X4Z/2P8z+f/plfnP+p/4f9v+OX2Bfyz+2f7X/Af579ovj3/3f8f/qv3E9w359/jv+//mP9P+2/2Gfy3+r/7/++f5n/5f6T/////7uP/N7if3H/9fua/rj/6/9T+///2EL2iK1XONEp76ucaJT31c40Snvq5xolPfVzjRKe+rnGiU99XONEp76ucaJT31c40Snvq5xolPfVzjRKe+rnGiU99XONEp76ucaJT31c40Snvq5xolPfVzjRKe+rnGiU99XONEp76ucaJT31c40Snvq5xolPfVzjRKe+rnGiU99XONEp76ucaJT31c40Snvq5xolPfVzjRKe+rnGiU99XONEp76ucaJT31c40Snvq5xolPfVzjRKe+rnGiU96xeFMedZQUElPfVzjRKe+rnGiU99XONEp76ucaIDJAJQKAFBQSU99ZQuQSU99XONEp76ucaJT31c40Snvq5uzYLkgVN+twyVYPSsJ+/EDMSGXO6GhxJ07iNXmb8VM6tKoFOgYxHX1TZe9Mf9K+UFBJT31c3Ywh0kUlOWs6pJXpCPHgX9BS5d+kRmPPvJmPAPXPuV9GkHpSV3myDC0A1MbpiTmBkyC/EODRSAbS0SnvRSYsWP/ToTyJt+YVXnPfn5P4Pq+G2NHnyuy87Mv5RWpWZf4IkiBcL5ooTCkiIf7URY314S3fuAv0tEp76rp/str5LYjTLoDC7/72so3PLNq5xolPfVzjRKe+rmT+9TPgbq5UfjxaEe8Z3PS0M5QOlMsbcdtn6eyIv18xFNzxYzwc1dbc6esFBQUElPfVzjBIUVLHCZGkqJizkPH9KLLgJCEwYI9YLl7H/6bQrF/ko9z3lfakl4fHRGX2OL4l3xiiH2TtZd1m1c40C9qTsNFVGNWuFBzijZS6yXD30tKMxgTGVm+p5D3IWiU9aGRSvBBLaQKyDeOWoK95QB9dPhNg4bCgZ46ZKarnGeunXscMjzK7TlTVuW327+UVqucaJT31c40SnsSNfzf3vBFxgEiby2Gv70mw1KLFXNMxMiW+M+H1iE6yvKeV60bZ/VwU5cdY2UIbXWJorvcuTbDTVepNSpGSLrv6X3OUH13FdjAVVh18XYk9xv7qNI44j06Up6fKAYoNFVGzdiQTXYjV7oAnKtkNz9V9fPzXSHtrxOeLjssIBv419RfzYyg5vagg81K3OO0OtQsr7PvijU7V37mSwBFK5b9nqo6aHLsGn0kL0YaLfEXikD4dzwN3rb8t3ryNd9zvya1OD6wx1kgPx2Ipjyb5ujqEh6cpAH+ULPDViuzM2XqHJXILSTdgw4Gvia2ijuzACN7B9MHCOuyVIeevtGtyWlFixCD+nVrJrLrbJtRj4Fap8efSK7I5lcPna2UlHn15LIx7pTT4xSymuTnRv0pxXKpDUr1QrBpswNYW18iXql0zcptgOnKorf9rrf5Den0nuFW0Vu3iCXWvJ7VUVJNc+I8iQMr9kvBOcBo0O5o30uYJKe+rnGiU99XONCFrffuRaUJNzrDdiU12JqNBGZwhAwHWrmuK9WBYvB85NMJ+0WkVUSS3rZx3FdPXHPs2p0nNfLbfT8hYXnUSbEJllxB0nA+GXLNHkJLTjqV3sIXXK3Akf0yiz/wzdqe432+81LqOHCGuRNDyd2SHxPxuc0xYa8bD/6PD8MeiYDdMiPCxCKJK3FHCKvYxxBsR19JYP+RKG+ZnVR2vTgFqEkeaGIgwQpHQjHtojvj3R601SqhjHs9ziRq/2YSqYq1deAdeMwZfMx4hPdjVvlte8O5862qY61453F4FncWoI3H6LJAScfcLFhnajr219PGza2RL3zOVvdtVve6pOkjL3ssaLCzTwG6wpw7mR+sRMPE85zIuhWhdFoyc2ShxoRXG9y2ka0YWCtxKf64LsA/+aE4wpfzWTub4h/6EorqRiDBGmqhUZDmfVSMn/h/+XLJw9NfrrmrE3ZdHotGcDLIhviGgV8OQxe/Y3pdoflsv6WDgYhAfYtEp76ucaJT31c4aCDClbaH+gAEJbiuMI6Ht/a6ZqMl43TVWckem1/npN5aRP13xnprxxyznAFrsWo8LOGunDevKs50KSxutmp0VGN+O3HNtDzciLKkvJAryj3nqcIF/KDfxdrbcnt0MpaNOn8W9Ib8gBVO5Y03zxSE6UKpckb+Zu+Z4pxxhSum20ye0bxLFYZRPCJbfeIf24+8WN0weRKb+Yuqkp0mppGe+M0kWJIuekkhqu5HrcjoyPe2AIzC+v3BrBZGwZIXJGZ0YA8KJYWp/Zo8XKD6C29IHS4as+gOvVLUgjPzoS9sKRKwdjnEjbWWIDkQtf4keo+sZjbLwr91oqD/SB984tXeYvyT78o7UxbyUuhJeqYT0BXb1aHtdXfq6zv2i5qviDUUGYx6YNbTv1+gferXgxMIC+dHH+RmHeX4VLzPUd87hN/iT2qjCQ74to2Fra7dxom+GaJjjhbGbVLRKe+rnGiU99XKeqhaEFDmul843MOEIwklh/datczNrhdQJlcblyGA7MoJLBINgqZWQjb87CwyUoqWpAOjsSNv2UUCH2m2JsU9sKxt180GcjdXWVl3UA+uDvXsaqa7MR9J4aLTAPmJAGqPEjVuv2ohP4JF0xQnWDMgBwdRnJgnb0a09Nr5VDvNgpNEE1JJ6bxrIBkMiau3/i7KQDqWJZiVF4BI2W+/rIuFKR0hnJwybrym6rpwPca9hBW/GO7Aa5qIF33PmQF0RS5SrFAojLUKwit40Ed93K5Sw8mkmupyayYa0uRPeydjx76cKKMZvSeWsN0wOxAA/BLlzMAcBw+JUeUdyRidcVcngY9HbMiZs/E02T3ATUXt85o3HeioTVts31/o7581lAsDeeErQrnYH73V6STjxyqjVVlIn7FBFvaIrVc40Snvq5xjWSBQuLNJbqGylmpSFO+vVJBS+x4mG/2t4cGqqkAOz9tIAvlawFSlUxI8zwBJTUyyQqbPJELgRFE0Y8jEGCfrfKajUhnH5tG4l6bFjC9jbl5Kh2S+/XEnsXGeEUV7/tly6q9+o5RHgjDUNmAkD4P6we8J3EPfvfZP5B8QUYtWU1bPcO8lHiCxV4NBHm00c0uz9XXUhp9QpILMf/ofuTWRW058G2DcD6FNjeN3jMRDeS01MRdzLd3YvPtAAtX3VyYyR4eqeJk9qqMDHvHcYokOu8xUw8K9aaatd0nQs+UtU0/ig0HwralSryG5301ZT4G2eF8L8mT3c7ed32srnIT9Kx7uk+H8F78hdP5RgfGlAXt2kmrzDNRyI2qb8atF1qHJSjSNnvtX2k3kRT04ckFjufQjLO+wvd+kLWdG1wNthyjEbTnkDf9LedS4bdR9F4i1RC4+lksr+3be4f8rC7mJIdqhDaIgy4q/jRKe+rnGiU99XN9AKuCQJFp46Q5LSrOSPTaxgw1M3nHB7Cf6YgnOawQ0nmhruFUlqulgJ0C7byxG+pC0ffxiqTRN9GVEtS2GV8sgmQG85A5xNCFen5WoK6ECVRC3tD8rzoiwGuvra78ESu9tEwZyZyGS9FuMECJxSguuZJIqG61yWMS4z6tixkuJXsS6PmZsx+iP6QDUM+7+HiydImVXpQSKfz7si66KfoUx5OVQaWcsKVjtu0LZViU+kJ36AnMJS0tVYWXJvH+E38p5+ez3omDMtiJpSDSwuvPdJ7OTkglm7+Sip5xDb1TY0B/canbJHcebLE93/uv8lRE9s+fnONnj32LelBORtEZHAsLL+AVJOZ32zTSLGKyzEevGklIvhtf4ZfEPCScgBwdux3k98CB4b4o+0//1SLory0nYiXRxY1vvNBvJCd1f50KlW4N4oq/U3Ul/r9kqzZcdlpDdkjwnQfDRKe+rnGiU99XOMckaAfoejLalDfpWfl2oCS/HaEIneT/oB7JRybxGNBgPPXkC5+1s65oMsM9eN/EZBmh4DIqDTu/83x4dIhjdtPnvlm09LEPKkUZmKD1n7htvPEVT+Mm3hE+YptGqdYEDmnN4xxCNgNmoAxlFdvBXK+a3kc6L8w0YTVrspaq43fPRZmGzFgUzxbP4sllyWTy2C2YZyvr4zI50h70mjfA49kmxZFv38vtkjE6QPdxR7X/uUzE1d0JJO55YyBdu0DXuZ2TUJpzraZBty4WSeRkHOiqLyDxbQ3X74pQ3TzJqU3QHgKTyqgfKhMhZn4VLY/vQGUAIh4ttNPiP6Uvi/nKw4wXzt2ghhKuoU6LqOtwc0p88pLtTkyCNF6ZsAiIdo71vrg68FdUROJmodhFpLSXTdtYwy1GlmcbZGhrXyJqEO/2BMs7EBr/eachmfbFu9kkTuj4CCah8aVF3kCW+fHMFdN+nGQx7lM/Cmhz39bPwJFVClPBvGi3C0xblmPBEJuD+k9ih86dZHGPrnApQHW8FFJW+fn/KkNaaU1UHhg44Z/83x6oz4MfSApxK7M65jgYmyuW/G2ZKvW4xWxlurQuENgbArxYy4cYvoGTlCzYYMCViJraLekCvqGLIUFBJT31c40Snvq3lPMHZAlTWDORi+JDtav061eSAvOnaxb6enScm4Y7xi6tJLgN8/f38IZZvlSOrpFrOb7JDHO+HYLlUK6CSnBqIadrVhH7yogwqUco+TlO5BHvQP05vPKSZZ5O/C/v1OGaUlzRzXvNcVA8rOWYW27/n5beMpJQR0mvGpsj7WZ0yEA9DLuFdI7OryKQpi+Hfi/bzj+r1FNiSTkFGIg0PBiv4rVmcoUVxL9KNFHvLxuUhHMcKBEzQx9Ayvtkm/Su1W18vG+OFhb+5X/+0x32mN8J9FpBC/yv3zLcZbYEZDudALRPmVM/4DIDAdQEZV7ew+ec0JMiRkIOkk6sgm2mMXB73N+2WUWL+4ndcpi1ji3khRQdcUvXnKaK7fk6Ao+mwvMj5L/SG5X+y8BobCWqE51yGLHahf2Zk5V7XvT4Z8CvN8TxOrQpAQmqi6QDDeHoqZrf5tkTK6k0B/BgoylyOqUwnBYe+j2D8vrpUM3wl+WAHQln8/IQoTGWlolPfVzjRKe+rnGq7nGiXrP7HPWKluh9+Ra2az5V+fVzjU5jGgiWmFi2/8NWboGvWtuDl5kFCQHkUFLAkp1iEEXroZReg7Z3pxui+1IB8IFUy5QUElPfVzjRKe+rnGiU99XONEpmxYKmV55/tHNNOBJ7Ne9RZZtWRtiXCjgzZWar9tGRuZF9JuM4djA/k2wG6o5oKS+5kBV6cUSEorVc4zqxZ++lilIPPDlFbmR4P1j/1m1c4sHbuEdjm6x83YveIKK1XONEp76ucaJT31c40Snvq5xolPfVzjRKe+rnGiU98Nt3+3xiL463BvsKd4PitZryS/ZH3Cs2qMfwuk3h4+5vx/9RuvfZkQOYgn4gaRvtQWTnUbaBgazF/Dv726quw4pIbOmlqOUmvIFfCQ6dcb5YbbjyFi3/FRolaCC76Dw8v8wzQ2DrTRBVElNrj7TZMNGKslMaULjE4bmpv89Ewp8JXeUyEIWwQd/Q/mVqHOic6qwx8X8pwhZDJ1rlEUPx+8UW9/aFi2goyPN/JYpWv0rzOoQvNKEQcXawM+Q1JeHL/yZey9AQ0NvICMYtlnICmVfC1bmZuN7PHMk+Ln0Ik4cW6j/jtfOWXENoZtP7sNmsQ5Tl8cg3ZpY7CBXIu9OArdKGfHIi63tEVqucaJT31c40Snvq5xolPfVzjRKe+rj4xaNZyE4U5j7No0jX7bKlxS8GQlGXuwf1TcIOXkHlsTsTMqAQrllCVxGT4koONILD6rT8BWR8xl6Ymuq/TxDs7/0Vidb2/s8HrOsnY5LuRRw++fYyfNnIkDSRKbM9KLlMPywdnRN9kxmWEq7yWCZzBHZHmcAqjt6uR0Y3JLiOXlMMXFpcsYAoXfdqSK39MNC7V0ffTNkNh2CypZYuLczU2TkqnMTtY5TiJASmlV822SbBT+Uj8nLCNXgpwywIj5fRQntSvTTmoSEOTqp6BTHRL3r9IHWWU/rWat7XQbV8vqG5QiBWWN4HFoz3QPNqfi108I3puH9nblIZddRq7xTOYOAzYB29DLTWbWM8ihpid8mCc1hoZg14i+kkg1VhSVcdPQfQp75K4wCoNXVBMC7M5DupiH4EDehfD/9AjHVhKPRUesE3G8vv3MMs3GDt9g7atKQkYajmhkdew1Q09XVsekNDHT6m9wz7Xz1VcTLrJW8UAXhK3N5Qdt6iFuy4oKCgkp76ucaJT31c40Snvq5xolPfVzjRGmsP4PkbjUu7vGGgcobEH0dSoE+dKCPDHixQw94Dcro5dXQyAxBuVccNzae9wkJemXH8LpOJKohfrgY6KimjeJ/1t+Frr+GYdpT2c2dpScc8OTUCYARDajI6uJiXNjHLUzvI0xFYk8bv58+gnw46qJZfgsQU0BrNRFiXZL5xOqZfgrupoY+DVCrh95jvt8PtKyleBsIgIXM2mBGnnLHtxUTO1pRmlELGM3VCyWMDHV/3xGp+BM57IPzSvmq6XDFJEWAFIbjA6lhPrPHRkUkhRvIIwjVGre2ywBNWKYzQpfcsW33zmq2rh8NcLd6FoK7qdKcNZghdEeu8yhhCzP/LND6tCqtC+ExZwXhT2kHl4MYm54IIPaIZsSR/+b1XCJLaES5qEfReBiu1qgNM4/PKGwIKZk9DwusWjZ1qSEr0fMo/WvsCZCM+mDf4TKnE8e0YeTx3ff7RFarnGiU99XONEp76ucaJT31c40Snvqyr9/zEF0NQNbdRh+e7aOjXG5bqbcAMrfn9W9+kztg0xkKWSfNIaxtVTsCzhIwU/9nEt1XCBQatQGQ9vSs4YxW9ZZjOFoT5xE1Ogu/DskFZ3m94A/RoMFd2oWAEAWiNq/MOOV3TejBJ0Tqi/F4XMFJPMdgtoLz8M2zQOvfuqoSQgQfiKg/8ljrD42tIIcH96DY8JrI9zzw4+eFPYiPhTcepLIwyWmwPoB4lkQw9ld4nTT/WgAmBb+gtl1+u8MUnyF/QNGeO9X6JXAivEvYEttZYt40KxCA7d1fc0/DKYV6cx7OOQhzBDLqjEcNCmRA0F+rhXdas0Cm0BUGvX5VuRfUgQ9XCy1qjW6gr39T8AglkH7YVCeZd9I+QPyGzZlEaMEIzYbkP9wcHp5j+Gn9fUhSlVBRiZ2P6obdCW6HWd4CtGTxBRWq5xolPfVzjRKe+rnGiU99XONEp76uXaeENe0mGrSFSFDmWosr0JtFfeoIcHwpkWf+AMGpiicuB5W6qRD7PEYcjWVbnPOEpWU+QcQ28vq8mM3CyD4/Ky8TrZYH5MKfl5T7Y86/2NHeD/nv9s+uanVTf2j6gON9FclihI5CBkcrPi0CaThziG4crMG45kJi633VmRTeaNU+uzZpA7CZ+3fj6lGZfWsvJKf3yeJcSEy4FZv2X1HlaqnKvrK29t7ZwUIT7gMdlbgooieXoJ8xNUlOCK4p3kObTgvq11gFNWsrFnYREK7VxS/xEIAih/zHh/9cKLVNmbeKSj42h+4lD2zDPZCBnUQ9dCxyJJ8NyMlqL7SUafLlaYZiv6iuEX6vP/yHll9tOH51en6JcWmI3ENeUWNa9Nau1D3epJaWnILdiSHh1JD1mq7PXcEJF3V54HEvoymA3/Fw9pPCjmMqvFLBv3mBzrws18D/1frW96PUJMgjjRAP6F9XdLdQCze9WTkjw2pNKI6aQsLLD9bUhUdMTDJ57oAK9uTLpKe+rnGiU99XONEp76ucaJT31c40Snvq5PSJZClhLu7PHTMom8ZU8SV24SuDxeFVz14+r36Huc4Ng79G75JsxVX5qF7xi06tYqatUzB6JGpfV/L2TY23Aizxeshc4kvl55T0oaTQmZePZiC7mjIFPZaqpr5v9Bj4Q9PUKWxf4k/y8uXjiBxOymlwYr3LpEBroIQabx8MijvDIzsGf7mqycmlJhhCIOUDsdM8TJ4jaHyqLaIh6nm550/5n2mxIjh0yfjpmARYF465i2/74WdhU6/Koj9Vd4BGn1h1SPWeNaDQU27DEf2qiMOSdcPItvEkS4Mzrmbnlth6scD2FR/9YO23jH3e6i3iUAl1W+4tliTUYsng5N9rKeFgh5Gtb/t7ID4RVnxxTsEudVjKvNnhC6DmcEcDCRM6L0d+pQ0U7h4xQUFBJT31c40Snvq5xolPfVzjRKe+rnGiU99XONEp76nZVa0lX4cHFnDTIGh/SQSgkp8Ftp76uvz6ucaL594aud4IfhytnlRSUnd1A210WrwWP+VsCTBC0RWq5xolPfVzjRKe+rnGiU99XONEp76ucaJT31c40Snv2EFBQSU99XONEp76ucaJT31c40RORYcHfVzjRKe+rnGiU99XONEp76ucaJT31c40Snvq5xolPfVzjRKe+rnGiU99XONEp76ucaJT31c40Snvq5xolPfVzjRKe+rnGiU99XONEp76ucaJT31c40Snvq5xolPfVzjRKe+rnGiU99XONEp76ucaJT31c40Snvq5xolPfVzjRKe+rnGiU99XONEp76ucaJT31c40Snvq5xolPfVzjRKe+rnGiU99XONEp76ucaJT31c40Snvq5xolPSUrk3X+LmN0StjskLrNq5xolPfVzjRKe+rnGiU99XONEp76ucaJT31c40Snvq5xolPfVzjRKe+rnGiU99XONEp76ucaHcT4FnD+gz2Sw/AzNYA92UFH+scB5LS0Snvq5xolPfVzjRKe+rnGiU99XONEp76ucaJT31c40Snvq5xolPfVzjRKe+rnGiU99XONEp76FnUSpDQulysxDE0FZzEzAT+wT/m1c40Snvq5xolPfVzjRKe+rnGiU99XONEp76ucaJT31c40Snvq5xolPfVzjRKe+rnGiU99XONDyTC+njPR+rkH+HHWfi0Snvq5xolPfVzjRKe+rnGiU99XONEp76ucaJT31c40Snvq5xolPfVzjRKe+rnGiU99XONEp76rzoaGdMuBZ3r774MbYs+v4FHSY2iK1XONEp76ucaJT31c40Snvq46v818L+K5gfAEbRFarnGiU99XONEp76sG9fg1hp8ZSyF4+ggsFDz3CLt6/P5RWq5xolPfVzjRKe+rnGh0jfv7u65ZZxHTl6aHWKBN9vKFa30OQTefaIrVc40Snvq5xolPfVzjRKe+j4zAWlrjp0ksgsJHVD+FWqXf7SIYc2G1c40Snvq5xolPfVx1rTIxMt/slBR+cXhOWbAchrA54ArjZaucaJT31c40Snvq5xolPeZ2wTv7EjjGsrlPsu01jCK1XONEp76ucaJT31c40Snvq5EmzlzgkVFyVY+ZpvZviwl0kMMdHCtgxr0RWq5xolPfVzjRJb0NTCC1ftPdon53Jq5A4zDrhYw3GNHwlc2bVzjRKe+rnGiU99XOKeCE//sT34zyXj5iVdWySORgs4M+r9RxAVcbCE6zSe1aNlnTvwPfyitVzjRKe+rnGiU99XOM4APhhmbpjuwDdagp9HibRYevpooXxPSCbT3G1BMg4iSnvq5xolPfVzirR3pR6M+F6py9thIbolYX1uEKRm1+YURWq5xolPfVzjRKe+iAnQYzh01mHPERL5IXRavc4ebnpM0ydWgBNBRVDbc1DMsoQFqtwML/WOA8lpaJT31c40Snvq5xolPfVcYkRTa1XrlG/cCN/OmUH9CuChYgdf5RWq5xolPfVzjOPyAyaMpLxsvQJeIoVLKrOPHNT+p/tEVqucaJT31c40SnoxFqFvRfg/5ZFkaPTbbUyonzsGKWaQ7Sdm2OVGeVxWnfrRoXxFus2rnGiU99XONEp76ucaHcWg8P0g4QLU27/hg2tWYbRkTfDmZaWiU99XONEp76Jzg81XwYyQ0oGm1Ypyw4JT0UBGCKS/BsH0qDvq5xolPfVzjRKe+lOZc+0vcXNvJDpR+4abDkSYFzCRSfAZyWVi3U2tYTRGqLFvWBJT31c40SnvqwYuaaH1NtZCM/5MiEGrjqblvEBXqlOlxtdQ46f3v7isYgVRtaIMCe+rnGiU99XOLB8hL6xU47f0QtwAHS31+QQT/TxwmobCDO/H7qqLtkbJ7404QYepx5WBJT31c40Snvqu3L9hkRdo7gMtSnqqAnyQRKBDl1tXVG5Qcc9l5tHw5KPovi28uSU99XONEp76ubSa+3guzgQT81/0pAEZpt/T5ObKc1u0qtuUzCPY6+/5H8jJLjowX/iEjhKLgdJNKBE99XImbQo43LYkp7y18l5WXF4xOZMWR0uuDKrXuseTPqCHNLj55Z4DBUXwJdFQqfxm5VmTvq5xolPfVzjRJSEW/8tOVzJhs7sWmlXvL2cGGaNV5FwY4kH++o7XsinAXpG4zTtRRnVKDnWbVzjRKe+rnGctjYQboiovrAscOVH58eXldzQmZELl19LjBwROd+n1RTXlVuTmIaBPhzMtLRFuBS/d8+mVgSS2e9MA5wPW2za1JzImXakX5VJSMDjA7Ue9ap8ElE4/ScQwRG8AtX40Sbuak5JVeTR+bVx0BADzGQzw2nbJ6wSGxKVNJEOpRwLlYfOvoQkK9ueOUaLeupWhOAFnXcc3XjMHhIJPm5Ne+rnGiU99XONDpBFzqZR/CEY9LQB+lHfZv8LzD1ewuEMb64jslt5l6Se9tFPWOPX3jNmtWwT6avAkixCSnvrbOtilBQMO0PdJXMp5A9wsyc9EjkZQTZgRLSqnDKFjgVVgmamQz+yJWYdcLFr+SEFU99FP9bH/hHtQ6tgZqubaSnRywyilOr9sZSxdkrA65zprjkMRn+LWcr7QsUJ1eBHkqwROFABMapsxQUElPfVzjRKeij36OE1Dh0Kp1oWzrC1zbLqwzMsHwU3rliQBkeKMm+yoDLkuZyJccdPaCsetKNZmZt4ljB4GhNpngZwZ/8ZK1VqTYpfYHvz11U6VHkEEQb2YflwjwhRzygLrNrUmysfruqSHCTGRI+otEdk5bsJ4L6ucTSJ5gDcyBLAJf0z8qyGCSnpZv8qHn7UZrEXJ76dfFBPoG2TZVn6+2ql3MSwhobN7wAv3MPQ1cIzbL55QkjlrWBJT31c40SnvqtVBK441yQyBC00EvSzmjNbhEjuJPnl7Q64cwC7BxhXi26Ygxnxqz3Ddrserm2mXPak9Y3FCzqVEK+E2htenzjm1lCxzCA/lUkXrfRH21fqI9XnCUAD3r7Yx2u8SftuNj2cZAMdwHEXePOWvIWOm/0yXxokrkBRCAvp4Olgf6KCeHNi9F44Pq/Nh1s8v4oGfvdKdzaUR+EYDNX00t/UeedA8EtjdngVRWq5xolPfVzjQ+Y/bZSAEdHQzQA0M3FLeaMwRCnO1uYEe4BXhHszQm0s6Wrk95USdbnQ8uVQsbHXxzKgo2ABGZE2jar6FtCXmTEsT02GPa4bjX4R6uibQ+BbuS6uFri7aM65vj3PaRO1R9rLDCQd9V3kqoLRJa+A1c4pVQX1ynIh6UpPNLf1NJJLH+RjNYi5VaGQbVIIgBftr4IJlPQsNKHbecKK1XONEp76ubVBUw5+vRtkVpJAfyxKGg1jNU0qlJ53NrqF2ZNY7ff33/JEOB6aIrVeKNYyVquPP6d2nSvWDoZpNgxmg1mPszWTxpZVZw5l2THFhoUkhyA4/OKi9kkKCeJYRI/FIhAX0y4SSe0AXMApb6yH1jbaTK/6Yg7Nn3KHESbFFlEi3bxzyf4Xv32xdlYodaENGsKPtj8BjH2TunxoOBXc+k+V7/XxolPfVzjRKektSO6WZYEo4qBgXvWctRao3QXFOsu8vTIk5H2u+Lm4qa00GZHgPmucGY1u8URFskZK1XNyOpEWNrzTYkQ3/fKCBEqQx6QNo42YEqZIJZ9Am+8UNLKJJgGbVs/dgr6WqDR2xzieh1rAtUoKCSnvq5xokuQb8Epi+B/zaMDmn35CfW1E0AnUf6E5kXzA1MtrSKdbwJmydcIirkY9xh0Nl6fg6cRFJm1Rxgs+JnQq2S2b0zJ31c40Snvq5tKuN84VRLcDiqKhKVwdhtwdGK1C4A8wX1mS9VfQr/GYtjF9MPthY/YmA2u3EjMUoKCSnvq5xod+UHZg2/nBo7WNDLxKlO42tULRNf6FZg4SO6SGPDFI1C/uEhdm1c40Snvq5uOlnokhSQv1CHyajWx74zwA/W1UvOQcDUdOfg520vqky1UU3vfyitVzjRKeiuu76h/ii3qn7BKp0GOhoDFXQKHCiD/JVfE6jzTp6g9vbQIB5LCuCtft1m1c40SnvqvAtOHWD1Tj8HIWIGAEgqbmQJX+Z3LsMkdSxJCXMcxMClubLYHfVzjRKe+rm2vK6F1Y1E6GUjaFipuJn2bmXdLf1g97Xgy9SKUEnk8sxEgFOjtb7A75QUElPfVzipV3KsGVayFWsctCX7p1u8MqcEU2fJAVs8B6Ws9jDHAI08njn/Htn5q8I9mNhu12PVzjRKe+rnGh479Y6yZSeVkbLpV55kjJ+c/4bwii1IDAjfYO8RK33iH74ADmxG6m12N3RNAvrufOstrGyp76ucaJT31ca2Tq0gIhP0WJA1d4Bba0W5MoUqhYhAiLpX2q1w3j5Nj41pN8SMrSRVn/apgvQhiETb5tCWDtEVqucaJT30Rrp/FiVkUtLN3dyEiNcGimX/49KVDlbJWwvoz1rvoPE+P0Snvq5xolPfVzioyQc5eTOV61nrWTbQ02nyg7/Bey5SWHwMNwYQdWBJT31c40Snvqt4OTgU3Ovbiq0UbG3qJncR77mQD8SQoA0cKbbMF4KVGqYKu32wd7aP2oZUkHMb0AQntjcQQzARtHaX38WaRqBNcCubrq4rVc40Snvq5xolPfVxoIIqV/Qe99xOlg2VZ1TDG9R+ko/SjxmBJT31c40Snvq5uB1P/Dtm09tVGaf8qzvSU99XONEp76ucUtr85UVPe0QJyMdYgurexKBMT3CleMS+ezSy5Vg0S8n760sHPz2vIUO+W+7rx9+rQPx+C5QD4qUWhdxzW4H9tASz3FeO+UFBJT31c40Snvq41b3DnAvUs94dqd/7dhUmHxK6xELIucszZXlGIkp76ucaJT31c4ro0cgV6GWtRuaez3cDFFy4DIvFk89eQQSU99XONEp76ucaJT4Gupp8goWCE7IulfarXCRdxaLzKtcHfVzjRKe+rnGiU99XONEp76E32KkvlmWslOaWVWFwTPSZ3DAmDgSzukNrYO+rnGiU99XONEpkNi9slsKhAlkXxGopnrpSexesQqze3lo1/reziYtahQUFBJT31c40Snvq5xoe2XnIEQA/XFybS0Snvq5xolPfVzjRKe+rnGh0lWyCdb8sQuGWE3dnkfSPVJOl9ZfgyoxttS4BvYVpaJT31c40Snvq5tIVzl9TmWO3lET1C9rk6VrCqPmd+CgC9ce1ygoJKe+rnGiU99XONEppgB+tqpecg/2X2iK1XONEp76ucaJT31c40SnooRIkg+t+Q8A1CCl9P/YyZJtiMIuUFBJT31c40Snvq5xodODyFmbomNNmlGIlWZDC6/2TDTNattq4YJntcrnGiU99XONEp76ucaJT3n6HuXJsND1YdYwxJSwX54OnybELG1UQRNH+UVqucaJT31c40Snvq5xolPfVzjRKe+rnGiU99XONEp76ucaJT31c40Snvq5xolPfVzjRKe+q/ZvY2J2SEoz+aGFl5EjQiMDHI1c40Snvq5xolPfVzjRKe+rnGiU99XONEp76ucaJT31c40Snvq5xolPfVzjRKe+rnGiU99XONDtzw2R1lFLytXcpCcDeKaqnI5SlnRDvraPgs92daSGLBM6zgYD9ZaWiU99XONEp76ucaJT31c40Snvq5xolPfVzjRKe+rnGiU99XONEp76ucaJT31c40Snvq5xoksAU2eGOfLtt2nkpWyM8Lloh1eTkojpgjS/+BYjOgbFpaJT31c40Snvq5xolPfVzjRKe+rnGiU99XONEp76ucaJT31c40Snvq5xolPfVzjRKe+rnGiU99XONEp76ucaJT31c40Snvq5xolPfVzjRKe+rnGiU99XONEp76ucaJT31c40Snvq5xolPfVzjRKe+rnGiU99XONEp76ucaJT31c40Snvq5xolPfVzjRKe+rnGiU99XONEp76ucaJT31c40Snvq5xolPfVzjRKe+rnGiU99XONEp76ucaJT31c40Snvq5xolPfVzjRKe+rnGiU99XONEp76ucaJT31c40Snvq5xolPfVzjRKe+rnGiU99XONEp76ucaJT31c40Snvq5xolPfVzjRKe+rnGiU99XONEp76ucaJT31c40Snvq5xolPfVzjRKe+rnGiU99XONEp76ucaJT31c40Snvq5xolPfVzjRKe+rnGiU99XONEp76ucaJT31c40Snvq5xolPfVzjRKe+rnGiU99XONEp76ucaJT31c40Snvq5xolPfVzjRKe+rnGiU99XONEp76ucaJT31c40Snvq5xolPfVzjRKe+rnGiU99XONEp76ucaJT31c40Snvq5xolPfVzjRKe+rnGiU99XONEp76ucaJT31c40Snvq5xolPfVzjRKe+rnGiU99XONEp76ucaJT31c40Snvq5xolPfVzjRKe+rnGiU99XONEp76ucaJT31c40Snvq5xolPfVzjRKe+rnGiU99XONEp76ucaJT31c40Snvq5xolPfVzjRKe+rnGiU99XONEp76ucaJT31c40Snvq5xolPfVzjRKe+rnGiU99XONEp76ucaJT31c40Snvq5xolPfVzjRKe+rnGiU99XONEp76ucaJT31c40Snvq5xolPfVzjRKe+rnGiU99XONEp76ucaJT31c40Snvq5xolPfVzjRKe+rnGiU99XONEp76ucaJT31c40Snvq5xolPfVzjRKe+rnGiU99XONEp76ucaJT31c40Snvq5xolPfVzjRKe+rnGiU99XONEp76ucaJT31c40Snvq5xolPfVzjRKe+rnGiU99XONEp76ucaJT31c40Snvq5xolPfVzjRKe+rnGiU99XONEp76ucaJT31c40Snvq5xm4AD+/+yV31DvtkYoez+72sMqeY3aAAAAAAAAAAAAAAAAAAAAAAAAAAABJK0Zitoyr+WiJQAghW8uDMiFLd2qyoqeHS3cn1v5iVlxAvWCtKAeZSmyIR/QBHpafxkFARA05UM2/CysrLVxBjw+OWgB857JxQG5J8OPPAXf8c0lwrpGV72v9MjxqdOtC6VHS9ljhDff0+tjjlWQg6JPe3h3YvYZ319BTMfApiVUuuCwpcomky7428IXcHsD4/4k5fXmIFXfOJGcdYx5NM6UvzPvzW9rFd6rwzuD8HRkdQdOAoJ9XuHgUkoi1FQ0lb+Zwxl8YGaK//3e5C13Ib2P4Sqn2cprMUN/S0/D/nyBMtAJs1ZYKE+2GgjN12wL4YlMECk5JNu2LCEwDQ0CkMFQ193p0EXn3u1GnzZiay8RlcVtmydWmtiT+dCeVCxv1kayqszSVVB/nFvaqLnN4zS7MlJ2+ehw2LHQrHNLUI6HJQDoFYITXGNxpyIYBHOgRtZnx+rlOIRn0kub1Xk/XXggJoTQ3hFzjLI+9BuTHatWutxaaEr8vzcpy+Xr0ZHUsJMQKKvRv+CuWVocs1/iJWNCLJ7vrQ/sA1xuYwUEqPyyIkvQHsjdqULpnhXDrdySo+zmKTY7JEeb2An0//AAe4Qv7NgecER2DroiC6NYVVlW9L4NVKUhlMQGA3hyCyNMzJ/eVLl+WffsdpQbmOpeH9pF61TEjvGPrrehs5UqkfqVrbCjD07zPEM+iKNH81b6iNwuSxv9e/8Quf/yK1sIFWA7xWW8MhMWWdqBrAz1T0qX6AVW962u0ocoLljrJFc+4hBYSP25LzAtlKHKCLL6ipnoVU33AgA0ONFj9yj/U9j5NXKF2jbtRs0b46IWqkgvtNDhzrri5Z56tnG6D9/01LL5sfKS6hvriy3JAKymHkoJVWhZrWpmnTTGLFYmiJI2pJjGoPwG2/biZOs0+3OulsI9YT5MF5084hJ1qWDuyJRaRb7AXIwWVG305fekmvh5xuRUcM3U8uqEsZAoj/sdy8yuzqofFwP9YtX+qQUig6LTpjxmWGTC8l8PD0JRJxR192Hm/0Z70irhKJrWVHJrnuE5z6x2L1FfxjbG6CB1Q5tMEWoZxrtDtZG+gxVWQIs4xauGs2Homi6ITKI3Qe5Vc7pIxBDdlxljymxtsuXQkiesHMJHNTqhcUj/l4dYIz3Z7uJZhzEWy1RNfwi9yRPe/Mwr44ri8zkz+fomh588I7+ZL7R4zhy2DDQ7C9SUunsVjyBvQ2rwA/rtqplwvOJ6QmCMsIsjPK1GCJ/BIMw6T+3bAhyIP49ydcAdobPJj+hQwSFdzCRJUmYxBokIuhavEC211haWXx7+EoNp7M37tm8KNPWYTTcYLb/3/XgP8HCT1drhSgnkFFO5rlY/LM7jPq+JrtZFv99pXrJ9mymP/tCHgvJ8mz7cSVKm2gNwX8ZESXcw0IyuqtkKbYVnnKm9RG133g7CXrJuil1ucaiTl9lvPJ1a5RNn94H2AD5xA8ro5aQNUR7heeQ/wVLcFQiYC5Ma3xBuV3socJZL7AaKQXJM+y0qLGQ+Q2XJo+mmj3Jj9Of28nJlpHQf64fZhWJcTX+0f9ljCYMZSRDFRvnNU7HJmxz5N9BCUYSJ9u1gB1kNJ+QOAdPRNA7HR1+5iSj1MC1Wyse6EdP1S2i5ExLX9l9l5hTg3FMEkOC/4vRfODdYVGQKqrcUCVO60RDCvkOuSdB4ZvVq2/AKmm6sVA1p+A9ekS2FPYbUxIZYQ/eXrz6na4Il8ylNOBbJEjU3u4NEg5GC/6AEZFro4zvuTZd/SExjhLR+egC8vJJJ3T6jRfNmHhC+4DZ0K2iWCBMETdWIeZCHn78sP0j4AW03tqzvLVx1rVni3b/Vn8ws4U6IdFlPLrzbarvEAGYjbyfwgcsYoCfba3yXxKY3ua6ifK/iXizO3TPjYTe7xYWlbCoqNb8sfZU5AHJBDmJ4LOe4xgHjtLEErD5Rsn7bhg+vlXD2scKGOtKEgQeCALf9ByIT4w9S72+u+nro/bmD2iAYPyDTWfAMmRJLUjOYLl68Fh9jCI3o5mJogNhlozxBIM74S8nocP3LLxuKdxapa0F2GMna2MFRj+FIXKLTxngJlxHMZhOzbdMEFb2wAAO+SWWEkypMk7wkJY7xI2sn9tbjYOzqbaC40V5m2I6pZLL4+sEcV+FiFGVqmvj0BBlRJD6SPUlbjVF4IdHNXmJzLBumETjguDUeFVUMCwJm+VfH2rvxv0b2s76QDR+KAsG/bQYNJi/uSm5zaxoLpzm0mlbbjUDN0COxj5vZFZqAj/xD8n4ozAFhVz2mxIdfioiPnIVRpzGX9gRRB46W6bJFmfApG9FS1xL7uS8ABxqJtkHVomM29N8WBVeTfBEQtch+6fNECmpeLk4cQ+vrJk5G+J5tmtJJf36jKALnwP2pgmWvArlusQwoKkj5soCqB1hLTsHfBvZItRUj1RnfPPwzy9vG4Wm1qTA4mPCO6s7AxtS6Pm181/jbeYyf4RZQ1jyR1q1MIBGkGu6s0Xp6BPWWoyLc8TC0gaFUnc3kW52NPImbmf4yjMNwaojeQ1Uryelh4lKSAPfGdMnZQwWmiQnQ+VbDq5NLEDtahK1kL5zuy8OlegPMEKkSNwwNOl1BoZ16tGi1Aj1fzrtSESzWFmA2D6+AnvC9UbYkFUJLg7kIGPZEQXTGSNg418wkzbH5woJMXsAxVCbACZWzQiEpace5STVcmWHWv/AMsSfBpr4lR3RJiC8/AgdBD8J4T+h045dlIESqPkWotQyNqe4N7QWSwA7vG3mXnkmEyJc6SHnrqQCGST6smXW1rxFVxEaH1vrn8G5kPacc5RQS/3gExLIq3dmRp1Z6INWvOniXiC+6jYzFG81HdkJc+qjBXKQznC6VU3zMiX9uiEI57QyudGdz0fhW7qVjgu/TWLIPylFa7BMUK6q5lQhKP7rgQrQEN45kTaFc205Ir6Mu/eP5nMLAUVeHt+q18Xfxfa824d0lS1mB5B0OZ2clBDRBbLk26ywc1e/fj8c0s8W/llrRCPAKc6aCFxj4KrW/lnoRlWuR04mxZgBCbGbRZaJ4iqPg06wnCp2gWdUHYBU42dxqj70e3fc45X5ZcD23FdL7+QCrwK2Phurz50L0RTaomLJXojOqW0ngM/A9OD/5VFheCzjujQ/Ts8vwtnfJ/ylmrut5Vjup6rdo9RXbUbTZtUaXp7SFw4H+BaRHG4ENE0lfZEClZpAjblhEFRDne6Dyev2vaDSRZPyIHx4XftkqydjOU4jZh4fvFuQd4j+6zM/0jQXQIaokZFeZwApjjFLbBEDUCeCslpqx5KUVmPAYminKZd1qXh1OTLyw0n2urjeCrNh6gsnNBmczIzGHgeT57hxWDqvvWqbpSG/G/GZA3A1quvoHCFVPL1rThsm+jEOJ0Wc10bbOdlVqYFJZdLfT7nvK+hGI1LmzEw2JhqdNGlXNf5dUrxMmzfio8+eTxMQvQ7F8KA0sVvilpdT1HUUfCWdoVRDNYH6Zg9hRp3CLe+2BvcwfNCjWuA1G4ja3xwva4nfAUJ8VVALHFfC+4wmK6TF5bWyD86a9GdDu5LE14OYVswBBIWK3+uGd1NQ3xVSyf8JZ4WxoItY8XItZBnWr5uO3FufAHHv4EL2l8bZswVrSsH5Lkpl5YVTNZAqs/9AhscGiwpj2tnJCAPZrNLsLxMgyzx7R7EjT7cx3eR9co6Ztw/HlLlj6djHdH3vKR1lQYvLOH7SU0CbHghlEN+F8mgVuYTkIZoAwHpLnBDICTS5EJH2cz3nRO2j9j36ADnD6oJkyrs0pfXVb8xaGXqBXLXeHLcZ5J/Ruzj3YAzHqSuV2Lq/XLKNI/svUIU+7E7I2MYz8KhA49OzwdLVnf1wYvYwZtagj+o3MKtXOwSF/CgbRtZ1+F8yqvHL+iMb3LgNIReWKrVmLGZlqHtuzSW8XtRFPoYKegNkpIjWaSEGRmgFtdBxsTbqfj62orF1PuAV6fXwN8L6UTOEYCkdpUbliZuGEKACU40CYlFYY0pV6ecMpFzPFOmLVSzZkwnKA3MH0Ick5ECgCW9RqiwqTJBvR0FTLnP9rXSn4qCd3o9nzii9BJzvvSpIhmIBNDWpH1G+UpIWEk7KYw30cBIrvEz6rGTBrZKEk8Fq1CH7kVEqEeBECTSwSx89JUHAygOgCEXvj+d/MJScchwELWNBMmNuZwRjpZTY0HLuE8C3gh2uA1O14N17w1810bkJCdy89F+ER3XURyn4gAIVIqdCv6ddup8Ax88+afux5/KojpRb7836i2jiZRwO9LhxF7+moJKg/gl6bPRTjGiDjtk6CEMLXQeGMK4JVakK1zbIf3ikNDsbgOA7vjcwf6E5Wunnyd+0o8WPy+Ekm4o2kb7DctrFxzdMyHS0DXSaOLDo5eB/WG3w3SC6CEudMUXuBVH572e5WTYhjPgSDSyrJ+0cb5r8b/EiQJH4+ccHid6OEcZofHaNfnnNqRdyRRfHk4FsYsVRwuqN5F4rTvxwusQ+aOmxzPx/fR/5dwVmp23Z/XnmchF03gigY8V/yGF4w1CoHcXmLGgn+zXcGa5pe5/qMz3Q0lchOp5s8zcWPkcukSzGypy7m3j0u/XaTTl+wWvcKmqlZSAsovo9Jg2wYonJ0tlrGC6mvi+bMtB9FjNWhwzfhEEwuMouHSBhB17v4450Df5/f22X3apKVe9PM6sOSuVBlaQn0lVzh25ZL8EXEJVA6Dohuvir/2ExSTYmTGDNIWUtABdTvv8TduBzAfGlHXqtBfpA3j+/XgQ2J6gYZDdyf6kRz6mU4sdzHGOD/DqGHJWAy7XHA52nF9ZpANjf1uWnMT4rIKj8e3KrShhJVono0apgbbMPNaIyJIGEShC30PX3f901aDz9VPtNIKOnYo3i/3gkKQ4ZWhzbuWC//SkQ4i/lmaMCy2AdXBcLTBLxbx/r7q/jhPHrcLLwo0hbInChvvQSouzLhAo7O57T+c62Od9/4C9hXch41NHc9HLWVajHw71Yk6ZRAVneFpOWtyZghgRd7bzJZ/SR9QrDkI+ZG3kEWx3aMlNjylMlsJcj7w+xXOv7/ivEAZAUkh4TVtxqmn6Rl4ZZUz8u1muL/9mVrXo/3Ug+6hbu/Ng28SyklINIR1jfTugGu72tO648Gi1KvL7oOm80SpzUicYXeICh4CCcHbf5gk4rWS4a+O5xOwu/GEhGTYGRd29+1NeQbQu+nL9v5vzL9lvus/qcHSFB/FvjlDua5sQpCORDfG9uJG0nnb9lhiMtfqsOLWtyWiqyEtOAW+muJAUuPtREM2eK3IuJznGoq0+4q2doXH4aI/9K9Nfzotuk4UKll8ZUpwcfctAejvxhddDSC0XJW3c+4ymiTwzdTj9AYOA1f6g59dNpWIEYfVtyF1rZaavvl/3pwhH47PYHgxzpoPASTI4qcmTTegDCIqFMaedmlWao6XXXcw6XIX46mqNL/SCT7rqbzk+lB9mKFxVrGxW4LNt7AdAYnsQO/HFADaf8W82XrNZSmEHe2weCiaA53GUwWgFiHGnMPHNfyE9xa2j8QvAYI+AoqR6z4J+kEVsDnE5uHGKKPrWuV4SqboGNL3uUbP/DR9VwCnW1TOXCifVxfqIHZtGnwOV9xcml7qqOS/GFvx/r+yXL8bqwogXwTz8bi0jK4Nzbd2IwjMC0PWoGkr56zMAVQ9XrMSy1fpX+EoO0eNoqRg9nIWVoV38oHEnPhYzS1Qgz1rik1h+Qnt9OK9jEtfSrKqGd5Tm0tl7fN7qPSmneJ/HPG+E5xWdtSSMctqYmem49ncQM57IqxlHMfmS0tvXX16BrAsLUdLUL4Wg5oSbTpVMhyAPIM/1zlifRl9BY/kPLqIsrxjNAZrUHfVuoeq1e/948x1Ps+NONOygA8+TK1pdcToqPigEKoFm4appNbkij5dGW1DIM4v85HroeAnvrZuzXVWUfapj8Qs8QiJgh4SDoZRLqyl+135pxGT2cVEwrAVTnzHCnEsYzQunh1793ACPUm1BpfAXn5B0NjFyIdG5LSAvv088ULYWOrDjLD1REJ2EXmk/0gyTrE1hNOiQjBumVfWfKV9V17SDAbki17+Rwc307wlIcrGpNG0J9lM0Jq1zjK5v65pXJYJ0OJKvgaOLaoeXtp1im8VGCpgX+/7oWXx76j4Em671y1iZA4chFcWNa32Qw4tqV6ooJ1EtQbSb8t7RgWWwDq4Lcf7ML6HkghayofHNF/GfvfM41QgzVpe65PNR/IyY6S3lXD41PHLMuq1YohZRi5LpyZMaxSEHCln3uenp9ZDuGQn79MGqhHyaG9iD8aasbdOy3WfYEWeIEnSelJz7zP78fhD+Ru75hD/GDIg7PD8p+Lza1xnxgn51JAMH1pi8xJy7WNdynUXXIlt4YOA5B76sSpP7i1n85R3EHjZ1Zg+UE5CpZ4XeIFmAvt2uqbJwlmEvjlDn5i1qhjnLtOL1+AZDnVU8U1wcF6nRXwek3F+QE2DqGY/2OP9sJp3O5GCLOo2PNeIVPLpoGd0mL0+5Lg8nX7fGe9TQise0bb+wqq6CFToRZ9p4SETfDEy7BSyIExgozXSEXXYa0NyoDt8/brqirN/ZUSl4HjyGDrDhs+IzuM77y9cDLIv76NaNNWEuLm5/6q6tbtA/pgqi6RG4Gx9y3jOzYnd+FwZdDEPhbfc1A9CYsTqR+NzcyBulq4tuIFYxUH8lrNnm505FnGP9PZEUcn3XlhwEhD7r8gC1xJRkKH6lLR6IUjO8GfRZSrqYbifeds9Rl5NraBL8Q/2bDCkhpfwRK7kOuqIq0d/OxJ4z0hrlcrqiR/p5OQRo2bapuJIfVILvSnZ90921pQ73BLqcbINJn1LpLypkKsPQr8Hoeue6falnZtXj9184NTFGJmVOA6soBUAVFeWxEo01TOXGsHKThzmME1YTPtRnUi893ulXlF4jUtSkFPQPe8mSW4fhVVFo0HngfKYdMZE+ocetWMPwnrE9N4riHvLNzvas0PdbePknjwCUNNxmTd7wE5fwT+s9MgqDXWJibyK40AXxrhGBCmx5Eoxa/Dh4CMiMIKnZjstbD+xhqUXy3UeW9KHd5AMnkkEkjlthmKbReFtr6oUaDCsOsKbWzCfrSQN/8vTiCc/ZrbMqVsuS1KDhbc5WJFD773jWR/vgH2mXefy8YdtkJ90uZEckBkryXzZCeOqowP94SDiqNQFbXZ2oqCCMnk0bls/fRTmfZrCAAo2rh5kxKHoWKzmxpfz9ApT/dhSDllWolZ2DSR/PdI0+EF8rnC84YT6J5rmxwd0kHTO8klyejvMioinnuRaOPYoFgvDIzIj93sMAls3m+LJFKkK9VjMJ3FWyjcxcyEi9S0p29xLi9HmupB7xQ3TMmj33G8PKi+gB/mOv9xXyCx9k92UlBxxliOfqxmKeWUCnrEl70m/wwpQoAnty/OQjeiMn4c3ahAMovhJyllEnBmaRU5RVnfw7feM82Tk44Ch5ZBp8CSrQ60DsTF0HKIuKBZ/psDm9hYcP3U8yxVyVQj2bYngcHpFIVPGNLACwW6vNUO9eU7BheHKVQXJ/K4DkgEBMR/ufkoTDi+BYAGNeQTAUg7yVpzJsuAmi5VM8dQIPeikwy+numc++WLEqmxD/5uPcEEk5D38Gq2RSD6fHSQZx5bZxg0BziDtG6wqR8tMnXJULMN6spgpXmbE8yVF6FWNV+Ll0hBsRquljgTqMGiaz/Z9anzuKpSM/gp9ZifocEpIApaRwvIxF7oJwobUuDgz6Na4Q+H4qBdgnU7LhelYvllnV3ZJJeTlO/+WvzgClDAG9lP1sXUgRX/uf+g9PJJ24pSBOmrD6a/5N77lZB4qpy10H5mTMp0VxbiKLzUofk4ek55EuKuy/cbcT4eXoP7NI1LiZANYJvqwRptMOeoSaTa7l7ZJU2qk1N1G0zQFJd4mUAY1AGhTlaamqXO6X0F24xSXPBTen3v63bmbpS+unN+yMz8PdyEeoqjzU3SOIIY7OQhTGZpLlR29Kuap3MG+W0all5DUAXtD9VRFqOJ6QmyGe1RzM2trYs2joRBswPnw/+0jsSLAVBhJNAHSFwhMwHSSfDuBM9/KWqwtyubVuW0Tri3lcMdCNuRTHFv/lcUAGonZaRxMHzEdI+Sfqf+VEKRG4UuaYJaFXyRuJJmeoGT2sqEG/1v3FlF0QOFzU8TfVZe74XULc4MF/Gm3kPcNRz3JNCiKeMxzo8NYVxXDA8lvflY9gdffjKZ9v0YojVWg4AHsA20gnVUj/bzdw0Ok3Ye1+7dvVXX/qo5DL8RpksMk6igoBLuKam6a0prj4Xg5uP46d+gkYrP0y4RCOGkVYsj4gCWH1d9hSpkovpGeSUEkiGz6PLzgzCCqXjFq5IA53mg2hx4dOVmt4CKlMS/QAlTuFKJsGvYLExxvBlrFJtFKDN7ecA8FuR+vkTKOgG+ewGwHk7HDjG3VsfhM9QXNH/tW34t+mJvXUmm2OHLICHtxkRCIYd6kZ06FRQAd97HYu1RK8v5JOTxL7EQYCtHjnb+fCxovhyD/eymvyVBZkpepTTq01PGymtJJXjTsysCkPzBbat2yOWDoPyY6LwgP8sVE7qK+KHSADmVHjdB4UNVHiemvRZtyOHYq2nu1PuuupEbacTUs3KuOAxTSp2XLUoBJ783tY0FtlPr9gbxzh6lds/euV8B5FiFdcoukhV02ULRP+u91wY9J5UHZ7gvT7O7GW1aBG/L5mfUH0Io4bzufUG/sk7QhsVTh15ty/7ggxwl4H3h6+OILKticKV18qiarRoYL6hPrcHZhd/0h980rDnBQGjctFB/gEVdXKvQWnMU/DpLiK1v23OhppPPl2U0YLZRKnEa1GCx9+Tutgjm0Ci/51/slmSfUron66yNaXa9eBNhIP5KRrgr9KBTfaiSX12V1sA0XYTgrLhAog91cBqNVghrLqc8Gdfyoq3kZdPNjrnYbmlkmbkcz33I1H6uKEMYDTcanPUJmNZE0etaSJKoDCXiT7GdDQJMXoMwUlrmirMsDZbJncojlD1YDtywUsPMlsZjY3H7wFgmgCwiqDbY7EAUncR+ncoPsENJi6IyJHsmwRxOpB/LDueUedyshzEhj8YIahYnuQ0ez6wwEo/yU0gX7vGYAl/TRzMaAohFgnWeMZUy0aCeYWYcT5U5CH7UjELxRtsnQLYCwpdMrKellXvZ4RZ0uE03X8J9nVAgbGJn4wvZxX7kk7dyYeqJOzOcOFPjy4+ubKJgh64752aLV70K1VbFw/L6/5ambPHU0T4VbGyX0c9SXwHGEIxPvF2kDIqRXHTpUuE4TK7NFZQBZUUadpeo5cAm6/5uyO7MKCVCnX0JBnL1+lfrEI26va45X17snXqq2Ib0N0GDpBUoatBNldwDe8Z0+7G3aIOViailmYFTELqa6PJpxC08VkS+g4B3glZG5VuSX6q5+OsgkImG9drc6N3qEDcicMYqnW1bVLDLJgUh8N7CkSY4+tgCuz3ilz+NjLPRW8CSWxArEyLM2ZAD/+0dkAom8r265tC7sHrhnkA6xd8AbxMI5mg4Yor0E1Gl6d8e8muFzM0QP2s9f6shfsoREqL9NB49GIaw1b+iRAV7h9fgB8w6ZHwUt4+nuz2sFsumVjIph7JxrN88G6ILzbzF862WEWrSlOtD5RExOK0KNvKsxgfd1A6cHiwfdZgp3WfZAF7EruPDfHSYmz9Cxc58gQTvYJE1d4vXtnStgqm4e6uwp2pzhz2wduKNcTlBEciRIb5UbK9QS4BVa9tPiLpRupiTQHDxHfZwHQBxiThuUa+ds+g/9XjCzvGUyMvPxZ6pvY65V+JOUe+xgK51sIkd0yhbaKF0/6ctC/rbChuId3IZsdvftS5ysKDabMhxiCKRDAITQ0etwT7NoIT8Nqn10paOuq8IrMtbw/wvCEG4+q5Z0FMOSgsUtbwZNovxqKqEFPnHz4x7GNBWdKu196DH4v6xdR2YB5lxzgSlzQS9gkozZY1I6tbeaC/ZRX9IyX2iRM8wrtqJar3vsemq3hIrCaLDfKqmXmJKuj6w/311lI2tClf5vdCckJSZTC+5gnmqlRXkfQIhq9Y7tWC2S4Y6qnwUO2rH9x5SxuS5SuxWG5SQX5xvehtxnYt0SamQDH9OOr3QH8aEl2qlUh9+3VSH5DgCtdfpwU0jQR8mHFdn1Jwhk46vqm6nE6zt8e4iVdSinAnB2qtPHozCc03yLxtb4dYU+bpIuMCxUFi/bvlumrBXm1eebINh/qQrLuZCAcjRba+0SIMQqy4LdYyD8B/QM7AVmo7WXg3r+Jwaq9CZZYIqjOM0yhYZSNyR8igW/hFTUd8QM4WTYdJg/q8Nt7MjMisx2OGUN6+CgDekN++ZWlxlxH59MrFi/G+UdmmhGQF8t5PEXP8pAKmwsEdtYT7Fcf3hBCV4VCY5wrpJzA5emdDdpa16FC4cxUiG4REjk8VSog3KeARGLaDjqxuMj/cHddcOugpAyt2tc1/izhiHE5WDpFAqHgQw93aw3uvUNnUGnY4SklI/dmPvX3RJWQkosxhodRIFy7iLfVZHYJj0/VX0chS6TAEDBHMDWXNa+L4mvbJu7mEUFPlk9PPF3nr9beJriEHaShUxO4Krsyg75KUyxs2/LWxyjLU0mkqjA8Jdx8B4Kl0/R3Qr7CyDe7p5w/YuEumtzbWZPaI48+v49PCgKOOnudBgEwKDnH7LnV+K1/e4laRlsIbI5d2kMnbp0oJMXT2zk+1AHDVnXlXeqIl3BQnMGL0gzFP1QaY3tu/F7m0tEOH9MGddZZt+nsJEmZINDA87oTW78AVrO3RlVQQbULyqJ0OErw2od0AOD4Hr6/WXDmJ/+eBEGO6NpfyBasIl2N5OjD7z+vjedC5Od1HTGgUMXAtt6LvIVbwmEaOa7iHqRMJ1VF+dmMVuFY3D6ch7yebbFkRnf79+h8ahaCC1hn/CD/tMPiQV0TQDaOyhXgxfXfBu+7cmW5Rv698fTPon4nRpHy8Y0zScMK0ssnMvT0kEgkBTSQcAylfud6CXRbgkquVkLvnfuQry2z+iaPU5g/FvnzNLM/bBN5CteeYlCAZvu5EMjzK2mhAhXkklpWJqpXlGpL2dywUqKUO0LQLF/5g9uw6rL1U/rVPhfVLoc6fvMCM+6tFrkk36jC4i7r3EApy0HWsyInxlmPFshYXkuZmpAberf64RBaFJMNzaWJoJ9k4gBp/4N5YACoVksFbG8AwtrkSWgKr3ys+Abq/tAMrFzeV+3veh78MiGLn8StBizdooqrOPSK3bY1ohXBykVcYddAXAdhk6rhCDat2gZxGZT9QFUI7/uDYgeS3cZKTgzka22FA0HbMMJFJRCJyVF4QmSkL/KVVpQs4zWvP3rKCjksqY2m0nXdRMUdKEJhsW/GReaTtxr4xcbUFXIeLqPS1BOAYKBjwVl/FHYWntR2eCPJwPdbhu2J+WX4PZmRiIcE/0f1y9dtqyg6nAY59HDNccl+z3rQH5zGCv6Ep/JknA23wu2X3LrnKEFOyhCpZs89w1BPAtJ2IHlvw/WAABUrS/Yi2At49A++N1uQTeQ4wQAfJsHFi67bv+srPU2KVRWd3xrtTbESConazgpHbgroBeEaCEx8mQ7NONWKNd1LUzUcTjfuHeJiqBsFMzEmxCI+zxBTKsqCMOxyXQdhJLw1dM9wxYeGdUajz8np0GMJWYOC2Ucb20xpR/8NGGsVBx3DvfFxLvt+HMxw9SfCmmV+wlGOZGtpBVuHrSh33fdJUg7iIIAYpma4cRSTpQBOk8riqDh/bZ4b1ulDhOIY95sMREUzjlHGUwU8soAMsNgVGXsxJl/cK69KZ4NIwgz2VNHYCq8nBQ7U1ifYfYVslp/QKqnqFRu7BBT46qaIi2uOLHamFDNm0Suzw1QNiDFJP6dHGtsqWb68I56xTamUsvAsJoVKJOBKIwzcbbrePqS/Oq000oosHuLfpmr4Ndh2Xn4nL/gH1wnIiHgPsvlqlYbj5AqT2+OZWm4N1AB/6I39fGuTYP20ro1CMsVBkYxOFx6tLj1xhzbtn1C/L90WpcTtpZvPG92TSQ2xfjctU5bnLKhmJZFW7syVZe8naDxuFElsvM7DML3pZhpqRh5sDM2d1G4lqgaAQjPhXpvYp+WXVZFtfeDLlOWI0yi1E7SIY/xZPKIqo1RJdX2XGPYXIUypWxtiGmJ3Jtggu4hBQvw5rYOkdVL11VER7zsrbl4zGhLxX8VkXtVg3lZDyOAex2ByvhWv5a2ZxqEyl4rV1WImH1K6NE0A9muFWC+cRk5bS/1qSXedKyMG9gEwWxwYUgS6U7+zyjyPDFoQmVzObg1+H69uVy4rvi+O2ujqPFmBZo597LUrsra7PHjI4bTzMPIuBRESjC+Vc0cyxnRX8J7k/ssKc3Jk6JrfPR8BQvi9rkbJFUqjpi5M5huPbBtQn0M2Zz4hG/EFQPBAoFtE2AjyM2IuYeJDq5SWr5uGPQCJQYzyZ7LfM0CjIZM9s87HTRRyD6PoOLvkdBQMkhXTtg7A39oBHZcpw/+OgCZFcM1DsyLu0dGa/21bMOufBtTYo8z+0eNiObEfrnDn+cVcwm3/tnOjeqV/98xb64DoNPuePXxzivs90SgY9U+y7r8uUzEsQEFFYawvC/ON9rkKtlgyLYC3RY2zc+gFrVinupDdKdMylWTlJwxQpc/+92mZ09inlWcIdGFDaKxkXE4kR05xUFrFQV5ezTTao5j59I0/0gzNhjlkLHU2pmSsRpGN2ruiJev00tUqENN1qK/JMgMLZPmJ6cMrqJG+vSBzyu17hrTD/qX0iBbFxhQ+OFdTRGxlBLHWnxxBI+5aiPVDzgMDDI5roqc+PHemmpHiITwBM4HBP+boM72VpVCVkPazwRmu/e5AatkzOS+QwpoP3zZeT2uKlEN7VBoU/5Vg/21XraYTTN8UEqR4oMD577mqKoShQxfoHMnyVsjWg0EOXZE4eGvTH5+rpE7Kkm/gbh/QDqP7OzzHXJ1fPg8cNcBvFOvYANj2Qiop6X4AizUKE247cOlttr5U332cdg5BbbmnAI3qR4QUClsdpoLAox0kuozgiq/uITEI+VFuV6YynGne1lGfp69vcUnUlXeutBEMYJ/VAU/r/FKLH0q10PXYB29zkALVUxW3235LH7HCkeY+LzW31hV99E1HEB+qvBqDAO/yD+Qiae8GV4U1cU3zkTqOTboLYinOgnEs+ixfIMSJ16+V/6MiOqeY/XYXW1lm5VxwFBrThH7kVEqWNL8WAZGNEtmP6bQD3VVbolC8xglVHpeREZi957ZutSYgXIdlq+bwXlP9jGYIIn8JLZDmLafVRgWv3CVLE9MIeOhzRCMfF+18WHTjcWShiS3LKswHjpq1teA4bT/QXkuxv51t79OizMvDr80WnsXfbpTl8MqST6ZYXhPx1PfwP1CMDXN/3OsLLT1wc9uD7R3NQ+RuWs2dpOWJaK43JoPgcBHKiHa82UFCLyjJrYL+GYs9qcKaBj/2TuDZErvJm3wqw0eg1hU2w/wlMBzkSd81di1JKdvvH0npfj4fW83by4x+Qr/OvjAaO9WCyU6GjBKC58PKnX9ydsFxE2Z6pPtIJ1vLnHbf+Bk+iknzgdHOH9KR5/vHGlisM7xwtLN04YS6cOdlF6ZlZiW1MnSnjQQP/URnGld3eIb8yi1ktIVi2aEGzvq6g7f3on3wix2Q8ab5lsARZ+Fe0rrkNUfJPP48qamrWgwSdEMBHtkY0Kbqw3JWdnwaRoJt2CSezSAop1M+xbiyyP3uivkxNe+T5vd2Eb5XPb4QH/kC5Cycq2GH1ndtcxC3Pl3GiXMNyja01NgqvQmDy+okooY2RL3h3Y6iN3GDpo7m5Al0p3lwVQTd1SaDWXRjtOnnmeGSoJ3qlJm5TWNm8Kx3btZJTgF/wdITuBiNQvqRfEVBP/OzxFckcwsTjtnSjAgPLobWkD5Xi2L5JTx8Jf8VXc54clYbJJUh65++jM+O+VKBr6n2NEuMMIv5tETwKHZHX0aG8Zvm7RNaM1UHjHlRmUNXm9JTz70H5yVCfQYOcPR/WIJT0wYYS0Ql2P1yWTEP7DHLOO1C8iYnD1cOP+dfG11qBeyXgdt//yOw3JYPNFDN6LKP81xNNhUArzxYBjR8Ih82elEj8O0WaVYdP7rmTRs4XlUjaQcJAOm9iDbg5+ZHtZt4OyXVjF94Nucy+ZdkVLVnIwpejUhHreygp48F4M7qPF9RgqwvUYKwP8QNbJaWadQ9y/qlx4tAZ7DWTw8PbUmj6l25V5F7ZFMbLkntJ/FDm1nQug4CJzaMpYWCZT0+m2Y9qw8JkU0gNIcyCPr7ZKbYCk0mKm/ARS1Kpy7Cvgy5jDzDQgFMly7SIfnZxzTRlZJ92YSZ8uGcpuvmMym9TtldhjmcexcEVpLzabPRuw74bmD/vWgPaKJRVxnJjtpegQFFD9YHgEitDdWxkxzOeJ72YRa2p3i0F6vQel1pbdmH2d8FRMezRoEWQvxusopeop/6OARBa6bR92EEn9jT4UK+vOwTdQQSq4dZmTwzGEdtGgckuy1+Y28986m/PmYHd3FSgLhnHPsNC9y4aUKYVE/MbUvN02xrmID+nJa2OhgsKGIWMuno5MlXyHxmbmJR9vc03/l11IoTKgn6RRze8t871kbj8gB/+4kzfRCo+UosBB3bxZJZcafUUdHB1Flvg8xZ8sB6B1o8+vymBZ8a8yr2mOw+ZK7/qVsfePNAd/4Ac3TTfiEhT6bXG6Y0lZIznztV76V48/IjOPk3IXizdrIubsvjpPChXslnNMJsz7dtPyTd7myUNsBquBE9Dp4JCTO0ec+6Yh1SpGPNTzPpGZmRY4raBncMUMtDUQfbSuvrsZKelidF8rbtRVZpzcvA7wFA5jxPnSXPoaN/tGgvEvk3oLitv60cn9hC14u4Zru9MOmgJDZ6QrZpKLYQ0/lOJzLlwU1xVjPqagU3wlYiPAOW5nYFN2oDfjHtZ44QUeFo+ifB/gOOPU7KRxJcTX0SNOw5ySKouJkCPZN2HUNFpM9AfFugJr1TyZX2c/vrX7dxXbADNaFYEwloXpIO3Is0ekUobCU2fykv8KmlzlZrHGC4AwCzssTCmd1g4UzGRL7rvfbte2iy2QvV3LuzKonA9HKoxnATSSEDem8NTNIIhM2wOCD+a+xaNckBwpndLXxt/sgRImgcYR7v58cHk14phiWu9fqf5hIU9JpzNQ4gYAu0lp6bdD1rQHgVbectiHw2H9G2WeIrJGEbyq4bVvIBcykjraISGp58jo7EmaAQf/99F0nZnroRdF6CBEZdg/l/IBKrFnLKRmrVXDK+NX+VjtjcpXm+SZs6FiuBx71XTiRPzG3QenRaGIzUXIbj6ecxmIkAn2TmWcv2n97+A7RJtb+u5aw2Yz2j7fdhXIEIFEvIaizQDM1TAhptqyA7oERxAqe4d8bU6XTgitBeAqwDuyK3d2dxp0WxuH8nh9DPc7yDccmZvWZOeo5Z9TXgn6ft1HEYKZg0MJ4YOexw0zdRn0pSef8mxACt2J0x7MYt4bOY2Al4LhPHAhyq8G8lUyNLQ6OP9cnqWIVoaaNn9LDUUDg+oQDrmQK34jUMgjuJaQtkN+rQ3cQ1AiOQqQpmZl15Md10YKKnq6aQ265VwEr+j8TyCNhOcKb2sPzkFpsIoyvvRVHsCpPGFg8vajzmubgF+6lN97pOQZ5yEiWTu8wmEY+JqGd4ky0h7nh8qrujCzRDRquGgLuWcIuwbxHuxvjMxBhUj88Le4tQa6e08NewiK5kPLUNYGL7d9Pl+k0E6IOR3pp5036o9v4jj3TfGyY2BDKqT9acufOKJgKKyxDdz9wNsvZHUMc2PX5pWJ4hKJsog1wRUXcgeNnfFqMDJ85EjR+Cd/JF8a6z86byv6BySR4Dwp/FbPWhefCjrA/KSGCpMAwKbJQipt3NnMm1BAvhwVWndRKkLxfU72DXlWQev3Tz7/YEFg243GvjOyHwILCUgr9glSy+EJKFOsO+RB2LNl7Y587yEOWs1ffQm8FR+vUgoioiTZuBKD611qnVd7dnSaIvPYTJf5uyk6L+mytWfX2DcVnKiadF1ii00gfgTN4nlNFYcvhhAQlw2oAhFwH+i1hzvlzcDrSW7SJopmnmsWC66QzvBAzZxcYM5qdSOvmQXjM9EZJDWNQSYFvNkucfgdQKVXby2FPAGLnEhziqKzDypYii8QMHh9RUYI7Y9Gi/s1uY7modu5H25+CttooHoinyn+G9HszVBBOfUr55HLb9i/Ob2vgtsqN2mnPDthL3PPTI2Er5gjEf+OPMUaHDO4fOP9+DkL2DLceQW0ch4aVNlcXoFyo5JM7pbe0x8/8LEmCA+CQV36m0TajObFPigL4iwzGmXFzE7gYtwvgEPa3hJeA2hgElA4p/vUUuPGVGIBU49OPpyHFxDjnDTtF/TwFwLiT76R4Of+OU6uGTwJWRGDHuGx4pu7a1cj/0sVBFgkPTxFGK0EnkMUIH0qvoVP31I+z1XX8/Y6kjh6oFV4E+waWyq6AuyP7Qurq0doReqyvy0W5S6e5RhqddN7vPzj0OAwQq+vw9itC3o+/6I0qrSPMFZHSoforq5zy6UcnBwdD+Dk9OgEWoE6aty26+rxt6OKwGniWh+DScBiG8q9D17NKkCjWkXofoun8bngAaGupa46obExo09QfkiAdFypmlc37BJPUXLtIjpueeBC9pueWP27OzaAjAtq5TahWkpQZH0Z2p/lwJmttYN0UNnw3JwgZFdeIB1CtdceCoj3N4+TOz7jtPSNn5NK1ptftPFnevi24ae+uXyVETfhixrUypd2koloumYVKqsyuAzDQS5Xz56KreWCzxSotcx/jnmvQzYQv8K/DD4MRRNQyAi2xN4AivCgeUiYj2lzuUjvi3XZ+fxmxiUr7WEGwV2l/XNdAc+PWi+TG8XJD6UvhY5WyRqgBDDGhO63SdUv5BwZxEZiQAN/2RltWuzRLp5xErMGx2WBO0BVeA8JkWc/oqeziMAGd2tpICSuevnjcB1PKmcEj3Sl+k+8xB0Z93NzohdPOjhv3w1odyokV7h0xVPs8YA1svnpK/92+F6y1AjqhwYF9CGGTfRR9O+/wWqRgevBUL7pE68MEmrGFSnh/UVSjZMKMOtZ07OEEMdIlGRIQyfMRn0465st6E5Ly2utQ6X+wheVsaji12N+8K+BS7NoeTTv9P8kDPZS+EPKaXfTflpNMa7iba1uFhJn0x5U3cExEZVNxBCSXI0ucXlK92UU7cUpX+ErABPhgteSKLNyU7D3SYtknpYMeCQu8k2+DSX7veELVmJfG4X2/tCU0DXozrc3MMbCFdmv4zS2+NXunm+FJb2ReC9UU+s2kScioMWDXKB/K6XKfTyW76/P1+T+vS8zyEWfuBr2+VHD1XUOmO+O0q23hXA+3tTWappZkcFyZyOFHZN7pDDPxsqECT4mLCmYG08XPg55PaauWwwIyO1qk5K/R4R+nkOU3KqVU/ns38Z9Cdt22xsr8LT7xV/EFBb+3T7g6V6EQGye1MieYADfAjluukQUIUiiNKPEVx/8v58msW9P2bmwnnUOAmuImFY38hGoV/3OCAe6bgjL0AuTfZjLMK8XYAIi+KHm/wrU5yeMVBMid35sEF6NZvY7HpmSK6kmiMUTTboAvBkK1+bEXkMw44QZ2gg/OlhPPhWNfW4TzI/xhnsolhB+ARDFa9dueIGSWV3WqRMw6yAovIc8Duk0NJeZGJNF0xXPrN82rdDUHUWdgxW2Spz8PEEICo+ZTBaH44YTyulsnMUYt288R9NgW+DMIN1pf8Dw5VxoAzsdY/8zoAOkyo54BYkx+jflO5O2X5y7G4aG4LmLeNUrJeRqaYLhdF9H4kdHEmLZOXTgzch04O9d1dG7ONZ8RlX3lLICFljTPyYGmh+xW4+jnveuW6tJk/hHCO4KgO3jGqy2RjgGWzn7fCnpptXEdrURr04p43iVysPUUzdJ5OESa98WVlvaKe54oixb8ZF5orMy9Rol68Gn1nvYIkvdTi8GtbIDlpZbStj0XqDa0ZRIrAzZj74zdDo+myj6ZFq7xIUhvkCsTOvq4NmW5+RNbchD/RIOxwRzFGh/noZ+qV/89LVbVn2E7tsHdP/mGatd6YnHaNdEmaQZm0OJfMXLNCOi9/pdd6WTxSEAtSHSSaWvuUR24GOYqKb8Fh6jHTEXLkKk75hRQj2OKZYm9QNKaGpyzBt1tUUsk8MLMAxVuCbzztIHnvzJm39RTnpj/1VeGfNtF/ban10BMD6gfU9xoeOlbFRzQNUE5RIR0mvXe9wP/M7XY11FFefMHYmOE3A4NBGYTV/NYzv2fDIuvGV0k1KoK5ZUNy+pqNo8mf49n0a6dEBtmt/cQBV3pYaPEa98snMfmmEOysLSLc+R7CIkYmB9umW9DgsDZVn377hSK+GgBJPUATIGUfC5SrBYRA116zSLhOwK+jciBZxnf8kRtQbFi9t3kpzj9k5W/Sdu/RTN7HYU+A+akS7UKc3a/yoOaP1fJKXRM+sqr8RAMeK820B7FIpnGgTEQh3/oYOUStCD+DnemiBDuLMV1Qj6Gb2OeI8gkWu+WDP8Qwb/WUgwj9qB2jljakgnuy2nnx+brtlxclEWXxgcUqDd8YOZCRlD1uIDl0EmriE5elqTNUPZahM2I9oVd0ewZH6LBZwla+3mumtdy4vGCxezHDfKd4rvaIMI2aIhQ0au7FYUY4TdHD0SYLykgFr+Jx008KeX/T5AKliNxA810uNUpCn4Nya1cZ4bvaKX2NLnci6B2q9q5ljf09QUYdeQyE3m8j2gaIJNI5rtDrvLAykvxO/ww7894tMZYnlGSLwwXTUzPOSI9HlwJHEl/QVIVG7vFPms4aZqOITUWL2I8/lP8AlKqm7QV97DKdqYrtsmh2RlDuGg0Pg7cpNv8oG3CcfXMTC2Rd/JORWe4YIpmvfi7IisRxNfvf59khTtI9CjbqI0Xgyj/nwRSihp84IN0/j0vsqQ0CsGfEE3Fpdo9lfFJHhBAXdfEmS0IPB5vgFc+faQnz8Oxe6OdhFTmBD8k3GVJH9ugm3x8WRlB7303uObFqqSvk8icPOUlESglSJFP1moVqnBv8ZjQWc512CwKyi05Wze7YprIWOTqVAqrQ2Fi3vRUQ8wpRDjHvsi4EBx3xg+yctgJWNGK1dPoK8EpPMBgk6MsJIPbD8+r0QrZg0gdg5iCNjS6a4KbJKdK4gOwDGTrZ4T9TWiPQ+2R+eMVLjjgy5Fcf3bMRdCsXmC7ERnxD7wyKGfzC/6MR9jy2seSKk2vs1IJU803LosfvsPbyVratZtTE9m450obvTn+QRuRZY79Mmyf12i3yW52ww8b9rZkugBkgO9JlV+ooursVsBjmcqsdLhHCNF9/IJrEYn+POWTUyt94yPELCWTHjBkET+5ZgZirtNClSdOnV8aVsjXfQUkHXvFC/Gklom8FhhCXYEiWxpw76OvRQLtQb3b6dirSsDVbqaENxDfapeL+52uJR5G7ExLhiS7sl03CKQd02hv3msmpbaYyHgoFdkjRNL0F7Ubb1cwvMqKQgRmUyHeAiuGGdDiU8FfNRO9y10t0Dqrx9NgzA4HGJSKizZkwUOFxJK2IdVUFkAorLj6scpDmB6/PB4naIUT0Vc/3BAPrJTX1HqQIXwTUhAqaZcpgGFFlPDv1mQiki1ffYooFRGfjUg2FvFkLFjaaz3r7yCLkFQMGjOg7JJFKE8ottfC//Pr5USyBBW+W7f9+sPoFsHn+nKz4Us/qk0pYy3Q42rBXpvNqOW4fqvnHU+BR3Sf0n9IR8oe05Oq3Axr3D9dMI12tmlx2LNAzxv9RtaPNETtuIZofeGZVlehKjUkp77DKbbdH7s1kI+2ssDflS3yc5jJzC1GedkGBZe0wokgv0ULKuztvg/4iiV526vJ79r40PfZ9AAm/Y8ThMBFFREwoPSsQftJi0u22U+voneIMdiOfjOYFoWsMKJ3826tzyTFB3WQ5otfUtFstHv5cZ1fKHJv2DRho5IZqgvudvqen5cpQeWS9IcJ1DAjWWk/Bn47Dp0RlbwqktNQIjv/oYUoAyogF1LPlbWgMS9CKBYQynbIzavQfejWsUagoBDa910x6EfMDob1YtONOyDTBcO+qQgWZIYwI9FZAfnvZ7yoA0YrbjCkS14FX4NBzisFc6YsL1JaCyj+lJ+dmdc50h2HoqsZgahORKrhNzP17R0rYVRORkbqH9uc22vwGZNzKzhGGJzgRv68G+WLIIt1Qe810mb7z1qmh0fNX/vNDAGXMHGrtg5thvAXFbOLeACZgzGvhqrEYVwCbgWycREOsHTlE81AD/WAUlMTtFl3qSPEGMwAKgKjoKtTsJhSGT0Au3zRqOuti4SQICpGavyKiaMgzCDEndCMph3cfYe+GZ2tgiCr4awAqTr7RdRmu7qSEiwJfRdkDSq3biInH9K8h2zuZlX46joyPaaUdJfyRPJhUbt7T27L2XhHqJjId5q42xwwgr8hobd5t9FyOtsp7TSi3qpw0io05fLTVHIWBOzmUQVdrHPj6PTyl0fq6cRq9K2911uBDF4pUmjgTefcG9uLUq21comz2WWuwHDC7onMPsW/W2TWoq6PAwrdZc+C4ag54cKcJuPTMrF6gd1/IhveJdIECw8akjCyiLk4+X6UrerYXQc2EHQwSQs47LMyyerXKp+Lsc5fFWDND5+mgwIr/Y4D5rNomqHJIPz0GvTuUCdXI6ClOA3J4QHPpPAH1rXEw7okz8k4XWeuzVdTRXdUKaKE5l8edlCO3QER1UXTCczpNbEBivvWgYovQUyScem8vgYwXIxs4b3/Bh2A+dIY2QG8Y2Eo/bTrXlu+86kZYPzAwR7I4fJ4k6iay5qg9f/L0/KSGJ3LSPtvim3ThhVnTQBjXBIyXDvO3w9/7CAPWW33WNBgz4AMs5/CEPRd3bFkjojYm1DsGXFEjrIThscZ6SI8DXmfuhCh1/MXDmGWQ+WSkYZ7L9dh/EKb2l8tZJJt5u6cWtWcD/1cdbQToirwTkL2Haw90Vz8a0elG1HKnDUbcyWd5cLjO3F37rS7IRhMGuwx2x8UH5rG+GNvEJI+qby1lmRk9wqCqYn+UjhNU6cJcb9u/bWUT4DPeKbdaEWf9y2tzn47thpI1j0ZKGdqA7Djg1Mm1WLERkY0beSLaH3oVLZoH+XGc8MSIukp8dtd9mUXLCUgV7SGDKi06rsnjrdIZB09wJSDcwFIwgcpRuaMZ/p+9DFRQsJWvBI72YMq6jGiqYbEqHDMgXGyOdYJ1c6bvEMc4scQqlFhMgkachPJnJexKX/CMfTK23B7LG9jNMANoul5+XNQGwaoEINb6RAbNi2sARYsNLQy9x9/nX5NfKkwB+C0RpHpDBwnQQU0sw6Y2afiXgVssJK70NSCXAruQCXtJ9hHOTzN7O9E31YKzNiCCk7U1fmpACDfY6riBWp1xkj7HYIUEN4iVaj8z59tly1lM4N2a1uur/eYUcaw9sx5PEUftJeSJtAdzjP7O5y1UCoO2JdIvnN4A4EysCv9U+kAi8mXdXPuUSm4HLwvj9rUdgXEpzCS85iq9FPqFldwF9kJHnh6X9KQhX1SYLT2VqnW8JWAaqsnVVkpwWPG9EM6tvZdss4hqU3oGFdc/PpemwOw/5SKoEnOYlntxz0vckGm+g7YGvfX+97WV6RYBTir+QoYZDX8RjmqbD28Py9rzBbpYkWi0Xq+SY+gW0U0sUmZdcPbkLhuk3NnZzzMuWhHt3lR3etiDJQIqtme8pc1dI+j23KHe41MvcpyH76+isN5UjLiKkmClf7HAfNZtDH2cxq/iTZuGneLAlqJ7AuPFQA03+7ndWEUcdhxhDBLOHMo9g9DkwLwBal+R7xKwFkAPBl2uf4+xyx5G2TM7TgUQJoQ9ZcP73GIaACwb+3yR0VgVxc4NILnBAHnBXYGVYOqOXMh6EQ2luyCq1lEox7eKqiQZ1x+y68qnz7H1D8Qypj1hD0oAXNuWK44jVAnJkrtK8gnHoL4huhH3AVMs73vvwOx6mZjRjSjfqtXmFZOcm4emCjhzApgwnTLcYB8xQ+vMQyRk7W/u1pAF2/jzqfjsxHJKu4VYKv4aETtkOABSF6Q+vnezcH3zqjztNKVPyPcagXwtsbMLEywqLJPIqVGdD68DJTQtTLx0N8rVVb1E73+UU2Jyxxxnua+lQaH4ViP/erR7AU4gqhnbO14QOQdmzC8aoLlh80jQrsVI3+Vze+T37F+KvMHrZeChQE+slYdEXBHIKRtHWBZXPTnbEJWFRcOeEX/0hVp8UBLDT7F4yTws1n3JaeP9tGMnZuo55kpQ6SfuiXNFQVWK9rBR3BcQ8BBHUSRO1sU00nEPjlOVnbFweiY7ijhmobdYb61c/X2fzXLqAdMc3M8ZciqVDrqWW27ggbTpkGGYj2KM+mEz8Z9JW5dDcNA/mFj9BT61c74ntwbwHYBIzH4BI8fUz5nMGBAfABlYYCz/anSJqmYuTKl7SRqujrPc2i+fF042X8ND7W3noZnGLENHDibagLMiaHpI0gZgScngB8BIusZ90onwuUpjzwDK4JmkWM09sFGf8sASMNYHz9OHP9auE0iQZUutyhrXBLafpjZsjhbUgv/AUgIEkNzTYesuoNQl9uupOIq3tFOvLJB5y0yiSrbjzeb6PG8ydK8X1DFNIE9SQgN3tvx1pOgG4JWYgbw7/ThVuD/7CVanYCk7Q00hOxFtfXCLs4fNJQ2uezei4x8aPasqdiIDyYJrDFzWrMIMY4dgy6Q4kijuWiSuT0tG9Q+YLcCJxKQqiBo1+0APeXYJfT5pd+T0G7XUipZ8NYCFGPeZvYqeZBTA9dA/a2SyWL0pz5C7PZl0vyS4iL8RogqYGQCl6Jg/Hqvul3yrlZAUwrJG7Tc22hCfHOvfLDzJul+tKoiawXqLT2wiJ2Q8iXYEjIJXx4vxgOpD5zBWTZ/mBda16CJAZgErSTUNXx1naIaFYfPtn82LsyNNdZjdwpIZtBYf/zRfU1QVXdJ4X+jM1zTn+yNLxrZlfvMGX4GSaVDjPlUNFUg90fDYZfY2tTlXI7ap59HJWB17BjsEbiRatECkWi30ZrAUb/p/HqFWiNCW5hzw0qlEZWXt+JGsdQFa6JBJD/huWiBsbvL0t1VKKh9ES31K2GDWP0LiMLblqIQpuwaavOUmqFMmcsondlqw79bm67CLpiLuEz4jRkRDOSPDNWozLO3bJVejcwmUud8MhWsh6etN2Mbi7+mZpH0rNosnnRrtrXJ2D6KxOhS13jPErzcit28uot9dvQnvS+EKq2AmiN+Bu4QcqtrBphbfuDxSquomvav8tE/aBVGsXmTKZd/VPoFg7vi1NgCbxFSJc4El8C+RiO4PcaBW1P9F/V5pUirfonIKFQnNq5tPwqAaBVeCGjU7o2/H8Nk/vHlMmMjJ077UFCIATnA7siDljb/niUZ1uxVtHX38a1cuHZ1nb8JNRywawxMYVD4Zpy0bhXUNR3tJWsOFe+hxLKv5k1Ny9pqecjAKzY4jVX0r5LM+EROq+nkrxRxjJYyFCC6YS8Q7nKB9F/qCxyGVX3aRwWFwBw5UEYHPij1spuxgJMnG53kFBnc+3qyOxftnDJ/P/bIw3DV6nbthQNydVU4JSKWQcURMxwAJyUf+K+ix+MQuOV+5xpop/8BDtsNmJ8mev3N12EotgTqtg2P5noWu40F1P0jQVYA5QxyJ/0X92Ftbkv6E51ZB/frCFaKIR1FfOOLog6sED4TbYtYn6Fm8Fr4CDcjj9zrtd0aIJiqM1x0W2PvNmDQZiEuuBmpDCZ9H7LS35LKBLr5lAWb1s1Tq/+2lVPfSJeqVf2NpDo2jTHp1t+moChQBJLKCae8GV4V1eW6Fb00pmaO/+f0/zE6ePfwqKD8ae7RkoUtmnXs7kDhgDBHK7+K/wp8IgwVkxKs3AJxMy0fXm+XK933QAPId88lqm7KFe0po7lUy14FSCKb8VVqqa/tp1SiK008XL/CVvwjb4VTSpEnv2GsE0sFjkwBxMexTQIFPmdLvg/x8Prebt5cY/IV/nxxaVa/UGD9uSBmLglJ+CMKqkh53wfXgtyGu06Iz5QE8N08h/88tKQ0QG929VxmqaB3M/SuiZhXigWKiQ8Uck5VBTws5pFqfDOYjggam39+ncrBMZCzFRJnCVm56tjFm2+GLiO15b0HyJbjGiQ69zWrf3RPcXuBaBIxiif9vyjgpvr7GdjPTGnZpVrOI2+r7JWm7DkIaC4Wluwyees8pjN2hpeDM2iWG+wDCwH/oVu/mQbFmZng2Q3WrqGuTmm3+KYBGYETGkjGUHkjS4c2gvg/L8tP5qxrWNT5syTfjr8UdkOoUQniu3n1TCTTreB78VdlDmjMQx+oSv55DylJOU3Pq6A6DdH2VgboRdkaTM7w5ID29WwH9G7UtdpBekaG0QADdRNZFfZ5/a6Jit6tziYy8uBNuV+sPeY53kTcCyXoQgEYoHwnIKD1PVKFKTXAi88j5jozYP5pzIM+jZ74CAP/vyGB1L8Iv8anC0zwMPFzMFUeFfrcplJf/a2/2unsCH3drKtYZMZcFDH1RlXpXmQvKZNuJ6nBCJZhOb1tX9RPaSECtVGtpQswxtwgL9NlOwbyMVglf2V4e64MO7creh/QWf+jbSDyKO03COhxd6nJPWhiwFB6hKUtb9ziMTfJJBf5EpYk84i/8oQFlQuXxfNl0bBXCogV/qTIj59aELVwHbbk4KcDKvqjO1cHJrL3cWQM19uSO7pX3xaGcoIZ5WTv2l69c7t9mIWEBV58tqEcC+qPtpUAArUMmGzl9+U2VDG2QHSY5B3agb4G5MZ42Hz2FYFxuVWHwfpQsbpr2MJETeitJXOY8ohpRBogI2Wv3xYsKWGyF2ZUdjaQB7WbZAg+lk8+5+mdMiskZU7F5/OoEhwGSHsxPDkJD9FhQlqqGhzNhrBGeeHkOQVqVuIOw4/iqeHll4PU4fbPm4xaPUI/srsg6Hzl1ewDoqXmZpwLQ7R6HwTbJGWEy45cQ8lgS/2Tk6Nvd2/PKOv84lH2Gmvrhhp7/JxPbZr+dKsP13MkW/HMuMzAFbMhrKyyhHuwz78LFBju1ZaU/IlpBzBfpyHcTjr5iLAmJCKkmpitGiUDaN/pergAAwoYLBd7k2Wi8RAvcfaWweLDwynLyRsdkjmdbGmaUyyKLm8U6Mhc2UndXLk2k6ebY2lbm0pSgkX3DRCcxzzWozxduCd3mD7iDF4VddZU9LJ8fMtBJQPGABGZskT1KxJF+71R9QydJlTbMO/DTsQNKIvnXZ9gwD4RLcocks6JKSSqWdKXy3m5g83/Hx4hdrAjNSqe72NKw31pVkW/BInGCg90T5/kpZzljhSgbuV2DGj4mbX9AJBniwessQOuZ6uVC8w384Bty5tgOgnTfgI5ukP+8nuTfo50nOm7iTXjvy52iTXyRl26dE6GWZItSj20wZIYGjjL7/xkbgbrpfuGe4LlzzQE2mdkkSMfxsqAdiJmLeV67CxSvgHUGSYXfiHBHe1oFODUn+lH18yWH6d/TcXoXcUsZoh9YM3JuUcrVfWUi/H3BvJQJAQeNwEwSwLqhvCxcLNJdfu72LF/bJ1icdVSWvoDgys1d2ShZgC4lVnztnYLaJIH05o9eQeCUhfUfCbfo26Sr+031IwGd5937sWZGwQw4JIv6OEt0iSSwQqFKe3EvhMwaKSbVKmNXZxfjtBTZdW895WedJ7aqef0aTqosJ3QJlaPOr7EIpn8BxHvrepoilxpph7dC5GDq655VuTVZ4y+4pZa0al8Bm3rvAEh0oDcouZTdmB7Qo5lX0/IkM+s40XjwQ8OEcPafxNBdvMT8eILjp+IMC7b+P4ozU9+rX5VKAlohHqH9RkgXVcrWXB4fUaw6RhJaxMnKqpXJag2swKx7hDdUx5g/LJQRFa2sWtBEfcuJyZ6CjEQWlEmFcTCwOIE9JtVQ0iAPjuSrAxv92C2Hr+0Cg+ryQMKHA3Ui9L0fPhhx7KBjymGX0pBkK9ARhz5k7XtEJjpVej0ezKI7Wx0HtJHM/+cNXj2gOdXd71QwZ3+ZdcwbHJ/gsnFsdsh/xbxdbC0CFGxzxU0sLI4Orbp6o17xyu/NnlRVnD0HYZ1ArOO/wh+rMwbM9yRYE449Q8kNPCo0W7OaI+yOiKxw6i8CtHfGQzBvw1cAQhYNvNsuP87Jy1Ut1m5uSheE52oyflHLsRBL6eSYPLeNA56JRIzvRtt2sUNl9dUkDx33fwSmZgFVJiixHBuQ9VqaLKbOqgL7ttE5C5RzinGVBTdv66FRen7MltRf0rp13N7tnI0ziLosQVhLfWTmc70Ihvr2I1ebpGKLYvYa1iwlWuYnjjrZ4KazxGNSb6sCEISVxhidPgbZTZ+IAvc9tyfx0qjtxeR5M88s7S5PuJRx+rUlPNKAyhtxT1tzAdlQ5Z/059OgE2HQHPft1ORB3ZaxWaV0dHy1BYA2iI4RaFGGIS4WvUxpsBc0N/QCyAuTp9aVEUepmjgWqu89MGhkLpa1sQ7jWh/DT2xASvFSwHqfKMFEh5jvUIt6H+y95PV+Nx6pVJwGigvaKOEFsFSWIj56D7gS/953HEomSSN/O2V859JP6ooDxjL3kM4sR1rlr24LQq+yJSGIhhlKaAd+WgEDKU5oEoSUk83kta1xSp4ZQrJ21+zV3IUnCnyTOpdc04lpvBNaCJ7XvC1/Q/Fzn4L0/wBcbxCpjSgxRfhh5+z+ywcdU980O5NR6KtPjTuZZMV/LMP9uw4rRVBjHF3rHkirNBtyBLZkRE012rjfqZIOFJrYc6n4aYAOScXGMjAofPu5Wb37P9f9DXBJAZjBw993IMML3uZcibkOOqB3izi2v6jcPrx09EIa7vhZge9dD9WSSLsclnFgMYlShx3IAqWS4HWd644lBcXdEgCx/rQ4/5JZa+hDzo4YhVqyl5QSKsdsCNn4JxSQ7uisgyel3b5GmtbY4uRWAa7FeQmzYPlINGgRi9qbr1UCWzkw2ufcl6OJQcfster5OqQ9u6IRSurlNPpC9Se9mmZPB+ikERzCsjnODG43PrB7ScZs1aVrsFJKVUMPp/NyPMoDg6QBRyLffuzO6YcPr2UOY7QkkCb5eJm50KGepeD+IpLd+oIV46PEbarSkisE+4Eu9EOly5v4UomfqfPSYcvhuEAsCjyKA0bQftuH/e0/hzO0e4FCz+GsQjhfLmUXK+9m8knEs2EXIL6ECVjbEn0kmNXNyYo4tSF1xrP/XS7mlupdUWMtj6Px/e9jpTd4amdc2nWPQ7mbowhibccw2gvPSSI3Ff+8Q4FnFcLfvWFAAp3kbregGVfhyVJloj1/rJe6dS7AVnwbiSysz9JrHlCnR6Hhdrh5OP8wWGijvQxmw1ec0toFeF80Yj0hKtI7/ihF32dKdV5DuwXB500MmhlbA54G/SPtFvmAV/YqyzXW4SghevLmgfrFDqSuqHHlMeYQfXxGbs3o9JkfGXk1wDXg5QMaGB60qiO02kvJ/mZ4gRS2ZvKjDE5ekNgeHAMdS6zzrlQfU1+bqwbfKN4UJqbn9ulZCfUl2FqSDlVC4J4ZPDnOGCteMqNQVd+kmhbIQqqfUtUF41dK840CZ2UmhFeYB+u7uZyxwX8r6QhKtpeHNsCbm18jWgZBzJPy+q6cINWFPfYgQLZw8+AwkTd0Z5/6d/TshMasvKO3qIn2MCQJ4Q+VHMf6j4Jb1irqSE1to2+1qJUuCb3b5c+7/DlrhRWgtk0JVBpIPHpEyBblAjD32y2/UjMIzoZhNkl50hK0REVqQBym9s++armOT/hrGf6IjeLWGXevPH6bTT+jm0O8y9izA9h7MmrChi7hYPm91VcCUMbj76AqHmPjvrPnNSZY1sMhe49V5JqOvZpnzjzjh+xYzEyKqCON3SZAV4QxNVXQSbNxx9h3idM9eHMY8a3k14k7ERRYHW2E2IER4+gUKZGrFVfhhfb5LNwprIR6M7x9Q+cf0YMGD1B2oE5dfL7oioymW6wMxzS6GPwGe6Q+t0NxEkBhlKcU/3JHaeiOhdORNf9ucgDfd3FMwK6MTnt2JbuBfdOOCy3UBuO5iEbT6V5tgpGxPYgDMAWtdxWHG4dHZhy93IA8mstQZPEOuV691hq2uEUWvZ1exnXdl3XG9E6eJTVDsYOXl14WAG0RHCLQowxCXFQt8UhRDkmmdnV7P+7yLUhyO94mGTeArIQXQtAIRQtK4M4kJ5Ws/0nnFhbTbeOKtcy0fcrcXNlY3cvHDcTvTfQC40uqm1RmjsMkVXdzCyNUmUB4aNKA48K4jAV+Tcer8mVbaUNnfpnjtuR+MtdNfcjY8hRQ+Jj78EOFAyxmssaqgbSvOleyd5RBfpw+9BGDT9itEF8ixNDBqHxYw6zoeh1rs5UURjjSIpE2jfoHYqy6F3Ci1fzGPlAA+7JMAABxrNw/OQQWHOLm+biK7PZbvIO6FRoQXhDfih0RY3wow+4EVbrXbfHPItfhMejJaZC/X2HU/CUVYjCmgw1Ly4opihdaLiyUtdNFu4lpyMp9KXj/2prC0thI+IAHS1xYW2TKqPuf0nADfKy/TLA4c47J2Ot7kwHQk6qTjT7hC4ZBRHO+n+EqGA8cJL1SKZvElV4C75VzfAYfVpLfmAdgNBQAj/VpdB5dDZ6iX9yHsmGgAeD6CdOEhAj4K4lXG7uTBqTUfJciXh79UqZWNfoyU82quDAr6yzqxV0OqnkwVu1SBJUo+w52jA3Pj8ZThpa60HZ8v9C+eDe7/GO9yN72bAD1R5KL4ryqUEycpNdF/qRPypEMBoJPH2k0L1BWsKmZJeu4njRvqqOEArLj6qpZvtCauZ44yNDnbmY6DPfaCN1XLX1qwr1m5ffmk9IFOEfYS5RXdtqP8YqRe9aFGqVC3W3zY5IHubREXKxhVY2KJwjh29Yi9Vr/QOyNjeqw6PqmLWttdr6b9mU5C+xHTxRwfnhw79XagWwd001gZtef/CHmK5KUiGxKMTIe0SpZ1AnzFs7V6erKM5pJVh9tyukJdEButSMGgKoNi0o1z3OuVmVzoihQWYCCebZqeK3TV6IwNyP4FuAkUfdUjmmWP/LM0VEjz+KMtVJuwzkl5TswVKguAgI6d4A6fmirAfWcsBaLNInNyJf7IhScSRfUFCC7DurE19c6sQnWXSwsKG5TdTsxb9+GKltbTenNktkUZZbnyX2S3+O/fn56c5w12S5G3BZRW3EtIW7KfjO61Czk3MYr9GfIbJOAbTg7H64ZusBXUoRbuzH6+A4KFPkMrVruY3DHPqVWI3Y5eBAFrzpZm3y99p5hEQA6d5xTpS83wfGdApR4gvPx85fDWkdZ7bN42Iv8NN5qnZ+yNmsjyXGsLY/YNVA1mcCEytvJ44h8LB0DoZKzKeAg6Vlx6UODqahwhUHjYjGOBm9DX+ONzDTWXBV0SYwTlltNJq6SeqhxK677i0KB9Z6EkHdWJ5cn0kwI/kjkiE6YuBLggQ4wIgD/2y6Uyyb4GmHLzFclPGaoQwY6GjT3A2/oUWgCl35bQl3dMz03LOn9mXQcAfVd8v7IL2KeJA3cZpM41+GtfQSKUwxEyEqETgJ3thMEpvTFGtMgwLOJ5ebTBZEUpWzElYNoWeKMYBpFE+uwsGVNHzbQLk4N5FU9Zz+a/yVxWDytG1cSqxka9KKoyRO8R1L4rHPcz+nKZ3FtnRQegSeum8Vj8uh5+693NGxBqIHw5kStxOWDnOCGPZdfGSjLvMAfyf0OwuxiUU46BoVVa+bdnk7X91Su5atz+PG0jEpTwxROy+En7g2xgXgq8Vd2H2in2h3vhFa+7juDgY40st2+Va2nwSzMdLUtDblPNms0lvB7O+4I8pEiozuEfaKkaY6NpxhuvG8Sqqf0sLKP/NCU+Xc8rCA5sSykAL7BqFxjKpQsjliusfzIjQzhuro7pbgApcH0oddlGs25cGDc01vipvUq2WdnwNiIfNd/mwgC0Iwfib1EtuBV2RSoY6/QY5MqKR8Tu8QS6kAP/sp14Cn8NAg1O7dhr/Dcxr1oFeVX+taXrklGgfTp3HfkXSnuew3F0IbPvz3RUoQ50OfjuXhnG9cRbnt35JGb6t0rfBtnns4WOnUFyfr82e5qB+eNUasEPAORj2EJXS++IpiXLOygplyYokigXqGnLtNKsYMPQwqW6L9W9gbQV0YPAMYUSooiOhpbZq/VM73DhMrt/YdaqEPWLJjEPwXNUONkZ+V+uXbRfpTV4igHsR8AyCt6d/Gsm5W4iyoBhqnosXSUtNt34NgXbvrUuNMMKw7mxdQ4vVmzqgZNHV0+iN/Tn1MiFU8PtAn5TpD8rOps3JnV/9Q821y9ZKV5rXYbwrAgsLhdirkGawai62pObUOgedpgOYHpEmQqvpTuf7+tR1qXIMzqmJ4INLWFtIdgsQkujPDR4z3hm1EU6h5MPTC9tLCa6DD/17BMCkKZ5aq5M1K5RHySUTJgBQAxMT7pJDtRbMS3nOMFXgKkp9+k7WP4NaKfZuNqd92oHvog1Jynm6F4YWoiKXHe2SaCOK1G+U+XegXL1KlH/I0cthmXkGnCLxBgCy1DJXjMuWpgD5NSXwQzDOAn/Wtn0LU81sCslW4OhxJRw6R1vdK+Z3GQM37RjnSKUbnag8vqcXo8rzEYWsJpY60zWpoFHTHuQlo1jcta6tQ6sK3c4grzpHV7X/HPNoo9xvlkO8+hmaP7MZEM5TYgZYMzp0M14V3N6snEJ6meXLIaCP1OVLmpZBjJlnZZOrVJ+wRHrpFPGOt3aYRvjqagtFPfyOMoKG+5mhAL/BdXGH/Gth5xwbGnVQbVlBGw3S0B1EhoIRrr5h8ZgEm0v9aDCgxRUEKN+krnUrmsQyrAh2sG3Njhtn3HDQV2ueNlz9lrtgWxFnpElpyFaLl8Z/ywfPRCO6GR4khU2D9ZtkSUo6QsIQQjtYZwIv3iimhHJ1/oQW7DovcmbrurTQPNiI6d+KAwNbeIQe6khAqwJ0Pdd52pSA0mvIiTSkDsJObqrQgdxCy2K0IbFVsGzCdOEHIYsNYZlC5ShjeMO2hj2Py2f34D7n4XioDeSbs5S3d+D3DFKHnkg7Kqb16v2gtyZPPK0QtI0JE84WUZxsh5FD2zHNfCCP9nvU7QU4Duk5L5syKN95YdjqOEOzdDvvhM3v3HMFoMy2I0/j6hC3r4HRiwF3S3A98RfsAfN45m8l22E3HLpRFlAVqUeJDoInwDeFLHKt4npCSH5G8gXdKyPhcS0r1qu8TpKP7iIlxlY1IhVbAbaUN+lmwte1Uvy/xGEu2A6uJ+cv8ejdnHmUW7L3IePN30CNMbxna0UzzpzIlfV2Msi91u13Po2SAMKxMOkhwixJbp6Xq8dJaiGnM2h20jrYH8TnMNzxQ1Mh+O1Z8JPh/RmL/fEXsv3YGifMQ25PRVKkaXnfNBTOJSZqn5LlXnuT7QLu4jS2CzPGEb5nWvPtrOcr3uQGmgKENLC8nZtJZ4UIaJTyocKr0NZp6GF11y8wmENIzNSVLlsavUKrhdxCa2PnVpKqk4anqa/Gh9DPe23pabcOMzCRMbyQ05rBE6+uuTZph34Ndk4AIofxDDFO2C4M4piE68IB7O+4DNDeTi79Y05OZOea4RCWpakzY0LXSSMiyTu5pgqMh1ufLxomJ9A2Qwy+f5G2WmO6sKi8baxzYGXdbefld6mlrmJKMksSjbJXLH0SJdzzg5lncF8JUcGal8lPZDbSUeJP13Rp+lDsWbbGBGGebVGrX5aN6Rlgy0EyGtXtUq3CD76Hxs6t2BMVhb8rOZdq1OY+f9VAVJPwfFBy1EdI/waGR6qmdaw58UIpIaMR2KyvwPJvrg0ouSTKeXbRDFrLiZa4bxa5un/nR8pCp3bHCWVvfLex6qRNcW4M4PrZULf7U62HkzbpCIFzsaUi+gG3ZLiv/xqB0RZINZOLWbLUdKyD3f28pLSA2S3i8jKa9xF25OpFb4ZX6gWt87fhSzfP6mSAqdaviJZjYU04rrbYg75PNNYZujT6QOfvULU3Y0NklJS1d6YfPU+x4ui98JA8s7SQEbIr75VsTIngI/7ZPtjMAWPIhUPzV3RqwOi+ZELDi0olvFUhD48E/wbtU0ZorIdrysPBULSswsHRu+JTrRL0F9oyY9DzhZMXby1zF2egWipOyaWFB5kBClnNgeuC/ChdVJRmQgwvyu4YQLiWvPRsRiAx0bGW3SRebS5V+dEB1M1EHN34+yYd+l/TJYb6XTs07ZRN2JTUDPPkQYHKoOIhKtTz/RMVzlJZBGsMqVQw8TaDU08QLGVQUgFoPJ5Ogj3VH5Ty7Euyw7wPnJAvnVo5Wi1GFAxkEPD12e3ZCLZXzgPfmxLK4SzdMa6kD5IME7aESQBAxZjXZ1KusA5hiUZ4z8GN1Qvr+H9wh23r0VpiKRsEbTgXycyAziHJx9FzaRfiO9hqI9nSK01RBEOA3N1muPE03mxwUHswpHYqx4EahVQCTitkl90ILSctAmTLJPTQTVw+213wOfcX5obpCSC4rnNPX1F9rLBGeO+vFUWaJBXgM5a8e3+gOh9nhe7cFKbz3tA2g1K0wSD5se2xb1M7Ear4SiWe1+9UNpV7EC9yKMV72B1z1fUX2vyh06PMqj45FNWDVB4ZYbdJ2LEb8Beq0F/iPrLVOUGab/+BpHKO3dagxaeKSpC6SYHFZOvaiENx9QXFUGrHqpsAA7DaMlg97JR1PGn7zyKW+avvBHCMHE0pVhhYFmnbQe/mvXd/t6E4I3ug7AOboJonKsVaiLbjmACBJKZX6Kih6I6xtAHehmLlxyOAo/vDbkotEWYK0LBhrSLkiAVxtK0Yqsl9fGTSfMzp4Ra/pUfnNbcpVCN1yNK3YJN7MN8G6rVJ4ueWqn+f6TsZ2VHoaHuZGZqUPQr0vp05E4NcxFBwX7J19Dti/iG696D3KHbPy9t3FieLY423NRw5nFUogZlO3tP/JYsjGLIOLAMVKWE+tRXZR6U8InrSGpmPYvCwYsEDWUHGVXU842C1xgvEzueDu4dUEzrJA4334IqOADsqlt/lTTKl1k9iPZjVlehHeIywZe6GGEGE7uz2vr9PN2bqzxvRIy39EaE8PNeQF40BQD16tKCO2Pdz+RVivahaOmx2gR5B1eXIX6R3j/Iw5TkZhI0u47qSfhS7UUYqXU6EwDZHMa54y4JE5PoaCM+KrWMIvYgUYoNcPcuBEG3CVKpCmTFeiYmRU9PBq7oiMazIj3p1V5zonUbHuIFGZz8duG5elaXMYN15plASQKxyBbpFzEXmM5eRLyWN7kF7iZuvvtF8S/wVBTGABx5F+FUxLM0T0k0r/IJCIQGHy5wHKyCaCUw9zNf/b1myCxAbstXia8hG7VC6U41NHE32JrE/guC49ak+pIGmVCCtU2C4E5TWPbPRJrKq7f+QYJfJpJzaZYrBmbR8MhFRUpM18/G+IJ0ZWeegg2wRI/mARq6IsFzZoWZS/ExVeXfpcLSAEGN2xHGHASyv7e1x6LrVG3z8Y1bVKB912Co4Jz3q2gCnLZ9BkDNI+pGbIq0WjLQrxooEeRGNkc3xaXAComPY4DZgGE3M1o5qWKk+ksreii9GbiODqtg5DgEqJNksiquG/NUhlXa3uNDsBaT0sJWx2UI+lz/4olvzZDjG0WO4+nSvBHHFX9kqw+hJPLJ4XrcB1up8zwZ4tCJpGPkDCsudFos6LSZPhod+T1oiYB+l2p1sPJm3MoSeUjTKhm8caj5O/FgBEE3xtmm1wOzkyy7UP1W8+DncfhyX7t78KWb6A+z08wiZfgNb9MhtKN9U5kGOJ0+JPc/aQ64qdSFmFHOfQVh+ZsKPjfMgP9I5MmNFl7+OgZfQShvV5UBpqogbI2yoOY4zYyQ5X6FMIkyNp3VHe1KgTsMNep15lQkBYt+j1fgpGz45I0co6XHEhjTduwHq7gz9OWyT1gRwurS+SMiqJnV9/+80tRBkujpWLtiI9LJaNRqE97mXN4PS6/L5rHirnabudbb/jdIiP5OduUmL2UQuiwPs/xnAPV9fg31STvvCataGAK3B/UppqHOlq6iB+yje1qvAIQtDtcgpfAaVoTlhJUi6qcpNLa4JbVEoUCDzUE/EKPO5mNWVy1r9eAJ0+OCgQz6El1Bpn/0KThk9Jc7Z7X+3QU7PxGkLiNCEeB3OYgsOUm0oni2BXgMfG4EQlztE90bABL2RUzkKocNi2Mdr63r57AserO4rxuwAP7wsp3yZ0wHJANHevyXwHyRd4/OTezurMXLsW5BuPKUAmcLyW1KKijPnhd4z46w8EMSYG8+QBy2YUmQWKf+lkJSTiqtY6hKdTNxEFmXnjnfC2kONft72uDfvz82AoN0eSOFg09A68mnwPRZxvoszIvfYSOmPJM2gQ1kwAA52EcU+46pnd87bATg9iaoFkPRvHIm4Wy5OQMLDZpzSO22k9+lerWtVCa2WbBpsENXAMeT4CUtBI/sja8DMlxHWmv62zQi0NrJPOlkn5kBTdEzQGQxvQsLXl9NLgoZWmqZTEGK6SNz3XTfklXGEqyP4a+2/7d5IU9Pb8AD7THvsRh58zVVbkYJYAzB5YRjs//sHEGxvoxfvmWkMvVnN5MU+iI1ZddpEgfa473naoBAz1YVTXVPvaj1MkRcUNZ2pRzQ0zgNdjcNUobGwe1bK3OpKjtY+QKnzqv09uhhqvzOc6DdZlDc6fpXb+PAdBHi6Xnors93qRTiVwlmOfezLXNiNhJYHYQtr2MCe1/DJKk+ahJpfkNNrApkzPkkLfXvZHbnHDZoH/YxwJxO5IO8OYaKbV7+ekZS/1ZvORVDLxCnwY19JZ5rd//Ou+QZS18aGoBriWZxOA2UU18+zxb23CtjV+n+EkCqiNsf/qezapog308uYtbZoPN1zPrkFUGLH2lEjmvTTeG308OJXEcQywni5IWXc572K73xfwbJgrHL6cv9HKquD4OeQt7CKQQqx19snjpYX1tiM1AmlipD88DVYov1GVBLMMKiqkZk29uriGG2QyWsle379OVDWawMOV4yjdN+WXF28U+G4D3PzrDA20pgt/3TIz0BvmiKxbq5dCYsSbWj4wVgbVVTeWOUG8K/1TenTZtJ/rEDeDHyeTIlUoZZ8VtHNnVSCJhEesZS/A/FwOXRaarwCDIENdbE38gMfr5PW1OCsdGPy8Xa48llrgCRtyaFoOQ6A9Hc+dg+AsjFuEul3H/0Fc1vs21oLOKPXjLsQ/YjRSon2HrdG6yl2893UVbZ44dAfH1TyDgV8o5qE4ueWvG+hhlJNC02w3WzasljsiFae6E4lwaoDyuBaj5aglQU31VUsLUgo4Tq4lQ7uVFQEXg3LDvvoYv/ItxnI0GdW0gyKldj5+LMdqoguJN6F11lQq3I6lhkN75phCTaffKdv3/vYsmZmOfFJF/wpHJS0g1SqpxwZeYiH+QALxYGHyLV7K6SXDBEkB4HY6C51NW9lSBIzXBX6y83477HP7FvEJ8jvO8ggd9T1Fs38io8Rnf3ruMhiLHdJuSjD7l9mvIYcAMMaztcmQY5awEWA0kxdlbIO1+EgbMrzAxwEV65Nf31V95bcHctG4TCgJr111coQxkAZREU5nmbg/SkvM9XTH1F8HAAve9ZenIUW7p/TxPyBroTcDozWcUYc9quB5W99nVJfa+uQFeK0wvS4u6bQdUpYTYUyPGMWMuj7AVj3Be8RkbptspZMFXlnqfm/g8Qhs6kp3TyswjUfeQ7o639Xalud42vxE1TQ7pKWIj5RjB1K5swqsBnRnioioioGkjy7Z607Xl8MqreOUCw+tk+XEHpGbLsXgAQCLq6k1J9g1peYQJh3zpKptAu7pBG3TCWXco19AjXEF2yz+VDOuLaLusUHIVlwuN1LrO1fwgCZi6XukQ8xmGN0yWoq0XBv9pOK6D+GHjsN0RtL/YXkef6vdGJ1ocHvlRjgX6sp1dLe3u0ckwEr03du1bTjkJRp4qXATDFiFGlnKNVY8N39D95q9NkWJ8LE3iODHbxpBH2JE4Hob/UnYcI8Vkk4U9J8f6ZaJNSxxNUoGFGo7lxmNt9YAABnEVgArpEJSn5ACWUpZ1A93QTkBc3BQx8UNpeGzt1r5QKdH6AWhKbMVdbIB4ukSWEos94SabZBv8v0AAQCpRB+JgAQd98nkUVJMDP2iP9ZhQcMgH6AAA7u5iMPySKATxQcBIG2PK/CkYOSdgAurHs//utr4/3EigAeQD6hiLzGZugINRFLy1SGgkroZZv/uBD6qQqAADE4kGgmjzXBfEyDo5gADFne6BKOUrYoUDoJ4A2nksgBN+u92NkYJUagCmMAtlldkgTtsWQX/cIGqkKgAAABvP2SyygLurSsftPTVwnpb/oSlSTXUGIFyp9ah/3Q80Kcp8DpN4rMVzuNEz7JwOU3oEDE1+1ccF7FwizR071jIeC5QBS7aBcyDcDT89ApayL80LpLLGJGBocOjVxPUwvTkm4KlX/TnLibEv3Jnx2qfKBLMuTBk8sY2DHQZyx+LAQ6wlSkp8ycv7VmnbzqriEonO5EA1RNn0fgRmA/VWzT7GBf8CkJZqnRYUrqv/1h48O645xh/RgMUZkNQOIGPACKSKYFgRcp3mcS4vRnvEIRCq3ph8IELIPgqoqu9yFlSAFZh/xiy7cl9fKuw8KWst7JsVf03xiJr+RTB1DIiyO/qimiYLrNtkZDI6ewHxbPOVCiJksgCpAdnHRHQyc3aXIUPPLsTV59CswUzRcucez95wQhRib56ju5inI+vTDEf+X1AVX7vPVCoxxoYmy8uAmZtm8KOebBj5yyoANST1obMsTU/kBaojCTJ27ZylvloJAgGwM5j6OX89c8JFRFetTpkyYirquslvV6UKis/C1FKKNfi+NyQwFNNyrF7QPlPVtdsT+mNLyUoe3D6nXVVMeVPuLK7pVKg1WqU87f2Y11KI3MzzHjheV72Tvn7dSO2rAGSyCtc3u2+FUKvo3Tx8ubt8AIUG5iWso+78nwfNNXC7ixuWBxjh/4KnU/qpHKOi0Zg9YSuZB2Gw00fBFYxv8QtRFniVdRpFLWHzRQEhvII1HwDOdcwnjrCm07f4izLaXrGr8nx1OvAnbhIoL9PWweXx+vKrmwQ6MUbNhVPmXiFlsEgVbmMwhrYwg48ABkqOGrqT6fSlFPtemZHeAA9kPmzIAaY+KJcEjA1fvrsr+KRwKfpjOMLNQ8G/U0pIUsDrshqfHuoAm0tjZ5gfC84uMVL9yf0bXfvaGCjXtxAxvzhibqmyl/E8dWQ1akrgVwZJCxVll1wUSndx/oWrvBpBM1y6v44jMx5jVBEAAAAAAA2BoQJxjY68mOeMVZ+8o4fgull2PovZEGBLGiCRO8d+9i4otfT8JTvXT7AKTLz/JmfHiIuiqZbCW61t4NfZsF4+inyJz5+50KbxAVcHt8gaVjP+pD1LaJVqTS1g+zYyECo1JeUMU/u4ZFA87VEqpcrFULadNMxcEfw1cklBNVNp+btqG7f+NAEljXWFhCYCGVx6wRAfTM3Ztgt4vLNfhIwUns9S4TUxSZ5vqWioTTplr1aOAPuaquRGuIfy0jkovw7VFsLnEY68a1cXLFtUihMyBD/JLV27MNKnIiiZA2nZwfegt6EmnckuL3wJRVEzDpZwg0NHIwZyLZjymM368J8zBaRqD4RSMQKNwV8vMIo0Xc8s3gQSU0APpQYqaXiq8iqmwpnXroSADp07nnnEwRqVU+26s6uBEW25865aTURhHPyiBlHM3lMQD7I4jm4sBF7h2R9Z7m4lBC3i+j9v350B5WgPqwM+qXlUNVqdS4Dwz544ok5iatk1kFx5OHlLwM84UNcjLjmvXwApEVAa2tLrUTvnF+9fL5LZuu8Tm3ZIWHVL2UrjHh/I/zLUfMxeqxmxX1r6pOKJlFn2bzIIgKv+4s2pzuWwgrUlUgwRBBHtb4yjdj3gZHPuDbNWP+lH6bnUqrbcBn1mGuxJxpa34CWRgMvLKVIpOLpIjNcKJsmdpt+51t+msY+h5mYoKowoiFnTkCeMdDFPDUMXr73Um3yrSWnrs9jYW3FkzE3FbCQdTKfkR8H1yP9QCMB8S6h/yDKOiu/aOv8gtJBFq0hk6KBt0fGFXKnARkT+tWsnQZr07D0/kWVsNKn/xAKTbjBcXYO86ltCc94UwLzHsA1fXEdaOdJ4Ir1GmiGrNwOouN7kR5UfSkkvL8dhovZ35IJlcUp9ZxK0t2VrrLMn+hrXsD4ijkSO//Oxn12Gv77K+aN1DIh9qn2pxFlRjprRI78uWajrUmQ2Rh6qfP79C8gKbeg24nPFgwShQLrY7haAuED1TuXr+B3YXxgoIhv2jw40JeOVY0Elq5Cy3I5sNdTHXLDVuIBNWRaTmgMp7GOKmiv10iQjBpYtuY0eW6CU7dj5VpEM0pe5+up6QwSbFW8x6sWDJJk+2EYoNrU4JUoY5soG2cO+3kQHBln+YlPByMLcevpUe6KgX9W+iOgMzW9+CMcBtPXGWd0GrNUTCRx3ekhVthyyxvT15+A70yM3zWl99ZVsdvtTNIbrQYCSy0gpcS+KYCOCc76Y+Z3LOHBVIniSMH4WAxnBW5sNhTVfuNdnr3p2DDBj4TZy3YCSLP0PNTRKzy3DnW79sVUEi51vOD+ZDx3ZmUPZJZrhcnx5YoBVjFFeKgo0u91KTu006Xj+A8itqeNdYCuI8FGKvEsVDliNVPg0TuvFbNA8HB2CgnPgrUG0I8DV/2Pa4vdAwzyD4MEhyQQrW0hZ9tvI7ptfPdo1/ZR97a0a1o8NCQck3bYn14XqNHtXO5pZ/N7HJTL2zYYXPYhsXAhQSMpW4yhbtxCanSu/rMPg4+5hbHNlRoQpFPsjnIwwZk5Znrn3Fh+Swf34vlRzUYFVoy5nfntd2NQCpaBq+hYPwxxezwC/DxX8PyO9waOTsi9gxzpRhz4EcMkpUpoIfNcFUOsYtCJ1qTFjAhqdi8d7eCscsksqmvDIc+ADtHMeDQUzMQRWj4H2lCdyX9GJdlcHcfKsoP3PY2477zVu41N0B2AxuYJ0vpWIEekwy+H/Un8UK/h84aqoCS6lbkighPfzQjKESFit5lpbeogovw12tQ6cHOnnqX319OEOtq3tRTbT9xLiX2Fc7AcCKRaMO3D0sQjn31BrFxbiIEH4bb3D/JSoI2C7nE15aOmNl4XoHCj8k5ejC583Q8cmnlxe1dSQFG9Ze4IZhBVZqkSM64RK0d/Teqb9WlcrWIwvWI9eqmLDSNxIyHkQ7tsh7Hjaa9s2kFr/3l12/FEXHhLl+STNq0Kzz/m+9V3smA3uLaL9E4zkz3e2tXX4ZEUp4KQEqumUXVHSNRzR5hlkd2PhYKCQcd9MDOqvsHvkpNrg7Emv8Ya01+YiAF3OJwlko+Eu4ZTzPODiZMj/jePgMHJKc1bExpTZlLsNuMF36DqdVNnFJVqxrPijT66gh6zsjVPeQP4CvByc4s9v4T3V7OxaMq8J9DpKDxldzS2LfLgUxwQbUfCHyzSGsYQFwdebyaMxyaSau7CIcbNkrVi9C1P3iarfn84ksm8bbmKb52DwqqYeNkWHu5HBJae+eLVk7TOjLzIH9IcFOmU3Fu5a60rTHIy6SUNs++EHxQQ6khAFL7Q6t2ZhFMpRJrTUvqUzEkljT+rXYIuqJuVaZ665nVo89Reedd+LKBrfG0KWDMSf/KXvwGz5RAW/cr4v6nEnR07waWz/FBLpTeTP3XoRLyvbtCB64u0BjjS1bKrslZaCyRcCG8k+ItUAIYTqxwJuJh5lTGUhQY4h0Lp32c/pmcjrm7Sxvi/rpD7Ytyy+EvxOXic3kIa2zaKp91Wv+mYD9VXgaiNN6q0Jt7UuxLViupzqyZhSt4HDSg2Vl7P0NX2GYQ6n/HIJulEFBlg5drcBY0AVWavaydt5hBXmlUQwYG87Xi4KOAQ35q6xMbR7UJQBIulceIQsIzvfXm8yhlVSQA4lf9LYa4QsbotxIShoTM8zn7nEuRWWrvY9V/30ATEN07VNwszJ3+yWOgLniKu7Js6K+rH4npT0veXR7vaP/OSwf2/1XBWyzIKGKfMFTUNueHB3cCLyO9aLz+34SYXQih3oqKoXuhe+3nKYfUZtiWkSG61Xlqq5w85Kzux44T2GgnIulLqtqJOZpE6wkcpashw9WTMKVvAuxTgJhHEzvlTKuIqwM+qXztur/zyFlDQTGKmcemQZ4+bWVfsyZrluXhoaUyTAxbmTp60zQ3hVvDEAmTniv+wFpKPcBc2Q3ENwLfvxGIh82q0I5zISFHzOb5w576Ll5T00XbTd5SSEMY0B+mhFA3ISM25wPt/KlyDIB/JVgrO5kYQwi3hqZ+ESIkUPf1C2H0AM6w2uMs7j8QskIEiozwOoiq6diwqMzsyMAqsGcZV5FHEjBmYM0mVIAABw5JJitXZiFXa2r+E+ORIAp9D68g3KE6RdWT3rU6fk5gde5KjDvCK7/DxnmwIrhcEv12lSFlBM4i+VMSvZT7mLHaZVdShQ9qO7kdI5+hV6lNj/HXzC/IZAAi6z/WS3ptdw+HequvEGd8SqmHGrS0+DZY2G4u4bQzsxdUm1HSnKI+KWNcdNFP6mxGcZpKHDpyMqcWMlnx8ovdyL6mRp+BapqN5Xk4ZWOjpYoHY+jKhCzesROGod+7CNIwQmG2imK/pVVwge5gRILd2Vl77T0EFKec7ZdgQyzf1gwZmU7Gg9ar52KAx4n4AYOYQqIlNULPesWRPdbv1n8I2I/iWeIdNcJHZCk+mX2Ar7v3rlte3M64jeI1XT78Qam7daPeiz33mGtOCzVSkFo9vrn+7E8JKIMym15Ma2X/hxZL+X3MFnwRZCExsCBo3bL8MG1HHAXRem/c9tpbOjfpRmB6HiQ43LXmB9xE+0PaDDWPdSw0CnJHJoiege6XvQlnHz2J347W/CMoNihScYBP9n7iWjk63ZG95TrwBFGFuObh9Wsyub/1tdVNKTiirQkhLotFHdw0zIvvVFSubqlomVo87IkW/WxrpwAGaT4NiOM84nwnvB44xz1xPInrqc+61xo1um21E8InkdBRwb0wjSiLs/EJWny2ylL4ykf9XCxBv6sA3YRXkKZOBTkLbFyZh9DpXeWLZH31y4KEmp68zemig6ofSMb1BIlHtviQWzgp8CxNxVYRqzSYMyKoQJ1C+EcYOOPUP1KeeppXLAZIImbO8OfrX14kITwbIUHmAVt6/2NQfVbm1Dao9ynxm1C8mkVeIsxeLUoiqRjkRWIFoR85i4TEa2o7pLnhLgSa3+waWJ91vxGbzpyKbHAHDoMXtPgp0dL6blBuSNuAV1dnLAlDFLq0HcKsL0DWnG4Dmaq/HhjbRIpOlaPWYGPIPQ+qZqEuzuT1LYKj6HfDq8eWabJAgRocEYYsRyyjaF5hOBHcl7r5VKDyDr6jFWUcfonYfaewgIVz/iglpDegM876ub3lYvV9SMKbcwdLj3XI+IzDzVULnZyJyucT1T//csRgBfTM88/C29/ZdWx3gdcpcPijPZYv2RZFc1a2aXcohhUB5Vk4bbLOkHQ+rbUj9nCIpSHU/KYcw8j0/ZLu4i7XUYgNX0XXEGvFv4USR102uydQ9PSnLSv/fkT1oZq+aHRU+vluNHrSStRA8Z+X6GXRd5RAYipoKLwrFRHUQVpHteTAghhEzDZJ3fpVAvF1eR78X78vn6VNz57EzmY4fYjLGeUC1a1uWS/hGjt4hJ1P+cq4gETUto9izb9zaKGx9ajroxyIAcCK9sgnphtRXEZY07MbTzFXYEGxKbTr9J1nkeCPMa+EdHek7vA8ovuB33nnQWtqjAQt8Gde1pGK61WqueXwUjsJBq5CoK64j/vUSwTf/6QvXG1Aqdb8ii0B1Qw6+PP7iQAPsekwEscgVWQW5kNv1Q9MIkNIMItXVQdGMNQ2xDEZfBFIdes/mTK1tXipHWD9rF1W5t4KuQzsJ8q8Vm1Hpg9g7yWjYyFA/HBhbNCXo9F1eQyRKnzukj4BN7swf5DckrUuEvVpqlIk8mK46Cf65zFR1fu585+VUyBMbjo8KoilLH3PyPkrTYFWb6bUO1/+HcaKioc3o0mWnD8xvz9R9KdsaI5OMpVfLk4AxkVVmUIB/no1Lkt46YjmERXxfhZ3V3MIxlZL54MAk83JXsDKtdBpI8w466XY5krE72HFmZwHpA/C/jW/FUXxvUAQ0HQxCMtBayElkKVFD17xWPYN570WRWoqPV0aud1yhC0EetkkNNtL8ksEqBGF9cfJLRSv0r1EjZ7ULcAU/l37lrtnzdviSmQRxnSFrNYII3njGO/vQlrgoGU83+fJX5JfZPWsPexM0VMoGGetV1PNrSDyUz6o6+4NV2jkMKa/AG6RhqqLsNAeBNRc/mEwGwKU4aidDVLaWK2tbiC+1wTdxUQwjUdj39Mhwgxg9R/VYVR8ZiViYLKamtvozYtzIyyR/v3Q5t7knoqZEUv4uIltLlgl8aryzZh5iEH8iU+Eml5VBHBWEXsYi4NjwkBT3TlWUYDGgj8gI2fN05ehFyLIe4iq9+xibg0ktvhkMg0+rarGVsf1ns9Z30a83Pd8RGrfR7vGQ0UWOiP/yXDXM/g96SKsYLU5wsD3QxouY/3Wo9Jj5oaIgv97kPMtBJ7ZEfOvz52L8PXR8L1p2yCCfL3Ku1k0nkgi0XVmb6z6OLGOTF1C2rDShxCa3MnnB+6xmbvO1LqF/VXYHekoLBMlbGFKbWhFwHZ6PeLeKXRkiQB/C73QtmfesGCx0uYcWCtzYQSpjQ6m4jwDOd/wG6+W6ZSCTT4fERGXuTNUW4qx9domgEuRptCUXNpJsO1r3ZhrQ9YjWGkPV5gInLPxeGwIW8h98eQe3yPjLi+oeWW9CuVd5MwzdfNkZO1Do6bXl1c7eQdhzBJF6qXmHhrgvVgYJ18U/CItgJeNQfr42loMW0fi5JymdCK3yMxHDTjmr+FTyXcvN6Ld2LiW3yvRIR2qQitbM/DYejdZeVCyMQtHFWSwVl4IqSykxCrAh7+xSyrefgRM6BSV/ARzqdmxcnqFqy4dC4ZWyomejgnRBWCGE/+MfOkI5S4iKW7EDAhXLhyK1Jh9Zj5rG7uNABmLQaduBl54dpKlTjeYzc8jZLjvBYNhdlpsf7HcYlQ0csEvbCQldy9gUw16LehaJmr57pTEYZPjWMnGv02FHNHMQBJpsJZqMGNn9zts0t0Tl+uBOU/WBKfSrop6/0M2BFFbsztEa7iBEWepVv1RQJr0t4si6LYUHKkgyoj00PMpX0cggbdybIzxjE1MMlmv8gG3mkz63IBhFeevEvxPMpVc4nn8LehBDRcyi0IcoiIPnHvFpk3M15O9INV8jXsmrYdL667LXiVqB2vX88e3fkoJxproZAJdll5R/Q9Oco7t2OiG6+H+sL+gsnkjui3yM7N2PMRDVtgb7XF726ixiSYmwtNWjPK5sW3ozip/hAxGi7NOsZrmIsV3D/GKXjXJpzz8q6bITrrbNFoN/QqnE2aoAtta/ET9qHhgj0MEZ61GsVXe7DSxM7N9pnr2R667ImrcYCIzNz7OmrYV/NnNAfA9MqCzYsW6iO3PAaJsDVXuBrMkD6+F/yXMmBsxEZMSzn3icZsavAg2CbZ/WsyTgxHGLzIBDit+qGKzoOj7DDGaDYZAmH8FjPbKNIB/GpEDVV25kj6NXZIMjn71l/eMGh9q/He30eNRlGtrCh0s6IG6GFgQlvaR/HbLrbB2fPezRfbSG2RDdx2gXskvT2QEl9LxeWZcgYRmXFwhPX9Vpg6thu4pA3xpiLnoiORG/toJmx+e28zRfLaaK31rigwVAPGVFc6tbb2f2QChAgPCk+zXC5Xb0NIc7rCAbS0F2RU7T55bZv1rnY1UitSvnUNg9auMfFaruxS7PajQ3oB3JoHph+zh1+bDV+Ee+QfHDb/31d24gP++9kWzPEo6RxZbjmJ9/8KFX2ASnQOCUrKFGsEoV4FrkjKT5RlbXxpPM1YpZX+NUjKvJc4yHj5OES7lNEEVGFrNnCG+gmNh9DHyeybbgo5NjmQt2ksRrHW4sN8E+Z1CGV8UW0cTQ/v9RNdY99V7t2Ywc8uQN21XGvuBkBxhIJN8V0pJRL/t1KLJ2zXPQxCN8baEl3K23rhZJM24+8f5/HjRj91IL/n7NFNFTd2eIPwvuK2TSHa69hehh86qEwnokyST59mcVVAuNKyVUIebS5qDc4EmNkJ7SJVgqjo0LJoj4lrIEqP/XLiWaCU+s5LadgVvGLm99Gz8dtbSQCtXxHaQBEhKJIvvXqRykoJh1VgbZXofyKqUitvP88nPnJtqk/ncJ9dykqnIT37ANwcQlAG+3cPlzEXbF9SsBF+ETBM4IiWa2g80hGrbC7gsmD0NyeWmebCTI441seu1WKzjSwzpK2mYVKUIuAfaOjK4rZqiNDzrUj9FCzdhjfq0WuCUprngAA9aJTwLLIg507WY0JPygvL5tLyjz2Itqq8czI1jMuJrcLJ3nsZtex6yE+OoyeeTZSd7mwfsAYc8ptsCt+RmaZ3T18awV535HpGwLZJ0zIHizu1IycpsDOqLqgEQ+6j6Jb3SXKwkKT6ue3qjGbo/ABJ9yHu1/+baUOy+cyMW9IMVul4JdAgXJb1prTLUJvTa/4Yw5VxCZcC/m8ctBhJk8nBdERD3NahYj5aPaO3AbxDBaS2DmAgkl896Jl03XG94p2gXOX4Oqmg/w7ob1ttkdezhxd/bE2aDosM1AUTMnav4BRcSHu6V7m5GcbPr6WrdsoLbWHyQ1+sPGMxqsflXed8nCx+zbyZWUV21E4zW1tFPALKWjyIvzxsYXmJAVaXq18FTDwj84f7+lOVTcx+GGNn4URHPIcsvvuqwMEkLIGrYnDHg0wAMymkRJYra20M90XbNuNzqYq891BnNmumdIv517LUAxx46LXN05GN2NSLvrrqHvz7oLI/z7h8p2jXR81pINj2LAAJMmuORejyaxsqnOmKtgUDoDmQQCDgIJDfK3PkmCrYyBnTMb8p4LlMRQE81i/ytz2xsPLDcbRxx7gPRrTx57TGE34HkImXVGMmhv5yjD3rAefeqwX7n6PuOqW/b382E/2c2CvSRTIYCoMST1A774GurmhadekYPkRpjK0We06ly62jMiBeHL+Og1inDvShUHzrKso7OfGn5jrs4+zPvBpA/qIpLC7r4lS5Vy5wg1unIBo8cCerUlEKg9QTMxmtln7wc9M9OEfcty9tk0RLN3X3LT3SeScZEkmkpLxJhJmc9CT/tmdFqg4nE7rmqGLwZ7icA/lZJdlQjDqGenLntKCefF+aMJCnTzbG7Epq1XKJyjMYFIaDPrEHdpr3sOaFLXNlNPdQ2AOP+zI1wxVn+OF4J31CFUkFemyymEPOnzycDMmRtY/E2qSWNSrFD/Bv+0Exr+E9mi1vipcAIsTTS8YJrZCeW1Kd/pfuap3rrAEM8VDzJM4d2h9NbuJTqZzuEvhJZLYyhGGoOFHoB/oy0kuVgDC7nTDoJQQ2kkOiUoLLdKfAMzT/x4EbM+fNl/5sP/oDCjapgN/TYP44pT5soDAHlE+avM8L53Eka+XgKRRGe5BNSGpA2GPaWRE5SQQaCOeYHY+iFObiRHzHOKX8DWVgpan5Os9xmtGPvOOU3ZZtieqIoGS4Di8PqyUa+NVoBFXYOf8kmawKkpmx0/d0CL8A/3QxqObmUYNubfjGigD7QBnX1J8uhRMPkrGZyBGskBme6NCBiT+yn8ASIfUjEyTHwTeuCmC12E7RueK34ywOBoRmpd2V0FOqsnycWHlxQa6gfRMJg97/rd7OmDD4tOnGmDf0TGfXZMJxLe7FUSUrgAfZXx+hxjZ9UCgx+Ep4+7vVMOxKn+NZp0YmrHsEq41A6Co2V4cpFDDqFJFIQ9Jrxnxw/xP1M3fIjbR0aoHK0zWLXQhR5FtgtTFtGqNqDg0rgZK/+0DZ1KLN4k4x9BHvDbg7V7drwoZ7meoO+StcMHVzTRuRLTiM8QhB9u/fQvVBWxyg+sHGScRePY4g1y1aOi/RTVo4KcDr0iouy+k4oKxShF3otF64Ig90eELMDvYdSPsGJ5lbruagWjHTTlTJzXMHRnbLPJxMzLXoTJxlAOJG4A3hBT7+vkBQWyBxHRdcW/az+SWgnZ1H+ABG5ny4NZ3wLwpS35xSZDUUy7pyBZpz3WodLg+qeN1Q1rD7/+BJquYBB4AAV5dosFj9Lo5LUw2dKxGXcoiNDHa7vedMGhOpLLDjsQUisyYd5VDEOuLM0xJYoK5ReqVBOuWSeGq2oh/ooETtQeu2hPsT7GNUcpc+6pm7yj7r2NACHDM9se0QuT1LCLxI/pm2NMWJfDU9GJxx6aK9r6q09mDdP0rkAAAE4mawseYj8K67sPeLRX+vfmANgoEFCwTX/MZFqP0ER0JOy/kzilTxmnLOZNoUmUxOsRUBnzk3RE2P/nJmN41ZpkvvXtrmysu+BYjKpZrFgd8wBEtxD4JuLg1524S6k6GUpUYQtmI4wwSJyMAqlLaqsgrpoAB/sPii5+yVpIK4ZhGK8hNn8PmCRd0JG2CoVbRxedagAyT/I/HZ2mcO8Ch/nYnN+osU6KXHtVKV+XV6p7lp67h5PLopT7+v6FaI+z7vTeAisUIOQbsboi9kQOlKI546GIqcmybHucugWsygOeegwWAhismpn6W9K2Z8EzgO+HV/ta6IKft+RkPr4HPE8fyrXP8kEquJ6ASAjf6kbzWgBRrmF58AQZaB64flCc8KB0fPSRJM6uHtH93zK28BQIfls/pMq5WGjYu2y54f/w7lNEuTlm2nY/0mGZ1jXd64ycGsAK7+FqWABu8QcNC8SaF24kwvuYW360rWIQl3DHWjOisXTXSr0pKJOeZGvDW8f+fUXuMnmGRneVnrYsxDsdL50e+r10e/JrG9YS6h9Hihw9ft5So9drwk1eTXe22FoOneL6bRlvEFgfxLj1+Dd8SX+TrE0SDLcuPltudX18RP+48my1LutVlJiOZpkYDPUkyEYhhAreQ3dnb8VRx/s1TDMeKzjLJye6UjEigo8a3tvjO1n5YTNibktlhAvfxRexXv+LcJZpGccOBxuas1vKKplC6nzvG0RtZOHoNYoUkyuFg7l0Aag9lbFiNX5JN7mkofTxnFkCCW+5jF7yqeK/ycs0zFQy+2DYqkakZVXxLo1XuRv3FO+1xNd9zmsCMJ0tXERSnS4FCctZIbB3/0dwUpz2Tj+MaaSXAFYu/9wi7aPkLixjpWuDjqUCMU0YFYry4Msk6XCm5MXgidWhmL3FNTFUpDve2cfLTDRVihmTFE5Ygyq0/K09U78/vhJnyk5Egmd0yGnPEgV1dyv+QWAhzND6a3cUgHVYNw2rJauiiXZK/39oNr3HFFkFD8b8FPGHG5EpWOSIu39ew7KrAjmkaz19IeucKntVgJ/6OmxrtdCEFrDtw8Z8uUjGSd2ymSnzTt0LzRpnekasInoXEKRDIdIO3OQpuh69qjXXcGv0Y45ofNwd4/KbElV7Doteo5mFsumwIINCBldz3cJH3mRJZ3+tAs+vMhGekxDEW47RyQ9rU850tb9ufqtM+CwZA9Z8LGFREvMnDUc+2P7QxiJcGmXvhjq+rnJm1Rl6Y8ZM8fYLw8pAPpmVY0gYlmsUCV4fPLyACoUYTSmfgFLiNfTgFSUEmf3dmNWo/rZzpU3V1eIKYYDlpVKOVh1nZt8sH3ET3VRuuntuQjIhQuCcWPTUb7XNk5PT9qurWek7vkHHbuTmo7bNWwAa2YlsW4Sn3ILO7cQsojPR19BHWzxVFjb9nB3Rycd1GA34p0ZyAb6vQk0GnBUvdCPLCUG8yTK2CzuzzKSEG/LjuweTCn/H6vQfTBuDJ7CPdCRY7eEFq680/0mvTK3Dc6ugsMqpi9G+gDWJ1+5kZvukx7upidYuhNovKkYI1nRh0rIGISG+uUCB7CvjaChsVMd6ZNC4wzAqkxNdISp5rKb4DnovnVCNpGVP1wRXGlhMvOeFv6CA4h0oLgvs73rce1aDcE9LLqtNznk0JQJwCZaMZtai6PMKHyaj9DWpGydD9ca1W2mUn4N7lvTZS++mrvgJ3zZVZB//wGuM+2kTIIZsCQog1RaK02oXqc/DIgy+r1/d4sqyStD/F4kJRERnCZdXt9frFLKTqQPGVjwIuz4o6N0SgClhbo5Wf5xgaGnL3tuNZOKyDwCiFKR+zsH/xVm/LDkH7o++IH95QtAkkzKzHoeIjrwiFVXEQ7P2qGmLj+HPmbaPuMEU+Jo5IG1Tg+DqatKErJm4vyWry+zZWD4sG0/TB+5P6DiKrzdJ83m7Q/0kGgal+kG116C445hH0rK1/8GfnC4gUKsNTJksE2MJYsNvgmW0VHSreqc7sfM5nLebynd544qVau0QSSowx8jxQXQuyqTlIakYNihgs+5/8EdCPyciiY8MgZAsD/wNnagrPgu8lCeWS5AiFChsb6ENiYU8FjJdHNesAsgLDLKtyPLaAU3QYH2nk4CpavtMxuSBoYW5BVK7HevkAoMYYSXOcFplAtRoXtnF6MsAZqdN46+F0VJFJePFvDla8szPZS5tO7EDduzgknjbclfY2lZRq9DvdJGLywbGKGUK884HftC8FXaG1PjydLMpEqSDuwzgaRJpSCqWm00639f4/bwXi07nd5mug1Vu8aX2Q0SqT3DiWTEC3z78U4ylGn4gHt5wQMW6qTGPsmkoTRTqwdGbeTjBw2PBsZ4jw8GYwGhqhP6Rm4hqbcZL12JZouRcks5eVSjzuyLyJRGdIs8J3pisri4Z2FNfnCk/eURf6lJ0MS8l+kMdg4wdNjxD0+/C2n8r59qbajas4cZgRIdmab3fDXlJ+t7rOz/Y9SsQyhGOx7v+CIwz40YE33TOKOGsRqiUXrF+0Jhmi4VVlMw3rnO8SVG8qyYc0fRMf6+Zwtg6GQTS60rFRo9naqI+fs1dd010Sv7JOWuESUXJGX9uHSIGmrNyHYrM6UeT7d/QH7VsK3RTPYh7nssD9WW1iGduXohOAytxopa7xVJAJ0OGVjzol7F1aiKksWrKxbsFgVKEoTTLUGqONZEASZP18GXDPjqH3zmQ5cAswUUjxl6v5RmnnvgHsTstcb7bYE1/Uka7/07xfCg9MQECuWQ6zGg0XATB20pSfBcBBV9fXNnmCtgNOAb0/wrX8f4pYy+Tt9bT8lrd22TsEKqCxPnldcWY3ZmR1EsoaiGHppK2eceFm/3FSiD78ehXiFIjhZR2PNocbY4JNY/KM2BrcD2H5c6FvUIg8/6N1H5ZIzXZyYSjVlyjg0RLNHjsf+/gXgcrYGhEq1p/E5uSX8L5SOZfZMMT0hm4dc8jM9Rk0+gXhd1LqOzfh7H0i1u4NCh0fRV2TzSqQQyFxxuY90bIsWzGBfE3ClCX8PPFD/g4ML/g35BjA5v3j4Nl+D9YkxVp/MSA7HQpy2vyumzOsOIl5s2GD0OyULspDt8wpz5fli4nn1yxb03vwQuTzfDfpuvJ2lEWPQG4opR9Cgqp7D1YwLh3B71IphYo1PORcvq8uPAprCPiJZd/qROr4fJP1XdpE2t+kcL28UHYlJ2QSItLThAR9dfLfo2VphTDboIbecmFoG3+luJYs+xoMtQpfSaXTTdUSmGRpcGJtKFFD0YomQ6WNsN3JJDkJG9fXBwnfaJLFsi7WNw516KWQZuFbZMnCNo1VZBozs44RPNOBq59faKYdNjN1KJhn3t38ZK/kYa+xbuPfXSfaTRIZdKy2+xJAVHZ1yf9S0/8a0rFTLOLuDWvXfWgarZ5vfwq5iS7/crPqE3Gv5xh9Xd95LI/dCveaPCBz3N8IhxXFMuKnXUkbSJJChqLKWfyTC3w0N0q2nmo+QdROFFTnCobsd07fFxzz80IhKwNaEDMP2wQGOMVlB0C5HA8c8vVPoQi+1CgEOujh+UjWM5yac/7rjpnHBebBtAAqadwTOQz1++J8Hagh8mqx1TH/fNtEcL8iO0tG0KrewfHPRKVEe89DAJ3fbsrlJBdVhom7pVwnDhzqL8iu19W3lsglk3acuSprJulaCQttQGmmUwI6kx8a2y1gTGFU8uJ9S4SIqIDxVS6FIPiQ07JKH+ROCOim0/L9cFRHje/dH5KRSQkieAwpBoehTtc6aA7RntTUyqLTl+ax9kI+48qOPlyjmel4w9JfTcXZiXuIoC2//wmOovI6UTz/x0pCQtgYn7dtp961AtQ9+uVSai0CdRdYXwAQtulVQhieOegQs9B9JkEyXmOFrNCvxkKKWaFKwncripKMcqQqZeEj+rN3DytBJ2E7XXGWkaRghfdzU9QEWJD08MP/yfdcX8Mu0BIuHDfeNPozxIbAd3dGBPZ1DyGfGeMjC9+Z9z44ytUBxJJ7VJaMvRusFltUQopJOZ7OFQlNtLenRWBbGiqdpdiNDYntKSaFRi0IrglVlAqsGY+bSf+t2pwYqpUl4M0C4WaenabTu8wfG9FsigAAADGQlKbG86ClUGaVgVMv2y6vhvX9dC9dbMg31d5l2+zNrxCG3KQpQrAwmxPc7LjURh/UP6Tz/3H2xW9KVQieli+N5UAhEe9nCsFVZ1s6CLl/qVaT5fgnO5nuXzYs4z2vATRICzlT80VRCWIPj3CY0CFG9UnHXNMx03vW8fTAioDV4ZqAbPcsjNRWHzoiaMLt+O0dsKt3rSf6+cWtICiE/mWnzN5uRBgovrpnyAKfjvnfRHJPMMOQOR2eXWzlHT7IzW1BJQbjxKIhDvzuFvQN09PUM8U23YonfqkkGpIt31C4LNlB2eVhTTkr4ARVHwaIvkq21jCpyliiYfNk0tHBtWFy0qQC3ySZU+1xOdFLU3xA9Py3d15LlRzLwm/GA2kWceL2lRVDHUGMIfXiQq+Mz4zD+oIOJrz7gv8Nizh1/UggljGChNfFAx3nDLnja5KjEQGS4Nn0Ih+OD2yNrtZ/x0RpiPPNtYpacOdOJscpDjdTJ0m2P6IImgNmaTyct3Azp70CjU4WSZJQmDllXAVjggZg27jMFGS26lNgUuxR9Q+VspK8e4SIZ5GomrXYSLYwGM8BmTDp1pOkB8BoUKL/YrrqtA2znRcV2XhZgrYsb/+UC/lDaN9djApIv7Q9mEaOFoaCSH25cv1ageIZN5YptJN8vxbZqYb8R1uuqxLyeczWjDlkQS9cvQx+A4919ALubTJ+bduJd6q+OjrJ9DDVXFGMY0/JzATqkezj3M4mVjrsXl9xMLGUI55V1hQur/M8y3Q/8PIPGudxcgil5qpPuxZnudyLxqYLTOXW1yZrqtX3s/whXSUjOfUnfRvvSzKn5J4nnPXq2uMn06+anX2Aif7PKSQwsNVix4NrcRITob+OzR7mr6U+O/MuIt7aEjd0nZ+Hsti/QPwPHyytUHeXiaLxHx32Mo5jezEZg6CzbQsQ94Re0gVrmv4pbxmD/zQAN5Jlc79fIbr2364THbJZBFO2XptzspsvXeLDdncqpn2Itz5fU0nJaUZP/ZPPS2eY5NpY3CgUNWXv7qb3JnDGAOgxpcOUxYrUL8b2pRVsrY8VYLw+Rp6K3Be2wRWJ5NZ5wbU+2JL9qNFx8/cI9FIUnNnAI57c1tIfh9C+SVcJwmoeNd6doJQ85cDK7INLifnyfot1dFagX7aSpWbtpIPSBbG5HNYo9BY5wtL1WYf9RCazZUtWu8sx7eZTfxhkdVXOlae8VpOZjSsy3eDwgGubi2811Ry7LGSIayf/MWP+nakZMk06LgQdjzEv5LXPkPf6Gw6XrjpZ2b9my8VLDT2s5HVYZbBCNlaiARvkN4rDrU2grpOmTAdrMVvkO/HUqlefBfr6U8hWgPt1LrvQyQcuqfL75jXEd5zB40zVEVurdWO9P9LD3tKfr1cddFDoNvF209F08LjBI19iUTWLyVQpG42GK1W7zhaRyPeZSqA9wlw3vHoemmfaw6jBo013p0fh6AqdbLvs+HyRQ1XOtl1V2Y41rIQO7lwMftiPifR/dCFfUEZ3u98pb/HoYeVVDw0JzikPUbvODr8nHWd9AGwub9oNDU8bxqO89aA7oIotMvl4d+9SUesBORgl+/y8gGzFjLnM1cSE+dGwW4y+3/r/3D6259USVJ3HklXkscRwCFb5cKZeozxjjA3KyL9hlBM1m4N9YXMnAjtvHf/mhPeCWPNti1sq44ir6ZMarRE8pFmKWM5qjhE/fOD1YC0hoW9B8F0Yy2LW9bENuEeagk6GkasG+8VfB7oyfr9blQFWU43fW6kjVU1cwejVKvf4foy2/uP2CHQKPcVT9Xy5yyh5qZqwC/22R6bWh1GwVCePhp565rPkUgtIGElEImc+cIwiEEeny4y+skuSiduLdFpV/JDjfjgMHbSFK35oRvOdM7VtDbRptzEjXJUxZgrSFtr2623TXxJQeF+Fo5cI7Z5cK4q/lBROGZ+s2gEOMA83b2pqP1ZkW85Mk15jS4wGHr5g/qMYfPhCUfHsSSaFWrGkmGaFvXrWghIWZujjt9qFslAq8vaXzKYwbZxdKyuB9DRf7TAV+yzKOAlYm95gDmHSX2ZYQZhF5ZdCg8HaKBAVCC/cF0i4ZfxXn7UTMrKpXWlMFaH4EoXRnufZKItohkM7F2FEn2nVAh56WRgGo86WB1JTsWEPUTr/X3GUCafBeghYr8aXLY3NxTUFAoMoQsF2gawSZY0tLRrUdntHGpCyQ+kw0nWXuLPRrTC5/hmnt9Ca/DbriymwKu9rw4QfACxTKrvj/hQWHRtmmKCRmCC8ZAal/GgmjTq/W8d6xUZjfGDwRoQFk6uSuU3FW7v665EYgw+R9ImvT11NU56NNPZSS+VXRqLlUE9v8C4bJozwCekww9SqJwj1ve5L8cbyz7B8KG48SZvkqvhh8SYtFaMkuEcGd/DWjlDuowUI/1fkzFhGohF1TKLPk10WYtLUD6TfP/ZKyoq24a1sjGkUpOJoWZqrKAqfgA63m+1lB/Dh/XSP00MhnHWgNErxhlB1Ie6RGAyln3jjfZRH0o/+JNA7IjCmfc3H/19EiDqaMy0WFqGnzhOU/VmRbzkU5S7uP9DxWQoESk0ZVF/uPiZsp0vaQaBJWL9IfWmoiEDzgr9wszmy2ySe0Qw1Gnz2//oOOVFIVkq4K2FzSscy1y8nCnD6Gi/yUJoEywzY8XcvAqCRvvDrrCkydtfniiTxjYTJAiN3rJF05P9z+zJIyiTy0/TSbLoUfFksC1bmiNBvZwNgl65uu7DTYRWkNEpqLBMLi0/kexbJdAVOJzX0t3zci7wmFKug0N9C4eZiUlLHQv3XscIe3GpU4zf4qo7diS94FHsKvx3uHm7iozzajmFUZ1SQo3r6zh6+TvEfsI/bzDbQoWPIxDovytVdsX8U56Q6UG/6jpvaH2jydF7Dq1GQl1GnXyorGo44l60Palj/Umrzdh9CR9vLvI1VzHgPmtFUoLldg7ZZN3D6oLPNXW7G3hQOmHXXRPETWnNyEweZMCECquzN5LSTIn4+sB8D/EQfghE8OgwJuJDzYyvGzwIn0FwnzPhyvXt4IoQF4q4o+HPrz0SN55z09UKi5E080X6qSzpht06F85jOvT6eqZ82BmTN7VLqb2qN1RzKnQqTkckLNYpY72nyyPGAX+F+DH//N4dUkvHB/ADvQSipQHkPKiMP8ICEwALOaB45c5nCfvHXXlttUpZceR0qetRKZncjo1HPqJ4n6Y2sL46u+6kX7NtuZRbFEBWpSEp7gUOGp6/ysR1HZ3Dq/zlH7vw66jNUV3Qb/NtwSWQuC23zxBeccmYmVPzG9fxciaetox2xIx/GRPLSZFUqpNIe2fmvRw30j3EyD3XxomUNKt+UoWtkWu56X6SnZccKrLQNAB1pQGN1y2Flid0cV9RKAnU0zJ8d9iBgdkmHxCtwzzcbb6u3oM8MFUudzcL9rvRrccUvibtr8gqNi4meVHeGaMXz8LiXhRSC9xGtYVbe1rhu9F39rjQFALftj6OTJQqUZ/Rp1/6JbBKCzUUoGDVNVOEaRy5kJF1aFAJED603UE05VQAPRhEbHdAMo/E7ugRsCpraNtGFYdVy/eB98nEXZ8DLBvM58m+kYCF1ymVyYh9ybXKQ0RPyX4Gpr1hskfSnRqGkmG2ti+8GEisBO77MI2bjsX/UpeFcD4sN53kAu/q436oL1r0jL2cynAmG1A1dbHYqVL7010JMQ8nryuUiCDqZ7qoP+6coPX5DbieNZADVRhv+FYMbkITaeQ3asmLNkJT6ROcDT0UBvjWZPgcPA1GSNfcEOtaK0ZYfMvupwMyuyOBmoFJVDywrhs0TeS9wwgK2Iev2fj6a6sDiMqWiBVoNKukva+hASK9a0tw4cWfyii5gADxby9KJIig3qVE9sw+iKTVaH3drTAv+PYv/1xXGGsY1LvAyywNvo+Kgo71HB3N1e3+ljbtfSbe4/j9pKN0D0OqWruVo3NFfBcWXXDTy0I6cN8XEDlJVf7D3m57d3oo9LAMuR5MgAwWG7B2ZYrZh252yMtMGMY/q2oSm6IExOo3lwIL4XXl+AdpTnoL7I2oapQbc9GgFi6P9MW1IKIjsJHa57ANFktu1N2T5EIwpUM8C1J9kBvmLf2lH9BbmtWInnHJjeh47mQC4utFcHflo9GdYm4F5YQm/uSK5nG5lewuUrnCj21g95Q7T3IXaDNzmGT+86VKo8aj/V6JzhiOMRsIQFwdYIGX4r2ZA0F3RQZ3GZIkEB540G9mfqvQDgMyY3XhCj2VRE39hv85yYKOjdMjTSZIGRU5FnFKlmyAfAPiQpJi6QutyWjYZ6207YP8TJs0lTncuuOWXMv3pfeIrVUIEFTA9QNoZ1hALVLTfTOSaBRtEjnB43JOJToGEBoxZszMWTXrM/rbPzJWXAMguBun1CIplMPMp26HSslArUmAAAMa+Tx4teWMK8y+Vn1o/LUKljhlHkiD4NyyNVozjMNA83Qd1YzryMkb+WyiaLYCuxdgJ18REaM5T+7wPlktWeNs/INyvYwACN7q/3hS60OqwM8SEbKBMqw43cone78FYAAcbO0rFQC51W2duF43eW9gJR5XYlmdMSyqk1lFdm59Ih5ISNkzilg+UaCPIvQQ8iuLrsv/UvbsnTF9a3XeK7RIG/HbFAd8FuxbAnG5LtSgOWNDuN11Y0tms6TOJRk8ATj+RJ0X7X0sFdTyDqmBAXAEEboRRiMhHAZK6uCvH3els/HiSVaJ4w+j9k7j702VuUJQ0vi3KxJFwdWj7V/4As96ngxBkBZAmeXBnX/ZtgDq3wq/aOWHIM4Q44FH7PD4Zdf3FpqO66d9v95A0sbXOZbCK0m1MQD3/5puavgWBXaipOpIKikBFcWbrx/foy1PhrYVQwhssd+a7xszmKgDmbpERVJ+Zio/GggPvDom7liEZYIiMYGuBBqdwfRN8we1BHvoAPhBRyf8YdLwrl1x2NMCP5szDJ8RfaAwr7fsvhkzCOOqwBotpZH+PS3Ac6vzCrb6BFGpvRoeDVVaOObeiXqT4OVhfn6ZjZ5vGtpQKtdRy99/NsejyOfEBmAhdbvUi2fQGUt3R3qOgVcF/OjBofJGUE2aPPMOWyt9SwkHUYTmL6LhCF7tHxn+PZ6SN83SlNKT0NGatxKU9Zok1iT8+rB/hsnCx311Jg6D9MyW2QdOYYH9+4uBxIBZ8IA6tlMntNdQn/xWSKe1DPbGdpJMNV9jZMWpyfqaLJ5UN13wsEG5fIzDmUpx+ms8W25jOibu6kb4vxZkpEw/Jccyl0+iVMlyTJONprmHUJJRtOECLuUlgSYgtGpPM1tDbAWieX763lG7a/qo1ae73F1PnGZPT9V4WglaRGQDi2lgVq4glW3TZJ+qhcikG2wpvQjxRfvD+z17JeHVHu8sGNJRO4HMA7+bXsQnV2jH7D6YNNoQ74rr7joL5SjJ5HwsJwzmEkm9M8FaJ9It4miC7ajKEw1WvR43LWCA2AqPyQMx8VlyHGOd7kqZ5yM5y6f+WOQIllKkJ7FTXGV3M4Mdwr9qQV1bRUBe7Du2vzQ3VPrYw7JJ1gKCsSHbZqq9vb/CYOQ8iOlmvbcRmvis6mQ8tQRMn20LeLI4SzgC1fQHKVnMF4TAM8kZta71KuQuQgEfNVzMvfrqyRhTApx+TVHLZnh0YB75KTn5yY/osg4ADkL613EGPy1TnVO8xTdCiHzo8DIhukO1xvvOFURhC5fm5/bAM0OG6Smd76n3IMf9l0pasE9ysN8u5gF+nyi1wGuyuNgH1hvMzxUqAlXaVYJy0EZz5yzHMPJ/MpBO2m5u5NwN7/PSN8i8Ot8pLvcboTwHp5Kuo3YVjPJLC7dayT6VMHOMJ49uM8CowVjhi4VkGBbMuNlkDOMvg7oM1Q0SlLDdHaTOc0JZVFoMz+t88BenNHMb7t5/YfNZuYPuWzZaWTL6Mfxsd/iOR+W9kuCokceYx+ZAYvxR+BZ16V+avxiF9jsC6k0Ns1N8wfJQbiD4Un+lPvJ36dQUWNh+qc3doGOQqX951XgewS5QXLzk3ndR6zim8PBtkw5RhbHxGxt9Ivzepjh7l77TNO95WPQlcpsZYsB6DwqKMALNgzoQ62x89Fgwvb5J6SDk3U08aNvlUoyDZlRfavq6ukWNQTYcHzeNz+/OfUUKN4NWqWCxCHEdZ12S9A/CH9eRCyYTrROkKk+Ge23W4vDnZTmYBXZqh4btg8xirlecttWt9FVtoMPhLxqBbzQLocM3rAierGxiPz/3xYZMTEtdv8OI3NSRCZF5CNtMRkrJJ9eyuUXipABUrWiCT+GCVccMuGjTVy4iH6TK/DgqJQgRU2bld+/nwB23m23vhykP+3CSvezkotoWG8xVU4jpwNFAJSKDi6RDiQIh0o1aTd62ztu4GW/7mzEnslRvQltInuDK87w4rOFCZDUC1ZBja20TGBYKnkK83jVcxAUB8Hj9efjjV7wk1A5+JJWzELGEo/p3TCYt81uBKuFGqasjJsnNYgkKNxDpUCzghl+F11B/FO1NWPha5XQfv3xwxWt09ZNQI/qC5B4YgDio/XhkrbjmHDb6iMvuZWigEjwJpNQ/Pj6j7FnzEKVEj0xEo+5QDsvNXXEvtY6wA2aayioQSvCIqnYnoaszEP0GOqQ3xeOccw6PYi24yIXKSBZzea39vv0ja6VZqgUuYhIEKkaXUxVMRNYSiatgBdz7HmiCT0eYzvrx/uZhSb+rnIngYQ0Qpd0AfiKpOGy3k8zJht0kEIMY65Ub2xVvU/LEuTeajUZ/2uqeLZaObnWPrV0lXHI3EybaYmSX+GII7kFd4gLsumGx6LrEpY2ojCfYTc44MHnOqNS02Pm6S3F3/9GrOsMu7rMeAB+n86/Zqofszg7nn0g3abHddDXFI5ThezfG/pl4aJasE/ipD4QeyVWkg5/VwOaJkSd2cGNRbwHn5Cpv44C8U5oUZ6H/YZGS2XAIvQ4WF526Q2i4610PaK6WhqoW1fD7AvUUVzjdcOYcd1qjrKC3GpBdnRzJ6cHYxG/D1zPq53qdV9c5M8GlovaKNZpxui4rK6bY9cgxhIzdzRhvrLFqGr5+4iQ3ez4eikF7b13B2JEAmHFb8OgGhOM7B1OxlZhhMqjPkYdbFOwQrDwIcUR8wsW1OS/6yUySgcURnLX01DhVu5BLZrMY8rok6aN0avk5Pu4VYHteFL5Z4wVJaq3f/G+BrFE4Cxwh7HTZQDHdZOHh8+tUFIQrs41Yg9wHQ1r9iJQ6nh599e3Wq+dCd1PCfKLIhFNZKJwB3p8/3WFkPg2UHcC5FSVLedbRt/lt7TC33hZCmBj2cMMSOy10f15U+yIVq66RRK75AjsD3l4MmcGlfhkXBRbinFzE4oV0wqeE5M6qTDgNUl6HRk1SDeeI2nTW/Ji4VhP265XLjsQ7qj6apiVFzCyQmQVGwZ7moYiEXFDLvZotMRvyfnVwSBmxrlWio69oALrL7bC58pbmJ5CTCumw75cI0RuORUmfIhCfl1B7x47kUtXJn8M6qMS030y6VPvSr2/+FH8a9Ce1TjCko44C6Fgs8UidCPu5zKF2TzKfxd6gVoihQZayH1lM6jFrEne67RlRc8mYGJkV/ffwMgYjJzPx2BfZNLU43XWj1R7SRHN251fN9ehf9TXqlortl7ge+tUUmAp1E2QWTOR9z7LZMlh9tQqFOp+fw7m4ZpRJ2TAETJjYCS0DiJr6REkLW4t0w+dIWLizi0+qHSoyaCIYCdO2LjtAOH4trGHogi/Dt3BwJ/YyiY3sJP95fG0yT8olCg4Ku2vvoYcNB1+kTCbEOk42CNFNfnFWiBs2obrZebfXsVmoA+yOHEqdg9SjrvF9FC2l65aqMZsjFhx8OCIuc4rBO2BruxswUULLOmFiuF02WlqLhuGbbasrw5KcIp5KxjGkE2pHMAf+lUztAtqusFSdUSWF1N/e2BZGirSNJzFIp3Z+ox5myxWhPW1Id2pnyzjo6PjPqa2+qpD/UKtbiwICPS0+cOTjnrSvevcPe9X0g7zbRjreIVsBoSANaj3UZwffU80isGEIVxCv2o/elo0wF3Pzow5IMdHCn0oTBjwtTt7tIPlZLYVc1rXdDn1rtyrZ/oWv9xpOVQVVCb0EFyQ+pX4SWkl07hCaMAOTX1xNUQwUrrp7C+xrcd93pOL9B4scwqVMMM2Gx8HFN+7+4xFp9oBM3Kn+cnd5SEG2ZYYuC1sz2zDpO4axUjV1RIlD8zFu5FLPkOpIQdYeTws6sZI86bPJjm2CjjyIzdXDBtHXarzFfSOYO2PKm17JFs4diCyL3m/rfMgL4aV6vuoHiIGEi82mOqul7XNSOW9un+tMbHGmZeTpii+Dm4JA/b3iM3ddcr0y7E1aAAAAZyqC2bEuW3DPFDD36KFgFl0MhnzutMwAeqVh/zYy+Tq2yVtdMIgIPgaLjgJTi1oj9RKyCf3jhDqNSA4QqLuZfiZtYCQ+zMxA8ydtnRVF/kEjT4z/kRsaf6c2iNTfwxN+jp+xXlP4AKA87KEOJiEmY2rz5fX5EvsfgEQTWBunflBMqhXbuFIEQZgMdzOaXhedCjeEV89KJK1srOo2595/AID0fbcoY+txbOiQg03V9tvHbOfBHTEhPlFD3uqLTLI6uQszWMW3T3w7r9gblc5Dl0nua+ruXD66n5E28v0YeSsF2zKZJ6yh1JfLjW10ubox6FF6PzTO3Zbqo4DJe/3bSjAbgjuC75GEihmzh2jjlBzFpW1Q57Nv4s1RhwqJNI7iDc3vSCQmFW58AiXN7jjzrc7jIpSh6u/DJ7YK8hksIyYKIyLmdQVUGGjeOFmf/zsPOhgmnsva/N0jFWmQKO+fHpNNt9Q0kCMhNUf7Ftlc6AeY4QCR2MP0bh5Xaqd3D7BS4CbN2umXKB9phCgfA+ta3JB9g99yg27wWBmmpvm1aT4HuYUNrXwS3E/CK+bFjGEZaBMZWEYEYyJKzIlQRrKPS022JLe52eAl2CssiUxYMXgPzMtQGgr5jmHAmeClmG8VBo62HYG5fxC+NNx78BXgnBsdz7IpPImCGguzOvu6gX56+hs1B6rGvw9iIkpDprs/aedPytoryU3bv/ZEkiarBvkdl3gBb5vNfIjzug3u4GHxmDeBuWVFypZoeUIkjLINqPfwuGL8aA2PYDNVPqq9/BZI+zGVUovoJYD8yns0fyafHhebnlzb5S5uk7UOFM9oFFwr4o4tJL0l2XyIflMtnZE+vT85sbLXsJ44ROGUcoVRS2rC1SBWitPWDf81hiOTOvviteFPI4NfLHKyt/kCns/1J6RJzJT/nl6R5xGStQX0/GHrukjSOPKbf4VG72MF4pnzK0Qa/4CZFMs0sv5mmQKdmOs8c17AioqJG3ghxZ0v4MLp/HOqbnPiOXxwMCrjYqOMDZ3bcnl+xJxpLW77/oNVaXeZQczJEPdCT+BjOcdPcj0gSGKShhTuliuZxFparzb6zx3vl2fY9t7wKuRRbVY61SjYkU0I72UG+W5ateV5MxshkGaMa44nmEZggQAkqvZpcg573ITrzK0NlbBotr4msQ5t3YFnfpA6g3YPBvjqjPnuF582hMUqamfZiBiGpp/Jmyx7lM6yxTy9/MLdo/1nS//2f8rCQgiblHAiZ4KUwZwYGIv/5s7YZr/dkDTPwftTrjj7BmajuVnAgkSqugS2hkU7omqrQVc/aj67NxO7CwbbxJS1bXExE+g9mYZMQlfWUke16f6qAAAAAA0VW10ADr4AdwCwM4ug8QAl/mT3CrmRQ2beN7oi9LW/HkRBOqZ4UbT6y6cm14RBLD2PtEDT1PBoEGE4CAPViQAAAABmo8v2+QSn5AAPkucBABFyATf+T8AACN2z3MHL5VjJeXCvGHLu+6/5P2FjGrW4o0mwZbQA3Vkp0y5qetgvJ+jT9/giKU2AQHlAWgwE7wCXxFpFFGQAAAAAg0u4d1qvegAAACR5OlXgAAAAAAAAAAAAAAAAAAAAAAAAAABttiEFm59i5FHfT2BzB3yLE9VUNIkIv3S8fGKFC9ulI3Gaj8eIXGR4C3WZQXtNU1mNcSvrDJ3FxgBPBh8bUiYyXS6xWSml0A14zNI7Avx0GB2BUN601eXS1Z5um2ZGiwLD8VFXxVtQv7e44zOWHWCw0pA7fYvTjr5SoyCVBmEFwU8VBDu46mDap4ST/aRQ3BH3+HmbhSRYV2rd7SHSCPLGLqWZc0yarwXXXR3lxk7KWm1SQt+ROAAAAAAAAr2T6qkAX1UUmwAPs/F/C7j57Z84sgVxIUPBhGxRfPN2BdwOFgjKCRG7G0nTssSM6OJVkxf0KPKp/7EwdJx/7KljKSMf/IojVyAqqEdB+h6C+Wx/qdM2651iE9X5ZZrNv3P+hsx1uo5eQDHjk8LXtVUKUfLAQd2JKFYO54HzVlSXyTLndIsjebFou/19GAJkCQAdDWpobRA5ug0vbnoe4BrKA/Yw/D1WxWhSzkS0CRMqo17d0rwxS80V0sU0CwUaJ8Utq+XKo3wEKfhdcSFsKJClx/0bch/1+UdzDca83PVbz7YlZ3njrdvAJixmpjde2uGX2snYDflhUeBugaoiZMzy4pjYYAE94j+92UhdBnLlNFqK5amlIo0ViGB7K0zQIy86sy590eCxDoyohAUAptToOo+soZQNlhO3JJa6VkUZ3k4/yujokpLHJHhzdTces4m5p052FjGj762cLn/fwirwHKy3UolT6mkNaO7HHW/gFN79KfjpStqYANcuSIWckPIfg4FfZEg07KKeGzQNAqsvSMKM+2cZAAAAAAAAkE6zKQU9n3XI0Tc/ooFiHneBVDn24b6nDJYTXmRvWt8CNphYQ5YicyapsqDD2OtPs5d5Tt808p89GD2gx4vENVTO0kBLS2SkzuFTElyPNp5K8olHd5zxsW/dCs319PfqMVbks4LClxbpU83umt+W1+V7EY2MwTAytl3VdNcdp+PS7vRVYxyoydH4JVUcD2jXFvyVwsnny4w0lfud1GAIOLZezYGHcGFbU0BHajk7qLOKzUchxm11QdrF1pWPGZZt2UiEL31a+zhuIqME0sE4F6qOwYyyBCmtjN5/YMxm61ZJ+j2+w0z7uVxtn1Ai/SgngHmYws6YFd1QnQQJ3Gx4xAx8Ms1wcTWwDU2OISRKwrhGGHDwaenJzDjGejES9CQX8g/E1Wq00GYkAAAAAAAFmfVB1/RGUVcntV/y/2HtfQ7wi5C6DxvOx8ZMco+8nvan2eFjoSPqkZ1xYu+9yrTu1sNDHZUCofAlai22X8piOrssKSxIqv3wYz9uG0lFZd14IqKHNkqjT/nndzxl3MGJWwN1C3AiYu0zj7sB1tMglTuB7sK98yrFTsxmtWrd1WKoezi1E3q70N7x2dvsaZxBiMS1cHI5Hz+1/H+Noo8O9AgHicNWPAcPy+vrDnWFUp/ckwfXsCcAAAAAAAdeDzZjydHvTr8/HnWCR1rPAJf+097TAk+oW5IGD9P687JvW6vPBtxYTgQ/gDFubc3PHHUYfK244k4i7CyaBGXBn8FzgpqAGshvlF4i3oQ4KnmK5KJEWVcLT/VvkFAVvLpdScbQLQtLlK7o6NQ/mGAPx2HEh9m0iEd80rjoYfV64gvxv7cHOEmRwFbS+Au2XRez1sEsnn3ZBkULLXcR4vvtFIpFMWsxtzxJbOyaRwkyIgtWI1JqJo9PiM5xeyoBx/I31Vgt/3JNNUI8RAvY9JFO4ihiDC/Zu+vBnWheZV3o7T6TH9BxwcaPtN5Hpfi2SuLGFgBBok6Hewan2r04VDvd6rSgpX5tM1VxH6eTAmh6ACuLdNk6mPaVxua9SfvLTG7MbUi/7D8MS1pQXltix0lv+byEIAAG3PkrdGkhyBr8oUT5fWPa+ieEnSq5I8LCsY8ETMmxsWdgrR4TI/cpu3l7Z3Pc0xDppSLmcIwQ1lHYjzGFbOPDIaFkyV1x5svxe/rYkNVgcuft6AXKRj3Xf/2VAI7G5mojRGzJahapGEmEZ1lDSYBxjmGr/Khk25nL4WAEOqJGgAYRFU1mazVNn1XIRpbBZ7AEGLYqj4AahGq9MDfmR1FIaX6Hpq7DEOdwxrrSjU4LH3TDBT5Nj5GVwfOEHxMJfP3CoFHYQeAeRPGnJ05gQtXmVLQzIlEdTJ/RmJWy6iln6SYybgLZSH6r3Y/Ob4booesV1Zso8BfCRNQ2FHJSV36YWnrXbwX3yHoYNJKVQDziOfSnemQga+PgKH0G9wWd6BrLnf3v/EVO4DK4DzBWMe89/LsCD7FmGwNEQeQwijvAibIXF8bRr6jFg8jAqWufK05wEbCXIXSJ0WRDNMLJ/BGsrdMAALqo/gyzjz+EY+Vpu7d69gwDm8HRx7Ir/VidxBjqNvl9/xoD6LazxhyzrQVLI/684yTuRqBlTGQRNNtAjuIogBUK3bgYgwx+m8h0Vio8SCDEjBidBDeOxHP9v7TLsd7uD9faE8WNqVN7YU2sgBmV02jVPb1YAoE1PyxTM+L1wlOUBoHWLEGxpd6K06WLEOkbY/KJg1o4Y46voeUtmqUeQCg4fcTlgnlQU2qD3skZdmGSdIWcJAr56odQ1uD6IEE1MGM4Bxxaub9+VR034BpL/XUsijGq+IjS3ifk4vHyv2mUNIqBWHHZArpBV6OmAQjzHU3pYMKMmtxPGUEbxr7qk+T6j45WRzI/57xidyGPRWsmmVlMi6yPTgDI53rz843KISCwyRfOo2uSy1EJRy2XnV33MQ2dJYOreMLMrQyAnJz143g/VEbXfv4n60YK0ao3oupSHyG/qLuSnAq3VGLGsj5eeLa1YTHIRcyOK//D51V1xvTMIhqKDM79yXbZY7E32pugx6pZwAAAFLGi1Vei4Ul0eAuhhGlpbXubScXYRDX+0hB3GCjyk6TWVV2/6H2lnhWL52BrTleE2qmOZViVOj5B29R9Suk2WliVLrOpXgg9gxRsEWUMaKMoy3JBDNCnOL8jw08OjRC4OXxx+x+hHEAgZHYtMVRe482EuzoaLNTuNoFm2nR1/klcjP0aSpfmwLXSL633lzonK+D+ZrfOE5B7EIDB4x2YQhPdKfScPOQt16I6K9DcV8eEETlskyLl++ioYQO75yS2DGtDsnl7XlYWYa6YSESDHEgsRO0y+3Dpdgj/8oL7zJne3ofDMmd8GiNc1AH0asS6skZoz/PaRsKduAtpg5q6KwdtsGzD2myURUFtHcK5LN0C+WzV02C/Xw8jrev7VlIm6jtp+0dYa46Hj0UAR817uMpeExd+3LpkeIhq0zTa8y2gOiVigDlqSnBuM/ErQq/DAhbVZbTEv7yFJoXAjm3zQ/J0Q8lu6h92Mj2nhvrPOhiJFecx1KTDOlzWHyDz+FDrclKNFUx1WOEGv/T+8w+rIgbO18l6VH6Vt6+9a2ZWcSeiqrwV6meWJuGgaoPPa4lyM/elfJ7TOdIhcxr3YjjClLl56khx3l7GA5nNskdfAaI6wdMow7AOylNi+xYU2Bs8qBZfCmAtQAAl3Y4O1Nsjjl7WfV2sPSMn4n3y8+VWaaaOka9fq50fPD7i/n4B7/XULy9Gr5gRUTsg2vIBt1JfZpNiArM/awWs8fMD65foIIso+UN+PxtwWE0w9N8nw+ZOfGcN7rj3gzoFn6Kvn2onaeQX2UyEn7Lg7a0l4nYEwxAk+QzZGep6CAjgiCRQ7+jKrTMZMAUVYaUBaXRyJKTgpBx67C19RXFfpGzOxNcDPiLC3hXgcE41MdgzNzrY7dlrygU0tlqiprLNPKcma1mXzcbVJGq26mYThsyQws9asQJU31lvrRO9AAAAMCTAguPU7Fx9nHyfpNY89pVnOV73BRRI68tW3A3L0vFTTjHbrpnAyX41VGwUIIH4J+38f7CIwYtr20o9QGWwuZAMGOopDEfNmd+t6ISH7DcBRBX1/dF6EswdfSBTk9+LXjoLe3vDXmeVIBRISjpwFO4/wBUBeVQOqrSQEwzQXKFVmUs33+HCnyPKOn73LHnyg7V1E3zc1JBh2qQ2ULPKNtBm/lL2hR0W08x4wKqCXM5td5p3YMZOSeYPDpkVG5r81ujDJ2qgqId80xxEeB816UfYvWvUmERXoPbqBmDiCrMrXGcLl1+tKw02KhCFP4+AC6Hd2KpUk24o/dQFa58JShSp77/WEOYkHm6bTaDEzpyI0ym0qRgfW9yCxe+s2NOxtEa8GN5fOhe3vAmBYBaT4TIc3Mv9uDoVxy1fLkwk8UJ6falgcFfwfY8tHyjd/d0ndADJ3To8h09apiepnaszcjab6r1z3uLI2PsVaKtuHm182tmo56qlv+x3/BIri6fO9Z9VN0ce4JSWpflsB3OBZlnGDBrMHD421N32ApCRDxXwxmZ8VVNGkzwO7rUuCE4FWgTS3s71XBj7Oa+N0WRpL0l1rTSlprt/eUkf068nWhdP9TrEHVUYWDKyXnCrWhlj2Lwqx2pb+pRExmE8l/rWrmEC/9doYD4niPXi77iNOBs1hQwV7drJL8J5bqdHBs4OVvKvSh8gM3zmYABb7SAci0hBCUsyiSXsya5FZB8GHrxN5P4ARGdyvFW+oz/iLxVtQbbhu7tw2hwxfx2FkxZp1YYKLgJqhxYGrqj71sAfVENYJnQIyabV4rR9aioidBvI39PP57Q3mex4V1wlENU11svptygmhGKS2AmSt6lv1bBUzpFIYJxV4+5iLBYNaWVigmuhKVDzeQ4PRJtW+QFvThx+6sQHhnBb/dwVqrFu+G+jPqLmjLZaCNmQ4I8suPOT5HsCc6GU3Wty87EeN4C9wD9dTyd3ESk0M9FOs6+0iMzDrr2lfJULqaYBFnGhHabMZ4WISsO8A2gJYQb7HDPbPm8xmDgjIO2Apy0U4N05Di+U6mYrVsrGYkV/hF3U1zkUS0cIyCaf8mqvZEZyMs7o2ZY3DOTEKbdYNGsWaSpRSyteQ7jXGvweMZNb9eH5AUDzIFy0byL/FmORGFIr3uGsp+DvuflT6Po2r/3pIJUUu3VSRQ5XxIcW+X6Xhw5f334Qd9oRGZRv8Q7tjyQ8gAstbfHA7Styh8OVz7RxhWM1H6izQyquspS7gW0RGKZL3AH1Z6A7Eqv+Lg1mMpNy/TjRO+XJ8dfiFaU2CzeAAAH7zYspnDNA6kMy4nxylLi/AsTT+hex0sgLVtXVDp9PDBbRap92v+FHrzVkV5bk5YPaoJkjGTnoqwdf0ACpqQRkA3oq8O+2lhGdX5yuxPVfiX7SyLfy1S2THuR0gITlAbaxXRpR69FnnZUeTzW90wletkdFklg2AWYVAAAN1+I7gRn72ACa5SbM4EdHaV1xtdbE1Hhq7xRHEG6qE7dk+OGCVaa03PFIiuvIzttAUSZFN4JCJVuCWfDZIMeskZyY4QVCEItFMYD5DAqvVN6kcpiakLPmibGnokdrJq687rOvJnEmH2pqXkLt6lbONQq0vEcXyoo8XMtdaut4ppGAH4PBP+YmkPu7sHFpYMOgCJGMM6DntVnMdy8hINU0nn71fky7RYfliqfI2ZwNh3ZJIupduVZ6eEO/VoZ0DU6xB1VjhuzNB4izoM8sGd60CXvX844sE4cMFYntEzugzPzkdreTZMvtk9cPb7+e6pYCcJwAAFookpqUJi3TjORRG7Di83XHjQTwDaSp2s4GpsMwwvh8yNG/jS3wuh5Lyb2s24c4zr5Xu25tqhFJjED69Svwlj/1Hn8oczxSlvHoGeAYuFH0iu6CQMPsAIE6MUKtBuTSTiO/9amfNrtPAZfQ3L6Q2+ux9KvGpvsbx5zrFh5lrF2/8/TdMjRLl50PzO2B7KtuMU0ggCR8C5E9j2EZ1JL2/o4x4ogxdRbWLCzVw4OYN6RMOYxlykgVOfxUpVe8xH4A+XrTsr+Cwdv2k0dO17PYL6aFjr4evKJPdpmDfD/0AJUJuXG8+ua94Dq1WzFDd1afcVcqj5C/5xyMAeHzxH8uOKShSqZRKJkPgwoL2/CbCijGeskxEZ60IDoj2T7bERweYh4WE5D/Tura/4ECy6E3QCFEBtUxTYVGZxd6nsaLkF4/KahHMG0Gy2TrbA0WmOy1/XwXwZBaqOz3jjcjtOjyGc3gZmMCwFhtcDY5JI+AIK6wMJE7qmsSyU7MR8dcm6XluCMPVyIJf8Zbm5sY//3KURK3fhb/UG2c383f05Z9FFr1Pvr5hYkcOsU34s0xQC9gdOL136TPg3ig/yE87/kJ6YYNzba3awaM7PSk8SfjrzM1zPpf9LekH05NSHmy7saHG0UhQMycD/4BeosUVrNKjVABDJmTZb1WeHrs9Y/FplDaX/tnOCRFtgd2TTcDz+iV5zfZ8UghsTlzB3XyKjHK5NovWqHwZlNdnUdYOjQC751iTlokIVCFuR6grbVjGwdS3G7C79AxlI2yPVcyGeCTNju3Wu+c3U8CacTZRGqrQwkqTWNiGmF7cTD2PNyJevNwRYHvCGBrET09ECZ2pj1zA2SpNpGxIaj42w8MPRgqRrC2kKXca3NzVnO1vCIIC1Zr9YHIbym5dqja+ez58HmIxMb9c/JscEmzTndlqU91OBv9n1LXBYYOAAXsDdejM+NElfOhoi2h1LkMI6aBilxMgCy6juG9UmyFqagGcEWIrnS49x0sVMfO9fU+tshPnhgYMAbSAwPbToppp7zyQ6yZ5welRs4izbX2q9/0KZQbgTQQSlkgAKafAYD/CqVTpoqQNkEk+Jjw72wOmxa7OSFVapro1NlfY2zLL0b4t/VJFLWv1U43UK+vBAen8YHBSWr8OlWoThwCGSUQpNfqp7ynq/WdE4XWkwdaU+X9gx6ia/+nRarsqHnXZCqjWi6hjS4l++AHbgAlFipreSAgnTQ06XmQHERTdvF0+odD0W4kKdbdlHJ4ZZX2CEJCioXGtbJiC/yF/V9aQPZthRatYQFJwtNOGzhCFb12VqcQEU4gjkaZFacylivdWHsRvVTrn7PRNlIqjqmnaAAAVmE6JSRhBCUK5X3R9v967bVIxsrV3Y4w6meAqt9CCbcABqALJZbHr6OQLHGfF7IMgUQzvqdmvs5gGa7vdzqUcRvW8eZzpJmSgb+q/1xoDqU2cYJ3kvVPria1sabpW6IoPl5N4nqUubNtCYcHwNXb0gXDWfh5qj6hfoYomgmfZwWDiw7XlRh2chCna1wnGoN1SadhI7MsMQu1Fy4R0Lua6ts0i06KA2hYj6+z5R2GGCVrwVTMqyWoddqs+UVn39Fy89XDmjT9farslTPieevetiQCvJUF852G+USxsQB8eboual92I4GUI+n99HrDqZknVUsUrOipv71WcPDR5Pv9m4r+W2RKRA1MRYJJ1WAgpQhcnFmk5GfIQ8nRplFd80R+2Pae9s9KatfToCmUTcF9HgFD23GVj0LlP25tT4xsyPPVSxPftDws/A0ZohImr7Ma8Fyd9tiR3IhpC/ZU4jUEEDyl8kaTXW/qXPanfWc+vVq4w2nGyxPQOCg1z79qO1xzxhWpHsRjXR3qFLU+l0PDWDKCjawX2Rxa40a5lNY6X9XkD4kmY9rlxuACyo0+yzzJ4E6D67DFsfaPE2gQZ4Zv1r+E/YrhpWLFHSW/MnZEU/FIjKOz55pKRaxgx2d69NcQaznqsOcP2o4EL44LGFGwAl1UP3qAGYQ+Yb+K0EL4v4DlqfU0f6wtQVidue0rj1D9HOBwVhQoXN2pJGYgBcuvwlat28GlgaRfxpC/NI7So/9tphT4Lz8ccOitqrcttFpmyyKPxmdTXqO6BWgRzyclSZCZytkg5ZteU9wv34uQ4mtdAK+S2SCOc5uQU8JZySIbxX12o7V1TbXA99KIAbski+RUqIV5XVdWdHCaBRL8v0S3gI8sUETyWnc4qH8XlExqfg4ZUU0elzQzROaoUdFgDHScrAXBmGa6vO9ULvdv2GPY5cZyfGLjHCM2oVlX3W6Q8kTzyWPAq3W5hMQBVxwAxQxZEn1dtuX2yI+3tkC8d0oBmNS1O9c10VojE2MQnamKreyp4jHLRFgpf492WYjmU+uDPKiBGM4g9Ay7dmAzsVq5SH44qZkJ1DXqyqAqBTSWmz/+0c2SwOgFrNTklgPvq8+kNNsZ5Slinwdidex1IoftYDSAu8HvvFjFhhWaaFxQO4TMQgrkUfPUWZqj+majsQHq5YIDz5AU0dJ796/nGa+18+uFjhaawaX2BY7fmusRchfTQACHOcpfkCPXMd3PFMiTpvTFERs6G3+nq5FS6XB+t2epFP5iViULMsjHQJqwn5vY8YrkEGedjfRo2/Ooxh8WWzfoih6L15eXaOQIRAwKfZY8Ro4x6hDT670ndZO9tsrD1058d+I+42h6orn+BV2GzsHwxWuThVBif9R709F5GysQo3ThWYXFE7QYRGR0kQ9seKAUf1YC05DMUMNFRSXj3DwCiDhXCE7X25S6MlyxnRagmWLDuUU9icjNftjIgumdsq1jir2ApOn17eUZKjEgwIKOWqjwX2ukJWE7ivZVrjYRIQ0MWwaJIT/y2MBEcCfT+c+ASeTSBUVXaVTm7SpF+3+iRJIbmdtsZRLjBnSjvuILqXMvW3hUaAFNsn5poIT1se/gEgQUy59yYxdL/MKbJDtks5hal64lrvk9JaiPW7RhIMewRJqblhfWnuQjuqmbVplbrhUxocZ+PEewY07KN0VQhllK3hD/7+/CfyRf9Z3V1/ztWkm/IpqSSo7arhrf77eRxD6HNBQozFUFT9O/1o9nO9HugLIS2zPGlHdciUtvZpF9rTw1VLiyo/WuHK1QNrDeFJZJxtZ71AugH5yWusF+cFSgMXrL1MckOpYbOrtUmE/j4fAJVUirDacIQEKp/b7d9d/DGZeqVkbHFD2r0yy9rwFHVr8t/Exp3ArkijL2QmyapUDFQ9OESiHEhDjxfJy+8fq8LJoGqhVpSbZihe7RC+ReBPAujweeggFZMJsTzBeSJeN9IYGKjU3wQioGjyAAF+dh3FdvHk7YDoq6pDjuM25s8Bgbmj7b/GU8Q3gYZHvq4ygob8oqjDv2M3a5300I8DXtyMMWlL5YzeAY3BBm+fajLGGwPisZY3l+ViYg1/XIAno97SrunkCDroGbf8t76PSqsEJ1QPU21XpSTmkWqOfU3wj55Moim9RR2rPct1NHOHf/VE8aqjTVRZXGSaxfq4FJdldHYZARzyWArwJtHtoSUCqeJhmmhDQF+1j03z1FP7tYkTbPZBhTn6A86Oz9T2b+QaxjOYBT2tn+r4QrOtt7F+db8aa3rND7fliz5L+7TnxVenlkOnBqVE9sCWUd0mAJCshCWUznJ3B5vdtzhF2FWW5L6J1bs1StvL7C85l1jJI9mQfsEDJ0pGGeu3vnDXQW2oBieB9M5Bj3YCmjLAar7S9JjfvrArouHwH27xchLV+KW6N9yx57rSt8XXjd4EF4pgfHCnx0hQVKL4f/AD9ro/G22rMqjBwwGpjLuK0TnqrGkabimc++8LzDrsgYLhkbu9zITY6FOHWmscaHuFRNrkN+p3TcTO8bs+WZ0+Fgl9EX8o5+TViasq88N1xOJKMFTcA24EwzL+I92vDdVIO6NsPz6dlJOl1oRfGqq1bZLgo4rT4E0p2UCp1gtWV0DEGVM60oeTKGuK58lTXsx3ae5nrpCXp2yvcZf2xyhBGeSnzyYr3Vh7D/SqdYlAZRUxOUspKvzp/eGWDFDgSeHo5A6NePpWv1nnacU618Po7U27HYRq/t18o+nJ7UGiYfostDXB6ZeSOutkGIA2CA4lVoVQQcdkWTBDzDNeaB7MCahBffM6e2easpeLnHzPLTHX68TgfOJfh/ruHUeq0MvK1V6va6/uVRUj9Ft+z2hpyU8btSfkMrr5/kMmLPVAVALycwD/pNy81wBzdNW5x5MEqKRG7kzeFyRE9fH3kBNPu+/edS0Iuw0kdG2wL/jd/0cxGbWZlf4Lz4nlgZ5YHE+9rQai1TEKK2CMz6/v/ppvJymtn7VKYxZjp6MZkjuogtkj8erE1y6gwRAzquV+soHEj1dVBdhJQ3sk4ifp4Or2Wm95d7uG1O61ugQUP95yblkfxBjLuvEaTwIywAmeRpY0G9urQNWcjRLVTNmFhPDrJ/XNdPJgYXsq4SW/qjzDGxwruSlUwR/Jun0h8vVbQ7tEzKMsfYO50UlKsT9trn+A6qcA0P6M1H7fSXxzI3xroQ+QpVa/Lw0aoyBAyIA9xGjfiTriqXHGFQlDyLoc5eiuPyBuPf+4aQ13nDSdcjXQqmeeJB2vqYl74NEb80xHCPigy9FCd9GpK/QKew+k3GiUTzIFRLgRPmReJ93/hXmoWT2Qj4fWCyttA7m+T2DqE7+GsFMkvkQP9ekjjgfZge/XIKahavCJXAbvAuwWtLMZyPXISUptxcSVD09D+2pd0dwXS29Dn9OcqOLRtyp3v6ezpKUj3l2VI2FxyN8wyfQ670u0N94bNTTUXiMeSRhBS3f5G5LxR0OPJTzP0h/BvojYY8MRL/9557VqUT+OyIYv8gtgSy8WfPNn/PzZLx3UxBhatoB4V7S+rKkOTjMT02JISQDfcNyzDWj7smye3kLTSf6BnJ2CralS2YP316KWL/ZatAJPNk5c+88DkgBy3H/X3FCisyltCJpOn5utqg4k0GFqqlm/IG3P1+VdbzB8qsP627rZfX6fAet23TD2bX8buYNogscRhJ1CZfunQB6qitq/z7zzo+DDIc80duBDAaffqTiglyxgxvLYwhZvDzXJvbpBnXZOaxBzzNL1DajGZ8sV2ARZqCwRyu0kSckjYHkcQRVLQuCr1ITR4M/z6c270Ns63AYPyZlok3RE3JHvzden1CwdMttd/PJCE8AURTjaLgdBWkeYIRkHas2xKCvZW7hM1dCz2mlVZB7wJgSRetjP93OGmsbKnpkeKlGNa5kyfRvImekjJoZV9pi4svjuBvK28azA04HpatNXj+GqCh4vADneMTpv8h6O3NNpRWk4uVGKxr16p2RrJ2SuHOTo3akRCUOWnYtI+ycZNdJ6lpHNGZAtUnOt9I/W+kOKXTZB5E/No6mkK7dQYUJrnYzLZBsgu1J7NQ7K35bl7hgW1XiydXf+Eed760YsHH6kgFccVMs/U5Z5vdPfJQn8Z1ObvsNSsDVgeL2Nj8cCcAAXZOR4fLEGjBTyR7PUExQYdxh1ZB8GGMK3/Mh5L2W7vQ9M/Nj7VqZ/ECgNUW5iU9VTYO9K9YsDExli74x6lGzTgQsI77mHxD7/J0UMl+wHTVsQS9nL0Wgdsx2/63DkqELnWG9X+RFWjWP4pjfUxwOuaJHjWsa5KXn86bHzf606UtTqzwUAEDW3AgnPPyjQWG5qmGLCBvY6Ga844s7RiNejthc/fu3kOWojH7QE5ZMgnXgZ2nAA8Y0ovehvJBBiGTCwua4noh/GJjIGR5Ia009UeZBdPdX9JxZLIagWeBClcZFacyefNHph7Eb1U6xI+K0Axk6026AfbyVX1R04VbgaxeC2OENH14bF//7b29GRYU/hZq1hx0F2SBwmHbo1G92aDdKghyGl6JG4YfJA37/1INuXpt3M80HkoMx/gl6pu88mg7drYURQuXoW0nESxrCVVRdLNaNscw2MIVRmfhMIKplpB8nsxkQZfWWGskCFJIcS2GeTeq+5BTcBROKV3YvoDqp7/HCUQnA2xOHz02lRGv2bl5fIENPr/XZY6bE7rb28igKV3AEZi6jGSWNTti6TqEX7DmR+/6BO2hD6wg/gM/cEkF8HkwlLnAUUq+lMykK8Kn6pekKfowc82C1IbZu//OpNYvT7ZJktdVlRr9+w6cT3J3LcFv083bD5erKTm8m69gnLi18XHtOsF3+oXEtZrwiFJ8Y+aj0DBLCAxhVvgu2X0RI4SKnWL0BJzQfKUcOiDixv+tZkP5/dogizNn4XqKtTV5Ala+HQ4chDlAmtRBoj2BX83F6mWvonET/ND0dTKXAMBVVzBoyHoiiYaO3CJld4N0E9ciG+qndq6q9vx8MrhwL1mf/r+9PNjH+V6ClLgp9/wQ/CergEyDMaH/h11LB+u2NVlULPqf74iSkqJLVX/hx4d5fXrpjXs4gYkt/RIEqQeITbI9t1gkT3HgTwZ5mAYjiessAA2Zqy0iMhVCFWW8Hv8jsYwXTGZ2K6Zfav3Q+SUIYipolgcDCd/qGqYHHdvPPARm/IbOXLaDxGnfvNyopSYot1U5c1L8G+HgrD+byNfQY7BZ5Ah9JvfMO269FWabdignE2qhHJrsh/Fzsijk3fkOkg7YfL1YsnvR85GdUf43ac7smnFjN4NyIK3l6Z0A6tUo38eFOA+7usHA6xKHtkxQDk3Jw/qq53LtVLmiifYq8vL6XtqDinioxFgLmhcLMZo0aHXKsR5Rww09Fn41ZYoZcZW8KOzyXpeB6LzbkQ4PZmsrjg9XTVBxR/qlqFVgcGMeVo0Oh0MGG2p4t5epSLB6bk4V/2qxcwlkrlNPEcGdxIOUqa5C3Lr2lvVeQWRDI6YO58Pn6Fj7fif6K3XjBt+IdvbZwHOulxe5N2yMNA7eAyYYkbi7T9Y6aB5MX745tEv90tdkOS22O+2RU/cJ47W/WE817MDWLoXpwIr14AjJ/kZYF+99uRuyw2jEW0xnopOPXaBA0FFDGq68if/w9wQkkbqKzatgE3IqWPZvheirA3OWX07iWMPCNAGyU2xTQthdtywkNBOdfDyMjojdkEvGGabFtfqRmXevUM3PjbtFM7SF2xbfjz25xx40E8AI6af0L16wbkz/mGQ/EpXC2yE/0R1BFpPPXYSmJcRqgmkhjptX9puPgXgdRKZYsschWBTYVtz6pM/OZ8riZhZUMuuE75dJvvREFBkLxD/YBmyffP3jdBazCJn1M17qXAFWJelwcZAxGq11lhuMKlLGoLKhdILoF7y6rOOqPHE4ezz72ULOxHf0cLg4mjdYaCcLJNRG/kyiYrckMPYTLcpWK4X60xtjS2HwTtdYW+S5XsqRQMdQ3oe2gUof+mQHH92FQBAiHrJYmrSwvYEhXFCszeKAHUxNLGYpWjlM4NBGrkDSPivVJPadhP7GJ+/f4HV/iBTEvKSkmdde7KWx2lJjRITraCQ53CneEjE5KMWK4g1N+Sqh0IoPhEOG2bygCcNKCccV6KqWC8VwTChxl9TGEiBv9x1C0ZaGJSwJdzv1uC0ZBMEI+R9JRrSYyFVU3zrgYRlz964BNG9hoDc1xZphzhU4ASF97UospwHsgLZVXWVdpq1iVUr5siN1qTmPEw37qSdbcjJGXw7C/q/Z2QBZstZPqRE62aY+M9iC1TDoX+6aF2AOD4BsoD+yort/gGr8i9nZe3fRk7loNMAcTBiErEXmvJIwv56pQB3GlFC09tmz9tU0hSMIfSrRc8G4u8YNPC2rhiTuo3D9/6wr65c4RmIk/VpHBugCULtx/XqXV2FeYLppw6XEfNHWTMOTy8ktLC2LwRNG/t9tWHipnJctL0GWrZn15lnf1U8wilWoNGVrAGtnRIHiQUDcrTJHpTqxxY+dpvqQyNbgmziBBIHoV4UivVOEd2kSPgl5nD9/djND8sOB1cOngiFbJeLS8ROYPJnQhGrHMYciVesGXVtgzm5XKk5LjhjG0OSeWj4FFBsZoYs5Hr6SidgDp394NAaUQbXRVaHOFFzyHh/vcN4dkZxfC4YERRJdIX78cNF+WgtgWqA7aUAFdTuTwNRy5tzTw8BHLBfpjYM1/6NINDR2RfTjiWt+2w8/Iu3VtfXdNJ6GIQ2+uuXPvgt0LdFSbXPQi10iilUfvEARv0lFL6g0BcDG6VhyfWCPqJ6qhXojNZH/JHs0gHRvO8ozpYeHOjq/vE56G7VWrlssCYHqDjFHYxTJOf7iHC3GBAViusjK2ianvTHWh0lu+HwC635acDJO4SolMC1ZKY5Us6z2rCATtIvtXVcKUph2/CnS1TgJoWBGPp0pEWZ9IAxeE4Xph2qsm0yOzXSvA3uMas2Ync/3fG/O6DZMXyspwNS3ntEcyb9lSmHjtkbAswYK0p11SyqVgvMj1VtLuJTctY3P3lMKoLoh2+fJEEMosiHbAEl5isevRDko63RVJMIJy8d2wNG9r+OAVDEjQwQQ4Rbq+8BuYU7PQ49xOojbX3aVjmdzegpyC4C6fUIy1iKH51xz9QGN5MlpDofihPK75x7jvJ98Rw/t+6uxM9Qvol1ziis47uS3LrG9TCoPvJg2RPKkp9cV+Sgrxw2ieUN/TisPBZXFoXtBZx5nsJKDUQsmRlaVZrscInosHL1pwyhk1+TN3u77BDNeo+uWhpT1NBYIs5maKgaQOx29mYkXqdCWUc89uVcHx3muTVCyv1/jGeycdyjYnGix8TV2Up16+Jq2jPKwySt45YqzD/QBWelmNS94xhltPvCrBPXojWWFaUW0BD96gkPF/4zfKTeL6GyboD9dwrx2Y/p582S8eNSuriPaGfXY/8YAHBvEh5+TMUwnVMHl3NnxE8rHXb4xsNe0Rx7CyaY9BB4/FMX1YZEb99r+Myl5gMoHiYUChoviGBJTltlWScHmBiD2aYer3k06VuuiWqvhN+FSXc/NiRutuiEszn9QmNmkLW2yk600YadxXRHLAyLm0Wodb/5nrl4/Ynya2F5CWVQE8oKslqEHsI8Aqqhji4robf++1/X8dv+2d0Z42HWuw46jO4wUikK/L+flDb452ezoY5yrpdZjEdagNgxHx5hp2wwZIEG/cHYUS+1mV7/Tm7H4GNeD4LzW0Ko4Mad6LLiKQhRy3y3rKgIfLVVKl6BHTP3i0mTSWpdS4Dklv1k8ct8TJigvjdVcIA4qqaPABDq/o3fQAmg3jnBxhg1WmmIaVrFqSi0FF7m2vygLPQE6fp3gI00Nr5lXRuv6F2P2GlUekGs1ru7WthHOSvL+G4DmkEJYfisxKcvHJZCtt4GE5OGVfh6x5iIAECa/KqpzytqLQNLEQUCJK8IC92PplL+nVtudse7Him9RkEVscNHSIwcYu8KHgOSKyw4GjzkHL2Oa4JCRJnAJIqo7oBXJYKRdVNCDpBmSBrb4JmypDUA4GolTyYYd4JUgiL0rSQwQeMnWnXEPkyiBv9y84WpuzG6f/76HwxCoepxq1OuJTSJ7wwtoHIn9x1huLV14p5xQ6MrC5riegH28lVpcZwtMAFobJwqyg9cIB4B5NE2gnpJKzUbXq4h5llrp5LX9GsOWE/gvkdjJi+hl/VU9cwQy94qkRw2T1JTXC2fjTbB7lPQNvQdE+Ph+roO5hiqiyRIe9AQERELUonTxtA5mGVk1ceiziBqND8+1S6pqKTtyk0ujgzH3C04HK3HSdKWtLTKUpNzs3nufOS61fbtIhmP5NHdf9qbfLrXQRhc+4DahqpkTSulr8yj1nt6FFwailRaOnW4i549aAIuePWeowSgAASULJqFUMDwLxIMdLDaTj5R6sj4dvIAtT0YoEiKdDepAV87cSVVI5+RQ9LYFd5X/bzh9wLlbVFXyfPKV/0bf/LpTeiAw7qRZ/3SDx0Gdx/zZZ6SW7VBat9f4deZj1ip5cBeM9oKxXH/DAv2GAnL9j6AOPyy6na9xin4ZKJCx8UDkBudZOc96dhIsfPfLT0LJ2FeCaGBMAs+xGA/rDiaTBFwIv3L0ysrk55PXhYPOvc3Tb6MV7ZMOAjqIeORjlqE6QzaHGpzyj9FvPEJHHr84cLRRLgELpim0vd/9hHtYWw4Mx7zmsHeQpPUJYgAmoV5GO2mSrv2Pu0O2i+qVghxAxJb+iQJOavtBGN7o9hvZFVOOpZBhGibipDAHdKeOz8HaqiMGQmorzRZ9nr1cHi35A49mkm0+sE4FqBWFqAKip6VZUedHHAvc4Z4CUjHrTBY19aTY9sL6A6Ers4Uo5LV8slHB6a/LU0qrsvfmh6xva72wEQfg/w8UqnGovo4PHMvUq03kegPRaLSXmZe56SI91X1tLW/S6K133nJc/U77bmoHKWX6tFMh/MjukyZe3ffkcEkRjxMCyYCF6wlJTjWNgIi7aigWpMFs3jRCOaZu1OuAFfrVH84igNybx3qVvbMY8OpSuGBgTaMJpKhD+Mn4ue1mM0allPM4PqG/u65do6FfhXq0nMr45Duxt1jN4e6KIxTrhMHQKuyc58AEggYLkK6RAT1wAdF44U+5ul02DIUCLRifNjUMUFCgn5X/8+s7NjWKIs2EHtGQsiKM3ZsURk8BTb8aZ4K3CPJHNBNh4957iO1t7gCnj54O/IRigDDKT+6vuadjVevLbZwqTZxh3gCglpDeK/DJ9Kjlcb7yC62PogfRYDEHqJ9nf/FEm+3jOViCHv4gBUhmu5ngeZYRwFgAzVlOprIs5vfyQGTgDR6cdSw/AgpvRpp3ps2m7eQTe0wub2t/U7+9kKgxnz7Dh5GQb9S7XHhaG2ReE9B/lK3Jm74B8ApkQBJzwCgRpF+Vh0SzTrnfuU6zP46UeDcAwMEklwiTNXzDaUZ/SXMYVP0ACSAg+pFADf02ZAd6Sm4TS3wuh0v9Q9AZUVmhAAbkn30GRkumTagzWckhjc0NtUiwJ/EJiWrnKrmx6/8M4Idxg6c+01dMG5BNJywp53/WHkotF8u63LOAsGHA64jtJH1OVSGxsj1zcVrSLVLGib5f2kmNPWeGfsu4HfJoMlBcEImEEKo8lG40oZhBQIWWrXdjg99impYo6z43e4DgKcU98qxIMWP5MAzOGioMxk6064h8mUQN/uXnC1N2c6GpepL5UaJ7acKtcmiDO6EVjC2htazcbMaXs4tXXinnE9kiEwocKRoQatpFECZVOsAJBqapxmThi/0Xq60mPQeUlnQCgUWj94e7sFN0t3mYzHi5JeRLywg0MdDTpPwFZb2fyP2+uKRAUMZZqX/O+ZnksGqI/nsTPpuI2fU40CUXJq1adIbj+BDgSOuhNY/NxDoGwL7J86cWsuUa+m4rv2jjKiVOBcTAUoZZ5NtPfq2JwGDus/ThEvY/LRzhMKIz9Ou1qcRX3g8msXJDdT6sHzuvn+cqXkRiOpU0t3Dh0Dr/orluAlQPDwHGRPJkMKq5tVeHWRIwWjp0KpNIi/5BIQJ2v4V9IecIiOmJdCehVN25gM5NNTuNO2BMcY0CskXzzgZ/CxmrAVW8KhMZulAdfnQJX9L/7h+MgFRDJmj0/Ct29ZGTbj9ZqeSTrjtlIWY2NWBGcXRzDHqgD2yspkRmNFqKg56F8YCd+KspMnyX9dmLcxikmNKwwoRwBBQC35dqjFI4h+tHsLpGPLN0RpvDWzg1T7HH5GS7nwDclDbXus15RE9VnVx5js0wHi3WULbfRgF+9kigPgdGSU4slK+VWVcoUU2Hp7m+b2f7OgT9uJdGLTEqtW7B2xL2z1tXGL+QSzPLjUMU8dGzCVrZq9UvzzI7mZmFkADYopOdy1ypdvi26VtjPgtx7vuiknqkSEKbPGjR+WsmVbWi9cQG2D38jaPzTnoNMdG2GcScx3XOUd9AzMUxwPWzUuEvE+eyY7kmZVZXqG72yvlNTkoOSwyFFx5BFgX2+V239eU6rywrX0bsR9+4nZQPWjfbAboJXJVvbZfM4862oQdOk6WgcECXQKNTcHfl69rwGrahNfNSBAetYGFCCfanUV9fz0+4smcknyoTOWOU1Vc1ltebOvbsULNtLy0lE83qsQSuQJUywZq4kZKAW0zWWNTVlg1FxT2qpwrNjK5oog1KZQnIzzG386ZwyPNOCZpt8oZu+rmU+t6AMYsj3xZ4eLUAUR3fBBi6i9VQJHH9SpFzSGjFAG83NBlKK72JfHMPX18EkReWi9hFL4VVOM05jLks7mOC7CJabKyJbSfPjFWwQq3WkvZn8CGzmpQ60cyrKw5f2qKtvH/GQDsd6NbjAxtYh+wl7eIrrMmqsI7mLFZ2xrJIGgnJQ9hHC66n7yzhW6sCo2fHsDKe6ifHeRY6A7ksRIkKlS5tmsm1uct4jmCCO1HKePWna1f4gvYJxHMVfwgKGAMGP9/VpgDIRTmsNJze8NxnMpAAbx8pn153TJr+VFbLa9q3UdJQmZ/wkrHoh9vxSrQqq2csBznBR/IgblxKfGQcWxMw62BMUnNymoJSV27fSm+9o/TuUE63rNXKHOUd+zMUNuGtNRv/5+A4bhHwMS6BvpHP31UaXNcT0REDjW1PuT11C0bfI15al6kvj7ha0PU620miDWA8D4TzY1HGAElkpBbH/PAW+WcREOk75ftRHFNMxLCrr9/+/Ggj9n58R0pgLAPuSuYAf/42dkICYwVuUK1J4tiowYITCiZ9SZmpCvYbh0E8hqYhoYwo587UcDHbfKn3FH0hLRIjTNKEOj9G2rh3B0LRkesyyQcHxd98BEPCXQtnyweSy6aXtduHBEu5qgLuk3e4wMZSVnjaqrwaFp110n6MiztpleVOm3mxMypX26iIzoo9OLjzCJfqnDFQ2drhrXh7r+apavrpUn3ysHuMFku2qTvYeVPzom0G3lWBS54iEUSuLtPjW13hyllkqWyLrKK3ATAvZp3hWWuG6TQShUEsugbh3nWRsD3n4/eWsopa8B+tAyxU5KmDSMyezLkpjiRfot18dnN9kezgXzEa6bOKGDVf7gMckfK3qDxuPqVM5Z5g+Rq5QqYUacKpxFhDiTGHIN8P/jTI9oetFFvvFnj7rQET6sLglbiPQT7Ej1+GDRjSVrIwlZH02O9PpuAS26k2CfKD8ojYDxetQ60T8V2COD/Q/xhTFxXP+cISkyx6+IKTEcUstPSpAVZ/iD9N0X2AQGTC6+bUc+UTCcNk7ztujRXaofALK8tCVecTyJ61uJ0Pbj1hLpkPF844c/eU1CRrLijcwelQ26rb3lQi1PosVeQFcOFHeRMfqG7WCcKAGpOQHHu0p4DY4q73CDt5PEdz3BRCTDn1PXDbHXPXwmrHmeqIGuFJWYPKnEsoHRU3x+rcoiBSqKrosIF9tiq9n160R7eTobrcAajwD+nvRsKBt0fy4A79aLGkXDauTnzbor5vIwgzzEek8D0eudaXnQzB0DeaOWQHd2HQdT3Q/Ca9v+9lUqv4+Ri1e4bWKoqgU4rbRuf0KNBJXKxSiFUAbLKYY90qoQ5ARElWxYbQmvG8IjYM8Vq1dx58a5JGb4SZIthyj5D5ZPmJqTB8U/pFquo00bY8buXN5Sy/98iItZeWcV+WQJJgu2gXlCIftipe4VJwLR6O8el5v6JS34GS7rd5z3BD0TrZXu7cox7pprhiX97Nlk7C7Z1Dxhvd8tQMwUFgu8jU7UyN0qX6dH0AU7fRB3dd9gLRPGwcwrf8yHqXPbPm8xiT63Tk2/Si9YbCebZ+3o22x+GrPdhEHoDk69/z4PMm5zMcGqLdGWaJXsTMSnHp7LSjko8rLJ6NGtR/UdDIOXACGxBth/c0ipZDnRcu+FGHb+LGbOJbsiBYCeIe5aQB6XOLZRdg27+fuGGDtvf5sqAf7hD/QjEXVRx34H3sm3xiy69FkFFqW6ravmLFqf4CsImCU16SeJ66op7fuAknIg/+exDEiEXmulS2YuBbI9aN0tKkhZS+ut+WIj/XLw/drwj43mw5A3TtnvJdXyFQKrIh69r66Pp8FInFtG4sbSpV950T/KXBvB6CvrvlJCfSsjAzIpcv+nqnbkvRarBNqteALdgr5kKq18i6vaRMniOIw1LYHN1eSctzbE+9dAEYfQn+zYfCaCctaaeiJvB14LBzfG3hSf48SRr32FBmY1C/onhuqW380idYZaKt0mlBbAAC6Hr2ZT3/Apbdvq3ZXElki0XLsVyc+p9wyMPhahq4uIp//0IQreuytTrbSaIU20oIPsd9m32T8PFubMvaxAGmr/yT7Nds7KPsN6d7XRGACYRwxcBnQiFzo+NBq3DzZBThmzwbYUnU52EzCP7e+gFAlpyakmkwt3aCKhqDjfrZ3ih78xZpH3+nFTA3QUZkXDtQa33M1WN0vKtjH6138NKPrLgquBCLvfuhKGHPDfP8x/WsQOB9KVkWVTb86su7KocOaAZNkZ5hiQsEFUkLgbjKcP2/fdWvL7XKOyl2icvkDNB8yU0eUFUsswnFuXlWteDdnBxhLlXS1ITrJCXmv+ztN74sua296JrVPiqPdzKANKb+QjfPi5ITDEamlYJgemoKYyZDZEu9+tm3o7ttGAzhIO4YrNax8NcTGZ8ro0v4T8ZbZHcWR+aRD+BnkgapLCqYtiaZNk8y9tgMITqZEKg5cK9v6dZULKVPshWUFK5hie8/pgj1+DWw3iajkLOmEiLDwzq7suJRbtj9s4Tp1cgC2XLirCH6UEZm41c2wfOFTu8mjewjqpEv9tofRPxn7Mun/86aL9y0EMDEAtw8FiiRIXKeuOAAAv+nbBFsCVgUqtZQjyOBTWec8lz7oU4J1r8tp2N4M7SiSYHTwvXohS1iXxqYCwL0kCepcQP+R2e0tvIrLl0LgJ0AJTv5vDKgWX5nJOIkS2IIhRUYwv4Gt27LXVAkf/h7oZkVaGVEHt5KCWr0ouKPY/zp7hxW9EJJH/1x9bHrR2H09msxx91/hn3UGpbJgnAm5NrnS4NP/Wzmrv+U3k4gvaBKC7y43HaDR7Z+D+lpXsCjOjnh5rtTM9Eqe2Ok943Spu9MmC8+DAfFv5ba51Uh3634vf+p9uWTaEoSu/Th/v+/cyA9SYdgklQrk3uPmHXIbEO8su3tIaa2m4BV04ZSULAnMx+YpiMjkHWLIWaxMAEwzhmttxAG/Wsi+MF35CRLvHVYILiLxO/6U8zb3qYW4itWWagvVCRgNuDPAC7AozszjjUGfQ185CD/SAtpBkgNtV86rhVdrqS6agngAcKXXxn56rBcCHShVSV/my6Lp7dwVj693wzVUKaKNOZLTdj8jx1KxHSKNzsGosps4evhLOVoAH7x7aJNVE5sEvFvCRjb1KWNsihLyE5eUJY8VMnC6YLx1YVLMfsv38Y+b8uy9xmzcSBwV46pCM+3dYaV7V4HRJFIMl1/QAVVHkiCcyGexxq2CyACP4hFlr2J10AaXYXvPfIBkHprf8Tu/lBFEndzUBX9qsTt1mnPrIsMhgPydesh8td/vI/fBsrpJa3D8aucDdsOCu5NvWNUepGYg2Q4sPz3OjxrisiVk8RcPZEw0B0kzhdn3feVC76jXJ8lqPOGGvygYNeRny5v+4U948a8eLKN1e4rFRSpkXRfVo4owHT/87xDVRk7f9Q/cN5S39hQoD8Q+i3NM3bHdGFUw/oVFnF6SQ2640n1iWLd/Oc7VEhJXGbxqJOaheU1ogTiqVFP+1dUjT2k2cbYT9L7LahQC7qgCujLDKFXOQgDgALy3xpUDXZ0kSOe+MulBB70oh/LK8U2nyklSY1qa60pyX3VLakjYoNIt+mfI2wjqf/9CBzkxeHqdbaTRBndCKzMRjPpYw+g5P2xoUwR8DXlp3guWNKL1sOBFbLB95qiRKi8R8qZa5w72f4HrLnx47zH5V51x8KbPuwyQ5s/0S1Y5eMpOrG8H4fzhQnPmbVwsOhNQh0Fk/lZqUkmXy5sYStrfFIfoymEq29u48FjgWiBiqoxkzHqK050aQ3c4XqVfhHrTW5Qi+U6OjzGorL3XelRIYomKEYi0aZG8oey/uSHPs8j2fPkFCByBspfpZSp1y8HHLyicyRLwU/pYzeuyKHgtOvXhEzvYAqmzFoyEGzHlu8ISdXiQ/7qteEKeNPqH2MnWklNoJWYEN7eRYIDC2gIdUVbuwvLvfWYux5XJE7og0phFSsCdX3GRq9w429+kLFZZOG6qsydF2HBY6oCN5BQPOw+auPNBjLCMp2nLWxSvCAUumqKUng8jjeuiQ/tXNmp6kj5dyDbYi6QF2fFnl4OhnemAWsVMoRSHU4cyC2I7DqRvV9gkeXlUtsD2Z6Kcxa7zTe4BMRNKAlNxel6tmfXvTLNKsQEGkpbtoCmr4GENcbcHDaPoiKQ17sk2WPF4jCCIXE7m71zdwNvUg3bn8WNH62NNdVrZVj+lRw/eG8MqRuFPe6nvA0e3rDY6iV83zgoPE0L74911zRRBzpD4ZEgVeJs3o2zaAI+SfpcRF7ATmEAXV8Io6mPSVKvo6GD12yIB45hAJSE9fl4KeH70SlmghjNxvtE+IlYZLuD78vpA8tDJhesKB/5aa3FGti75cwr7HAp3QPgUTRdnzAeJAEyYFZYEGt/9nXFFFEdg4jcqD+H8lDAdq2dZ+yZ2QjC123n99HA0TNjhjUDdG48yzQ3bX3xQuqtur4YA20FzAlZTKk4X/HPxpyYLn6XIeiKFYaD9G7L67b0Lr57xh38tUboGDo6InIH80QlD+ibsJFnD9soVVgUQFk9Gtf0ScM5ri6eloUU763V3/KfXQiuW6oPey2ndDD8OauEf3vcebFQvBNUNGH89R4Ia0fw7/k2c/cJ8V+HcieF0GgHhHG/yFpXBHcJ7fWXUNL0hL7aiN6eO2lXts/eiZgZSFFLT00nbVvWx2hWT8HqZ8MskvOLtFBP2uI59Q5nxsUg5A6rM5NvIm68+p0/YIZ2aY0MSwOVMQXE9W7Oxe2GV2N3SEoObLkZ2lqpxAF2I9c+QpJmx5zWPYI+LdKqDiGU5iAQ/4aJWelZvLHHd8b2qMN6Dz3qpPjnw/rZLTVqiZ+tB3JgKrpltJISa1LoGam6NI9XqVXJWgv/BQtxkYjImHkmIJB0ksV75dzBkQT6hLUsWnVvcp33ytEeMQzotwVyI14oUv3FVXWRbU6JbEBR0kX7evCnJy1oxMxgxqkf6fMABiHYaDgunPZF8PZ295ku5qXfOLeVGkqbRJStwu+VrZRTlnBiQN415BOpHHPtZN50tpFYA6F5t77Fm6nD4MWa1YZ8YwuI7nT0PDwPWRXMdttTg0ZTVMyAbgctQbrstDHru1XUw1R7vW2pfosQq5JYCtcvCseHASmmBw8G+xctzhV+1490F+CtrN1HqATueRmToGOWLMa0dAGEb/VR86iRL4SuoEOEj12nKrO2eEit5XnSEFBxn9P6QX1JzOIJAnoxjqry3x2rrEPrtOovrbID1NN1yrjgTS6H0dBp3gfpC/YTiWZKWr9kDYQoP3ZHFR4fMJV4lP8GrZG5bebOg3SGqdMBv7D9+xBTMCcQiFzM6bINoszPvwrvXx648Ry4RNUXrebcRobdIZmh4Z4Loxc3PWSKuMIAoJ3mzq/Dj7NPQmVA18dDN9weAbGe0FbdRvhOnxlLUG0qkCM/lZuYAybp+74vLHZdBUDvyKl56tcA3lVnqLkE6Qnb5R5NMiAIMwObQRiqrvzbswWwNLiQyRZVnAwDAcu0Qp6dg3PPR1qqqJp0gyN/VaI3SL87zX+HKWaa/mtuDUtgU1tIJD9KJzhan/50wQUIrGIXiqS0IAizv9N3+iNpcBWmE4et+gbSLe1xtH7xbAH7Czx4aJoK8VTsQGO1COeVOaYGcrP/4d40SjFd1gC6pdOZ4QYLFcEq9fKEzk1xpfah8qNbB+julFysTNfgk+zoVvcIopR/unkiOTdOGmJBHOkcXmDkABHfpiNTrlHP76vQb4fXceTUaT04FCNPChRXYNmNWpi0b0uawfeE53DAy6HhbOYNMTru0uB2GcFgoh/DiEacmTcwAc5Mlm5kmaHZ5SZB//xsddiBjYYEY+a25H/P9gmmqBrZ+1Nz9DkbMoaOakAG7lUl5jm4T2QtHLbLHasuYAnb8w1IXJXH8D3WTW10/NUcdN/Wszlvlf3lTMTpwGq1L4slJS/9i+wO+EfQ1ALtAi3MHNrSOxYDXo/QPUvaoLVvr/CL9AOvbYxIfyHEae981e+oXY859F5pHsqrqGnhuzfXaUhd240lypiO33HflhfmZhvd6uXNgQ7rM+aKgp0rq8jUkRkDCw7kxTq7YsWHRvAHqZgiwRMKkTf5WgXEBkq5yWTfc+tCktLzyKK1ifPPNz5dImYxHEVvhxUN73VqsjSP+NCAvtO49ILdTRKWpV3blP7e3s1MfHJlbAdoQ8IoM4PmsuaHLqWJF2hlKvuO7O5/wwjgWHsoyw13+4U5NdTUFzKKTRyKQv0gthO/olzYgg2XDcIz/O7S8CI7WQOkl3jy+y0ZHk7z1mPxGk8vBXYb0bQaYE2F+DCEP85IK01kcNwXVaNbwyXhApR0igFHn9O5dZpDY4pC7QPHEEG2wXlkuVAGPqAvypcs5YqQDAs8zRaCJLL3KHzS7T53AzF75nLGkZEKdaJf60pJHJaZJyaUxTLT27MbthJXV/gDH9bRtYtxr4VOQhaDzSv3Rrj4GdEo4VFr+VFWJLlcwA6QNO9dqm4lxU3yoV6HBsr8IUEsNRtO63q63w2WV2xZJX39iGrCCF4ug9wJKojXKCEbaN2h0U2VGwrnxSeUU34chVho1+9wQUj7lXv0WvwA56ADl98Xd2Ogx4vg/mJu0DOfRA/h3XqPEj6qjvCrGkHxNmsue0Mvardf9k6bJPvX0FEJBW9tay9ZQ5kXAvJA5eHB9/mPBj9H/ZjaE5jxv8w09mbfDmqHcF5V+7A8jSpwtQUH5hMuo1J7TB2WwRulTCF9xrvLyV/XiujQniMVfolU0mAF6mjCpoR9yx5pFt8lIIPODII4gcHtmFwzcLDBzSXKOIXS2B9fGxMTLrhKXoYS4a4CJlr8KXR3hDPB6VdWibzBEQDZaNpuMRMQ/Z5PgMhSgBpYLW0Hx5bCvqXAzWa7Qt/bVa/PcGz0lR3jBUFVBbLjGKkZInee2FYQd2N4yEnlyynJ+HMncbvLWham0EpduYIXwkQ2ZOgfH9TxRISAs3QxdNdheD00dPK0EcJnPow0Z3YmuaCsSyfjjX7GwJgAmGqM5DVBXt6XiGaqfYHLGl0fXUwgDeujgMgtWWgFJ5JmXcr5FB9HE0ZGhTqF7rgXNSflrSBHce92j6akeYOFiYJ6mrX4TWd9rAqXKGdUINYdxQ1pcbiILE0rv1M7XoQNt/JjMk/P3N5GYijYyRtw9kZsyFKVZHgQtIsw7s3oHXD/OGKabFI0aGejjFoBi0HDZsiwTgDWBgfTJ1CdEKHnr5nLNSHOOSb7ZcHkfsVHE7tvBMc6Ay87gAD6cSekvvbcKym1LHU6OzY4D6ISo58jq2rPsvqO26yUnrIbEy2gwdHSbe7Fhi6GNgoimsJXazj0d4noDD/vy/umr82PhQYZ2zhs95L3BRlilwd2BhDFYe90PjcPXNIF0hTnxsBpb/G1zs4jw/r4hBwg7ntjyc3PIeATsEZ0WbxdT5i0Hh5VgLUqvK0ZiDrE2bFYy6GPgAyW93leUsKGyAopJwbTAiAPu+COXmc4AzSXX9Ij/acgUR7Ge6WX8l3ikiIh3LKO0vnKqpGKWU2ceQZAq6Q5AVaDVyCxI5CrIWy9Oe2FGzf3jWpVndHuWEqoHozxyZkEHrTqopxjjX/rY1aKdBoJtO2JaglpAFimJ77Raj8n4huVs2zTCTNRRez0hiFHm9VbHG1zXOw6ycMo5EPtcB+7qfgnq7EofRJpfXPsFoe//MS0F67q2wzInT7q/lG0iz4jkNB7a4HWy5ZRoQN80unWqM0F/6pgIPGXh7PmPMIs04Bu5o55niX6TTQZH6NNoMnqPSUbInhTqsBvrTCv0sDL6j0Y4xtcxtU1kxpnNA2kjoaJT4h8iNW4dwbBeALjmaagJ+5b241OuUdfGJ4qoNnH7SaTq8cWJvBc0A8sYewbhao+FCvY4T5y8g4rHhq/skb6JXFzZw6FSFKBt7ebQd67A1HV+5cyLZKlLHCqxXFVv6gEN0GkJRrwQA0nXPRGrurYYM0xyYQA0GwdDAaJPCZB7Crc9W2XcneJ4jVfOYelWWprhmEDI6vz7rV4/OByJ/uJ8qTp7oU1OwAOJlGL3zyTrjtlIWY2Q8NT6R4gde/yapHFL3bHS2JRz4Oma6fNyfpGPkLmHFmXqz2ZPYzMv0m1r2pVsqpWDa9HPv23OEaerVJpRPZRIU2iA1ieGiwvG5XjUA6SVmtN5kUzfWGzJYlfN84KDxNDW3rHH0ig7WyHnjCEwcM+P7txvq2HQ+aZKw3JdbcHV1P7BiQlT0YadEynT5WpomSgzSiTt7gz7IanSlUENOw3MTOthyU2fGNZ+hsYkMHJFaQS+YDlk0tWaBanwPtjJzZZ5Z6V2Vq80RAejA34JOvUi/X4TgKIsqZ4VHcChNXtVpL+fPsSu0AdI3F6HxDbQqSh2QTax6Yt8LALEArAeTxZ2g7Xh9BoxUOQKu2gLmIGck3HQBOl9aah1o/peCHbXFgX/3DouISTNX9n436iAuuL8hFJ7wT0ouJS9lJoZXz/jCijE5aHCH/9pg3/3ysljWvCFx10NCaOMEgk7unjYBXFOfmTf4KpH8NmHjIWIIXKkyHcsjfeYOi9x/OEK5WJEzLAxkhTRaV+Ya7alqIt0UCsZmAsE8CPGtiPmINIgnPouBeNj8zrPf8b5VDaGV4oHrkXePPyBaDtHfFdc+L4yi09gfVkpu2RQ/32UbBN1TqD+OhI8FPgdprxU8/22+aynX+6vPBaUyeiTIO24C9ckTVbGOsFyo9bzfx8vc0MkhuMspoIHyNW+Rth5IonLFExb69eROjmvcN0LGgae1VIo//P5vvHe6TiSjrDnlB0fFHTNB2t1CoVMHI00yjSxIsXHDsWqPtwdYFQfu+FtrIswwFgb7+F6wDQS4NTNecykP8fVjwDZnTpFW0LGb0Wfw+UhUa25zYcszs7lJzNh4978NlQGBdzmz4ddd5/pNZTBQnMZhEeqloRSAYPZaDVLMlAwtFks5PqOgUUJ8EQnvfYtVc7pgFBa5y6dWLdzWcgHunxncH90Bm2WyR7gMhZGJ89cmKalMuNYvnfTjK/jvYQbGPyvLOKO4gX5pRNTwnx84EwT0PXOeA/zu6lzaP7sK2mnrHJQYH7y2phlP51VUDELWwIYjl+dpeF++97FFu4bQwQruW60p3+Cv+zzesMGyH0tN6h7g8wj6Rwy/ZKHy6vZYY9Rcx78soafwgGNrgucx/FI9AarwEZ1GiDr3MqKb5UvoHoM1awx7p25yPg1Z93dmyGRNpXEJgQeajh8QRDX+SBKE5uYOJcH5NaceSt29AtQ4qoLZAnBUZcBqx/RlUaUch1tc1pwGHEwLHc2UKuL0x6/Am5pX9E9q0V/3AQ/kxuent+TbuuUX10/kfewlzctatmOw+mHjdxgSc3II8zqpMIC9yz60FFtsEjl9x1huHGj5PB3oAtBqrmWvliuW4h0lHa2niL+rYexG+IhnukKHBrIF8OwIyz1z68T63qOr+QWdb0mxsWN7CCIbgYWwDR+D2FquHC1R8KGL4FMLhqlWL4ihpHoxGNr17LV5o65Kv28C83fDpeNJ6ResmTg0gAPFnKTKpf5YUl2VNl7V+uLDgMAQ/Xq/t73E1bLrKRP5Izc5p6t5trM1Q+V2bwZ1YgoWoILAxGpTr7lApJcUIHlKGcacDXVi0i1Xn99J/WfoAG2MqE7F+pQUurhFiTFdNfQ6Haemjg+RVKUXO9qNHT5ZlVF9d6bD3F9QakSzogB7pu9BExHrbO+g8iorETh7mi0dBpjAN2prr0jrzJrVE+uDCQHNXCDpKc4heCLuAAgrj1R92B0ObI102IkCuaYo0Y2KOsvZmBjmRxVqBXCjd0ApKpU8OZSfe9pnteIqWefGwNv8YvXkKSDqNQEpCE1KIWV/+YVwibtxmSjWWo3gizSWflC4ZoVKxA6DJFTOLYybHs1Y8vYS2R/xim2Uwj07ovTuz72RD46/dqMtWoN0lq/a4zvU6s+CMiCl0Cr0MAd6yEXyl3wTlak1ltJZonQANd8wlVHy2H2A2BHBRaMZblspLlyozUmSzViYjNx8u2mqBFf3MIAzldw3TaQuNFBuQE1onsqZhYwKFmQpUTzlmT0wFkT3D03Wo3oJMBH3BG+v3zsLL2kGUNd1Blr7MUj0mj35uZb0E3ct71B3Mfh8bY98Z6IsP3b0HS5hNyAITNHCAGSfvNB5WaccwejfRVM/gSZNyBWmqzFXjRQkN+bcPVVjD2S02813Sf07yDJ3rfr/Bv7tznj7uJ0Ccn+yF2oXYhtEqtlB7YQ+qX4gP8tTyoq9D68OHQnAhKgSfV32aeXxLCDuKd14ntTRXRdkatw6IJmv3MGo0w7K/rG9TFQDIE+zhStg2kbac7oTFJQnQGhEgWFODP9KL6RBkwjlfvpbLOCDs03b7NqifygcUsBwKJiC+mBK1ZVCp4EneqE70M/nFdflonQAP4canapqsbw2dgakOI5aHDS49yeI3ueIGIoQ3nd+kRA8yzQLLYtcuTczNheIwwF89wGyrZsTAsd0+U3A0iKcwjXDcHTS1f++iAhaAeIldMDlYBXLH0MWpvM5WmySU9PYT0Y3/U2/B2D4l/VUsLnNnyl/NGljmN+wUkkwGcLzDTUK1ghfybMN8ATlq+tM7l3qgmB2hji7tH3qn+6JtM0obmRn48/fwGM7TjpBEVyf+sBm/eKmf/w6DUWP1XA/2pw1kP4NugRupjdXkcaHkzAM6if81CUeqSHPCyTxglFBduldrMfZhcsge4OqS/nYu1KU2D37B/wxmfooEAEi2Hhx/UR3mmXQdwEfoQYFijVnPd/I0/KLGyH6VsXIGnLdE3z90Xoxy+I24+qjWiNzYo7Qlwg/F3pqZWGbdQT2NQy0hfzO4meiLD92Y2wk3/3Jsoeu2rC1/yTgo0GD8SHPnEqO2aH0TQtfhFyKhi1DHhGcxKNLZJgGrDO8JvFJ8kPz0y3NZWclkmpCLu+xL/cCMisAoGZKxw3OD0Qfft6Omb9wdOldcBPPmUGMbz7wG7RI6UylHsWnn5pTyMWwckW0w1DU4KKaRYDCf+2bAKE/p9Hq+MRoRKKtB6S7/W8mW9CWeKGELQFMevLtHDkJ+RhwfVzEecvlzGBwJfdsb7OybsYAqgOZmimqVD2XbdGCbEOCOmfg5Ipg006Ih/e7vu9BZxPJXrjsOWPQi7wA5r/NHW2QhBtmcIrCv6fVtZCm8AW18EAsrKRev+CkD7SCF6MV2ENr8cKtunkVURh9P9yHxTXxllWI8dUGxDJTckr+Pz9Sza9wlC539OdWCw8NYNlBDI1HY+FUidYu4Ism3W1LoBZ6Kmi1QEiPWsM33cGHtpa8LWUd1TypC2xbNpOT4fv+wBOzAK/kSRMp8cNqOvZqrFONfAyW1fQkEvIrym0/iP+A/i/LcpZqWkJGYYfMySCY3bCYMb9OfewrYVjWy44d7rtBsjedvsdfAplDVkHtrm0T9rgR0+HcrkOj+LnLB4OLQen5jqrh+Mz/rayC3UeNoF1gsEhpUIP3o+qqeg7cyKv6LUxJJTKB7+TZaLCMgZhP3Iu7q5Ji7mZAZ6G2NRHBgDF6y9WH4UsoipleLXMRvjPzHXgAAIicQBpQeu3SlviZ07w7Ah3Y17qpK6rn4d1/zyK3F12qp2DRobLUXsE/Zjka09Gp3OZij0xB5/kFb7Cdvu0bh/kAYe4kE+ngDCuTBCABxBWpzw7tdlNcgXnlDkaAtKH82+xhK/dtCTVdaZDweVDGlY/UwntR9eTiEB3sNjUndcnDRctIyPvC85AL/GiyKLUkJ+Naafd0Sk7gD3PDkkUX1W/dRbAaqOfzLtnYAZlYnrNXLY840SEalZR42u6czK3ZykoNkrgUnc9koqWRx/b0S3P/H6MrUhw/PllrVjKbNJX34kGqhc6cGUdfEq6NRYytWoo0/GUgS6fG3pZGemd7nMv+pzya3OuxeV2OdHUpI8p7RBboR0GjWFKBjhWsz5txwsg7ytXsi6eaOqU49kw1WFfDRmdYINaUInG3fMW8aCnNhmoU7aq1YeEfbhoqxSuPh0wRjZAA9obMam55DQLRwusSiE8uwpLDe4AfSw0uy2EkqQVmosLeScoIjUHtDXErJ8OqQoyB3sIrxAlCrdZWYSsgJf4yNJ/rZdiVJrW9U3VPRb/nYKKxl5Ofq71c8UD5kJ4CKZroISH4ShcUh22irpmKYB5knOxG+aqiJ41GwcP6Ahr9H5haW1iWSS7PzwmE+esQpndZVTCIp8TYwMjkaLNwrcNylpBdRRDSDEq1tN74EvF1owhb8L41jjgBTAvmjcIFtVbwGgrMm7TqJIj2S6GFDMniBiyKK+BHge0TrOmQqNH9SmE7OvAkO0jkEeqFPYIa0eeeQIqA+UetsDR2254Io5Cj2xV3aR5IgyDLA6UACiUrrVeYUdcmLwsePyuhPU98f4eBeNHxlazhc0cZqaXbYJfELRontLyb90iO/aYFM9pTzkIk+GU08ge/4p8WcevI0YEnASY5HC/IXl7b+uxI4su5LvdHLi10V6NtQ4KK51KFQ8JpNANyNVAFulle9+KwSph82WOmmzC+9bNnP173oCLbY7oSC4COJIonavrguFWq+guiWkJlG2o+AAoeamMqKLtoGKo0drNSHrj+CpeaHAnUABREU3SE6zNTgbUTQ/ZJvbslR3Jdr6mny+OEw3/5rhNhs5V43QHFcbWGeEn335vIKgZyYxW89wOyoNZ3ep8IwndqcEXoaKnBMYYS+Cz4wstUXcD2tzHsVqQsFySXqPtaa6cDprnLTwWc9IxzB0PU0xHKzQwgWnBbcOPodDJZk6TLygKzGgntrfQoe5GBJZdfYwVooEll0qje4G8xBlpTAABiy9KbVAChAlhQtRLOuTE98KS0boxDKERqqcbPayqqFaUBgMJu2NMGKTD8Bk8A3J0ImTSJR0Jk3GiifyFSX8RoeSzdvhbQDs7E2PyF6dS4I9xE0syPRsbOFI/g7jTY/pGtvQOLnHa2/iTDMLM76Qgm/S0ahw3pcLEODsoACKgANx/XqXj5qiXfZ59SISTrAxVBKsEnBslnBBmM5Dj5JYY5cq7HLl08aDzfM8a00SS12kpbtoCmr94ypqXzEyyDcjrAIWG20KvooD4eWaqfxo2QREODG3SQiruebttn6mCWGSlmCRxLeNaT8YamBWgv96KggW8KNFEH8F9CZGJN4nfyY0PojVJdA7+ZR0NLbFI4bQaoksaxfDsTkuiJE3sa0lZnc4yvJlLR7mHaZZqa4CSUv/GUDReBKSwzca+oGWwLNxpn+wXt5TC8P9AhpqpKY6O5B8E7zaaZHE/7OlC2MLmAqFiH5iZ0zc/kwX4KF5+l/beRtF6xO8VFN6H/roD9fgdWHlq2NtO/Tx2UxfuvtPyZJ0QGkQJrBMfQVTfd9s+zIV+Dtr8MFQqGDzwocdod01hDShCsdJJY48/uFKe33WgiMUG0jr9zRVASyIIk43ZB0hvo65w1aY73uxZ7AsXDFkbYOSBYAZpkhb+YS09wqcEKRLwUjV41cUklcWc8SDexjbbcBhX/8EC/IZX3diju4qAssGFB7mQA+3psta+FAHHNL5J6sLxsRr8eNBPAM6AaW+FW5+7FBzBpa8F0Bw1fR6mD0wdHqDZxjM2Rl2CJz8xjbpQ3tYhkdvJ7cZ3+O2ujDwf651oR3ANevb9ymsC8LMhLO+F0XoU3PzgICRrmRFqahUK7Rd3AO+CJqhsaP9cLZeqcBYNoUe8X7QA1EN+WWl/w9GPrUYdSnumZcCkNP4FfDfR4D5L2+B2NMdbv0sPp+3f3412mdvflNRjdGPHYNL7+KQMfTAq/va+8xs0wFGrtvDMWodxMls0q7wYyg9ZPfOcv+5KUbYg6uB+ZhtfyODcn4zAcu6YFzZmHh7tZ5QiTwm1v2Bh5k+GMDwftz7sLPWo6LovMJNroil3C31Xf0MHIhOaR035JFsIGyp3dGE/EQX2sKRofS7NmxOwpz1Vr3/Il0jvpiC0WC8M9a46/aRrW0YH9OsnFzWWnvJq7x8ofIbU+wKyMuqPDG6SIlQ0LRuIJ6M8tw1Cl1yIrfjcAUXOFzHwIweIU7RdGuOAPxTdRWVz4dhNBvEEvOb7nDqH4cz8ulwxNmx2N35ivA62lNkMqnjyjzAelaZ4B1pVE8fKLuMU+YD07L0hDn+NlQ/804fq7dZi8FFu/q05+M5azlI2wH0ink8N0nVXNhCVa4uv2UVIV+nSya4HdkvzrtH5R2h4DGW4KWR3LfFyVprItktoh5ocQkaVRMPLmMnHklRzaaAHP162x7VNKFMlsohi6HPcmhy5WazhEnvUJsrHIKEKSY3M9BgFcIFQusu5gwYtYgSv7pbgWEW6oWJVBAswcObhOlMHKwJ092vAlkjTQtWNoXu2OcW9UknC+S/XH0CTdPoGxgDFphkBe+aowXg7It4tEn5IfqIUKU+b+9nJzw4aP48+dMjclEelih27aS81zCPe63ICIZRmWjuxxjdbFr+zxzyJG/3PSnfT7mlusSEfXFkGfwR0HoiwcCorYIt7RIwU/40tRG8Nhxk1ajZgpco2K/5jUXetx0fli452Telqe4nWEn/OlnReZBFAi5iSyAAE8gT6ATIFV0oPRWSrHXLiuyRadewxNOj7VrizozzOiBvoxWLi3AwdQZOCticVGN7ehdiq0/WGo7sgqe+Vbcs0GBEkdKHVApJ5RnMRokWwWnnPZ5q1LhysOdF50nQYz9p3uBmbRwvAa+YAGwVkNorqlFl6kly2YRiUg9KzPnRUK5ThK8xpOIfoADxlq7cFMmE2UrbHs/sK+guAOSvIMM17wEQ2RssNdYu/nJ5qQs+fiKn+1O3iU24bd1rJUVRXgcaDDSrNgAhm/ZqeE3Moe5+Lg+mA/sij/27EztL1pZNBhelRRNkyOuvHwPH046HcOFuQgKZPdg8pQuKfeLpYwzJtgxXoilJ4EXWdUe50/z9DJj383LM1pbva1lhQBjNs44T9WQ6dQkIYCQJO3K4DuW5Wy8koD/U/ah/SeY3pKcS1zuAc/BXz+uBsv2QMD6hRej6jeo3qN5RjyZh7rVPvEWv4h2HjUACjdZQudgsSnU1t/vhteKKrZTlNMesVZtbWLkvWLDIjPhJFlMM7sYOrQ6s+bAu/qIRsvfNpl2aQ7Ode4MXOhCoQtyPUBBZaSrq2606Qj3eZu70F8vGEBMcmeXyoB8KOU7/SXE7/o3SVE7rQEd/N2ZrufdKu4AVdSZ2G1silIw/XwShEY74wvFiB2pqjYoTsZb8SPR9kgMKRQ+76eKM7IcbkUqwnum9BqrdfnLcV7yNTnvDLnxJ1pTlXkjE6Ll5CIiKH4XHPzAp+htXwCZvHUbkZolPd7sWfOKpcs+/RrN1rWDokWg7Os9Ce26IuGEycNX7YwI7FVWOnEenjbd90UxnZHmClqbHVKmBbHc7UU4Ux7lAJVWsR+I3vRm+kQxRf5eXRLfqUzubTr7GLxgw8/gVb+IG0zEckhB7OdADCSIvv+HiWeKS3+3MB3QOi7jnk2rt00A7TwLdITgcwwjj84mW8Z27VdGkc+WszD6lTslHkY6iy4ZTzKxw+zJSBtq9cb96Ho/3dpJGs+UAmgxD6KeWOrUXZeVLFHNQA+YCFaYd3MQwlKT/+4Awv2bd77Vgf7GvkxjoC8OZt43knmgvt4d/9AM9dHUEvWiW096fFiW7sXHNFQRqmzs5Be4OaWRuKP+mn0uTOQ4rwY6xfXh1VUHJq5KvKe3Kpq6CxIMm5CGuTTJXCB4FHtnCAhw3DsQSG/a9h19oh0mA0IxAfmTZ5JKCz7cZf9uNWibM/xL+xRc/67OBdh3mmm66gCJ33+zVjTNbpcwaqNiKtyI4tRZqop5klzxp/bk1vVmfOg3hah29r1JoJp8OElC+AN3yDC5fJZWEpKmRcsjKcD2y9DRFsZXtBKLWyrlkG2iW+Sdaql388TkkLuQSYndbtz38D1b+toGfDJkqwhH8jt7pp7dY1SDQnhUWYJ3kNK+78bUTIag33oCa6avYK5rHcGIxz+rNNgEEVz9P+SuvYqULp9Pm+YCTeBWu+iX37tKqO4eWlbCGovP4acrr38UDa4jUc+krpFq0BOLLX85bXW0BSeNk4ZNh782eZT2eWOB1CDYdB7Le2EWGcGuj7Yk6OAi9HmBNHDrLQlQCK9nLAN9m8RUjeuIBfb8TlK68aVOrIMJ0p17q8uRVsG6ZH9Jp3+mIGCh6vOSvEw+AK2qOa77Vea+YoeAXrc1CLL3ayE+nD8cgZRCcLNFZqolb83TU/mhOH3kiE79gAA+17l0v6UojlXmBk0HNRQJLucb/WCsY3wpO+3OQPZpyUBLCerDWJvl+YCzq5vSwCc0PzcI4sUDjicTp0N/hhessxPFDW5SSMJvqk9l0HYn10HXO6HxDutKaxhKr5FIgkZAQKSLJctYYAoJp5cgw5amOBJGEXW+VdVKZJ71DOMA9sXjScdwv+HGYZz93jvS/hEaaozC9wUpCWrlDew1xxFyw5Lu86XPZfyQQL96jP50RnFwen0eW0lO+YjjzF3oE8afkzC/X5CGZj7E2WPA5AyH+n0APbHNqYV3ROZde7vpixnEthbEb+qNOFWdnhRkdT7hkNNQ9Trgi5oDrtyviTRU0/RGRcEVzSQ+jKHxnqCdO/hFndIZby9BbaG97d1CRYGzl++p1Ba2ljNavNV0+y0xcG4tdbVNYCXMQLnn4+/5rOkpgSe0Z157oX9xD8cg69BI1NrTiuFvseevIKvEZmOMfqYTwqgoG3tqzPVwwZ2LoV0ka3IR7m2yHfRm3gDS3bNISqS8CqBJtR6aUoxnJw21gTyTxvfhhOsNDf4xHp4EE/hwvuP5MhXGhcQAAANIDWXSeA1dM/Bnrt7vCoUDc8Z4YnJlf6P06eihZ7x6NUr35wT0CnlN1J6qTSdIIoeymkYWDwctYKFexGYNe8OwVy1XMjoH6UW49rriAEt7tjV8IEVvXV7hYD333ydlYcNmJZAKcAUm1w2FbBKPPeTWfRprhjE6uw2JuEZuK9tZw7hPtGSMFzVl27W0Yfhh11QmS7B5XyuPpgdpPVMwfyL2bPiLgPaxXMKsRNwzYMJbH5SqJiPSIr/ofEN3oMHitSXe00/RmaPpdSAiKMdDz5di+9yamqGFWyp/lI7dOqutP8io+apTlFCugLv49sojhGGrHE9uNp+wAHQGAAs6/sogmRHCSmQZlaWwOVwmuruwaQ4CYVelPPPMOWjq+AzRQK6bj4rm6Ftr7cI6NjFAFtrpLH8EZJcJAikPGm5Y8pfOw8F2QPDg8jZEisXQ45F0YT/0xLXNPWUXEC6i/q8zmdUfdnaQslMbhiD4623XJO+5l60FQCWaUTFwz3UqH2J4pwnAihfE5y176onUsLI7jHyR2Q4hOjHN2pOA7J49vWLR182fqLxiQIl0UnOFDIGHRf0IIhy/Vm1JIGc+JaL99Oc7GDiWZgr5Rt6HU7iOpMwOfWQSHJX8+ZRQSuQR4HDpqCtT+U1Qfsm6pdyvXVTU7i0b/gTs2yIBRzCst6oAAE14FdAnkRTg3I8+Ykletrv0Rz2XER/Q/TF4yxHtDi3ZsM0sXqWRRZD3RkQraB6XN7khvITlcMQfK0ZxzPbqcRbKZsPTovZGCLXiJdMh+2y5MRp0tRA4evpOFprXn2mSJmhp2i6wL2povnJk/tQG+CiHXt7M5PmxT0cCwCJrwY0egka5wu2PGyZC+pkd5K29LAAqN6rM958T5YLCLP/MRrORZCqLM890202HfvM5jvFSIV2l6F78XxAMN7o5J/KK9gZwo1FLHRmXXv0/g97G29C/qRlEIY24cPKoQFRjspEnlEpSPs+2AxCjHDIzB5b5yrjjiu8PLkppGaN32x0a6jsLr+ysFhmhNq994JZYkmrsjVK7q7FkyPTjuHZ6foXhC91RntXIu4CStwKSsZK5K8UI8zjP5OJrpb2BhOF1BWg/yBjGmAJ0hi0gBlpWdWfIfaLU27DQAAtqTG5eo45cyO+E/Zlu4SEi4h1DqPYrwEFAAG8OvLFBpHdsuV1y7LAZpjCmGqgU/xwGPLlwXaQxG/JPGniMMjJccNP8a0sUUiPRYllshJkNUhHamvg4lifGxuIRsJLRLp2+a33copPdua9aAMmm4vN45s49CXdLwrwvdFh4+b6+l53v9UUpumQYdun2QJ2b1sNlt2OeWEOMk2KMR7r0UHJyLgqlEl5c9XwkLAwqab2kGMDRYQ8mROfxZVLJ8yQcidxfVJicqqxMxtuik4EPVP2zgg+Agmz+A+8cMG9f+qjnziYwhDF9K/FCHPKD7x01KOEaJcLHttVVvVKdJWjEjZ9VmTFwjZ7qkQlcvLLwIW7wEr5T+x1ln4+h2Qy1E69BnAbt6WKFe8JoLL1ItC7ju2x+ZpmESVcsFJmGLrw6C0z39HlvtAAD8m7AqTSd9uNYV9ILgwOQ4SQiZ80wytLFe8t5Vy488C72d+x5VjSjf8YmiHBY2o7YgVHeO/pqBRVoyhkbcri1I1s3j8jhItNHLdJd7zfDALilI7PpxaYe36o8gkBA+J87seI7VFYaJc9NJ5oYvti7NctoQsuSMc8LI2ZkEeLbt/qsqb7UkwfcoyKyF44MS/Jr2HINTw/r5vcwqUZBnIzJ7Sey2Uwq2lKRj+BNANDbbCG/rp7YoFysMZnchC+iESXARamE2HSBtsay4EezwZFai+85IoHWL1Js7eAY4WrH7zLKAcmhXe6GkEGF+W3YMcn10k7Pct0B6vvlalkHvCrYfNz2EXVZVioUizih3OAIAHHR8AAFKnwhUdfZcyQAB6hz9JqYuDloSD3eqU9hBinYXhcVmhZKXrkgJscfPFk/R/4rd53zywrYZfPuTIH6UowH3uxwJR3RYNXfLaeVeJ7a9Z/V74pd8nRzB4qAVol6uw6q+bn9vnCF+hBaSEMwgOQM6+6DhNVL1lSQU1r/TqXqKKQ0TsnGjrDWqwajzFVAerEVtIj1IiFa2voeWWqy4xQLXXRgUFTN1SAUDTAd1InKnVr9iB/lygUXT9XVvtWsHlgcVKPytKU05FZ9EBNNRqoVOJQf484DvF98nPnP2NMAxR9zsN6mxlHMLJBuG+xW/yx9OYYrOz70eBg78Dn/AInoQgVa2OyAAAFsB3+h1tdA2FkgyKUbaKIH7XKkWzLpokE8/I8Gt3ka4R7na/xTBB8N9NLOgwvmpO60bowaPn5EZd4xrLs1qgXhMF6s1PHRrvh2OZachQAcg1WBpv+wL5qJs8m+ghViS+RNU4bUU+r3OdcCFngf3aUG2uo11PgqJVOUziOd53gC2lQDSRZdxjG9JACa0+I9LU0X0iYp0WNZWIW9JGc+eIov8TP3fNj0SQ/fRzlcC0LXlhyxz12R2gcoOzKI/AvU61UnOJjlthxR6vHB2I48aYHfibzKfwMvr/dNscLS4SPWaArXlpPJPW/Tp52NvoGDmsiUALxPrW4Y82XBi8BLKpBjpBG4oXa0Y06+DD5u6eVmsF8nQlYGxah0JWrhbaoINLytFoWTAtz299YTTPvH+dWhzruh8ggEtvw/zyuijYERRMZXAwYp5GUJ1UimbbVUaz7jQXktZmH0NSVSmJrGf7qc9YdtfGjiKmwdu8JyfDfA6CunnB1WWRrsx/EQWP+Jmv9YqGXEB4wal+iaBLCsVimxLKvVf1QN8QTFvqIEmqK9KJ6nhfapdHehoo34NtI9IB7xwjAAAbQ1l98pvcAUfXeNnuY6TAS+AZbQtMU97O/b4H2TxUZccm5wFQ+QQI9ftTBIeMgNHqY2e0L6r9bvRsv8FTSctLbPqVHNrD/MCw/tE5PdEqh/bPXDBWv0N/f2KzHXzjs8XQpcnzk3eOkUK+wh1FceuVZX5jOij9cWtZ15CU3g0Ys7vQRUusa7SxwZmrKBOGeVZwAAAUtIAATFIAAo8AAAAJIOUw/cKpPnOH74CkbgkRA6qNahLa6fJYdSysNv/u/r/k+TiuID161QBD46r6xYIi1WdJjzA7oVb1iHAYSky2fGgSSXLVeYKatUedAay2kYu1FbKcbzpYXgR/mD2ofvidGaHr+RYhEdP0Zsmb0R41+0KfdufwVHYa+KPeKYiTZm57SyyGei8THmaiIQpawY3OmdSLdvc7R2/EJYRKS7C1AOKfRjAAAAAAAGJKk5lZndsVim684Yegr9eD1XKjkURsb8V53s/ePyWomi/N5apX9PPqtAw0ffkqKkWsheVv4nOouxNrtzXg1irgSTaK8NIl4KoMTSDRCOpfeudxLRCwyj7O5A0jnsz0ckSqNmAVZMukPqK3UQxFVYMEl3LZ4Q5EXZ2FWQO9o0w9l6QQVhuyQdDwrE03tK3Vd1KsUZG1QtnsH7PgPOS+izhsylairJdu5+NIsO8hsgAg+3uKkkVdMCjU5t7KUpZFQfNjkrKFcrdP36pJ09bGss4Vq+568yzcL0LGRdoJP1bGhBjQ5CtRSenLCisHmDFZCya7TZbCDP1OwezkNyEmYGoXfQBdili1X17ILmG+HFOskcQcE3vPcjrM38LXcaPPxYsta3Gwu4nQEtM6LGwfyseWjwBaSACCr0Tpo15f7qcH/PFncZu370FvareQlle53v4CvS3AZd9h/NOW41IdwpgLe8v+LfQYeLKaZrCz+zLskBQtkQQRKpC5flsS1KfKPTufoKI0AO0SAsinoLe8kOcLMHdp1uRY88bbbCXN1P8e8Mnd2CehkAK5ywginQINhqH+QVewTGtRbc/0/aZJax7r4yhfh3Yn7P2M3yLd0k7zouqPqgykfEsqKWXVD27MwozLrALMx7V9paG2ZjaXEZkOGzfcAWdbPt6JVMYwYSIY0VMMHpnQK821yMT6UBVhi+lZt3thiLpYMgHQoNR1a7BvjgAAAAAAAAAwQN/dtH/LpG23S1DuUYk5ER0zo9Y7aL/fKguylw2x0Y9dMPaL/ZAsQskEwrWaSaAez+2gKHxrNuqgXC71PabXquOG9N+IM5ad7q0Zwb/5wyY7FLXDlfCIIccwjeyEyiy6OFiRcwBLqMXMjSiWRKOV569ylwf5ThMIG55h5LT67aAm/bGsZkvxyjoQoTd4oM6viwkWPq3kxwvWapJPpI130GuPSqAP4IwfwZ1qAqCqsR3zXubWyC2Td7BtR/y2VyPyOh4txxNVOG1iovhlCmn6lB3g9TVlofHCpKurPG4rV037VCZfvsurodxsDU9YdYOKTKBcZqyWQK3xs/xgLThTuRpaNeZGf3dGaOmyYlJI2y71cYRFUGflQZjRQ9VEhR0qF+hqd6uURkkGwD29u3YWv+ZEEQpepMVZ/Qz7BY4LyoaOWq7MTZfRUL9nlYLMEU9tI8qddqNYkZYcuscKbv3j6uatS2hVr1y3L88FrahPQLn0C6deMfTaMmCDfVTrekx2f6P4Q1PjAqdAhModfS8OjZuFvWdB1r2UhcFwL8LkYE0dDMgXwzlsmALD5kinaghSdsx0huwRj6/Gusx5hAAAAAAAAAAAAAAAAAAAAAAAAAAAAAAAAAAAAAAAAAAAAAAAAAAAAAAAAAAAAAAAAAAAAAAAAAAAAAAAAAAAAAAAAAAAAAAAAAAAAAAAAAAAAAAAAAAAAAAAAAAAAAAAA=;clipPath=inset(29.29% 38.67% 11.54% 2%);" vertex="1" parent="1">
          <mxGeometry x="-120" y="17.25" width="142.4" height="80" as="geometry" />
        </mxCell>
        <mxCell id="GqbFPElFmIpRKUHDmwWA-14" style="edgeStyle=orthogonalEdgeStyle;rounded=0;orthogonalLoop=1;jettySize=auto;html=1;labelBackgroundColor=none;fontColor=default;" edge="1" parent="1" source="GqbFPElFmIpRKUHDmwWA-2" target="GqbFPElFmIpRKUHDmwWA-13">
          <mxGeometry relative="1" as="geometry" />
        </mxCell>
        <mxCell id="GqbFPElFmIpRKUHDmwWA-2" value="" style="shape=image;verticalLabelPosition=bottom;labelBackgroundColor=none;verticalAlign=top;aspect=fixed;imageAspect=0;image=data:image/png,iVBORw0KGgoAAAANSUhEUgAAARMAAAC3CAMAAAAGjUrGAAAAYFBMVEX///9VrO5JqO1Pqu71+v6v1fb7/f/q9P2l0fVCpu3a6/tgse/c7fu22feNxfPw9/3H4fk2o+zU6Pqay/S/3vjj8Pxtt/DN5flZr+9ls++OxfOFwfJ8vfF1uvGiz/Wy1/Zcnw8fAAAQhklEQVR4nO1d6bqzKLMVMBozmZhJM+37v8uPoQoQinT3c86OJDvVPzqvqFuWxaqBAosiD2n366kfITNpH1w0y2019XPkI+Ws54wx0dzPUz9KJlIdBoWIEsFvq6kfJwc5D1wwK4Jf66mfaGpZnRoPEYmJ2LdTP9O0ctzsxog0WkuqbTn1k00l9V5wHxHGT506fh6a5fpPmqByL0Y6wgTTHkp9lccFH7ZTP+Dr5YeNdUTwvR4wD0BK8NNi6md8rWyXASLN7aiP99w7dj1O/ZyvE0kYI0QYHzSRHG/j42K3n/pRXySLGyeJpN2Hx/nlb9jl4zXsOXgkBzY+jspT/3y4CYp0gTVX7c0vTsFwEnyusVgLvjxM+9C/KtU8cEgY73XU114iqO6aX493ruAZPjU2rELzK4fNTLfMeNRgVOMBUMmI+SMNc2h+ZccNhZ6jBn7Vrspi+GzD3N0jvrjpV19fm4hbtQtbPoLokF8+KmJehcYGOy4ZJmgQ/KGV5DwE2sOa4YM0RUcw4443M21UDnHHT9oMlRHpst38c2xyGZlfyQ2aSKRRiVp+9DXbEEQmepOA27P3N8zVLOo3BHflPiQSzLG1gYsvhV+0khxPXA6hbsoO/Z+lOvTh4ODDwbSEhpnxJaQH6lCzeG9aDvq4jBffOGm7DZ1TaX/nmkG7e4iIaIyLr5tXIysFQ63d4EFpgt6Ubrt7TK0wOC4RX/DBOGVzUBYX/QhuGOS89K7h7B3Ttm0Y/dqgrpjFDMrnuuU4cOm3GH0BuuGD8UoeUej4bnaovewiRHqwGPUpYhKTUKrmjeELY6hX8jwEq46MttSjt2KV9kFowsPl4n9G7xzB6mymCU3LuocRdYh0joH//yZSzSJjg1a2fBj/4+hURTQXGCtevwU3dNHqfrebSEkY6s/lLSLmQxjSKU44YxO83grpgS9N04hBFSq9LTPolpGSCGGuWiwFjLucpYsHPheme8ZtFb0ZF12v/tE8NHWUm2hwiN3D3PERunaOdw+qSfBN1iZI+hUxkZg5Cue2Nqaz1aWBxFGxDfMnLoNCkCs6tcVjB+c2j2y55RiF/QxVe+S28hNAYfSnvkauvLREoAkRWctbmsuksXeni1mWqNThvB5zRLIYm18hvJqkdZibVt02+beSIFcMBldjluHLQ3buSpwIUR6EcTTamC34FTigjpx8haTpNkGuUoGMQsTWObfZ1GodmV8VwBj9/yHQguCmiKJmpvjGvPF5TK7IRZJ4oya2m0/S94RsCSJE/iQMkVWEVeTROrtEKZDgZiiWt7iNNTklVsaFRtBriO7rOOqxbFFFySZ14dUoCUGuTIAJXsUekKQoA2X5yCBpu6J6zUx8Vs0pRMCkLOLhJi80L7vcEGODbwAuAkpk3vbExdSG+RjnTV2CPZq9YNo+6DbprhC9hlq2BakIYKsoKkENqgehdHQ9ISotYX4ZTk9RCsSQWym40PGgtIuJpblrdSWoBI3RqoeAYZiKW6p57FlIz8wQSZyZVo3An2U0tcGcw06RK+N30+sjwdiWgzr7hqaaTV2Hc7/M5YZoihRgSElC4E8aGTZunzeO7vf6MqdoQpN5ta2rKA+rHh2Mcx1n5V0KrrxQbAG6R1IJ4yb9IAPC4KrmtZW2i3CmU0lzB88imqRQT86AIn+IASdpxgwNypmx4VFJxEWyFfCaxY0Yfr5G6p7wSEzAUc2iSQrV6Q1oEEUWgsHgJ+IDeenlCZUIASNkTzTKS18HibQ4ASiYCJEOHNGtf+i0SUoXLYUX24F+bSn9Ej0Mjwt1KX9xNVzr9876YUSyXquwwYvyP53fQfKnTUTPqXEjThBJUr6+9PFeC4lUZffe+AnCECpqY2gAwtoJaL0bNElyZTCvIb0SshVscEkqGLq9LwUFHSQGmQsqEpStUKJHGSob+tDkaiNkkkosW9QnAmsL2GtFg2LnKEi3laE9jAvW9HMPODIonhECTApJJawBV6gmsiwKklfDYeRoU4t0jOsci21sp9RzA8/Q5CqWwJ9zqpXBjGmxIgGbChJFmmBPotpW3Sm0oiXlpclRBRfHxSZKGtR9KsCxmZSio94FE/cXIxFJVNtq+gxzeLS3bvtMk6tA75QeGdYcbWkduk+cm60vlD2x7Hkk7SQmSka1jV5zD3ieyZGBqYFiTUNymxgS0le3wQ1RQ2Ca6+fN4HcQDruCBIJk2mlhYmpIijPJraAFRyLh6ulQS+qQ53/WZLYEmYZKS3mITSjn6Ml2sJyCTA4pogEdom2s4P6cxDoamA0iRkz+qMuXU2uJkgAUTBwl/DCBfapIcpVcAYjB/8JqlQZCgYrWMTHkAIkExXs6mziiPRY7VVGsSMTcwJg16JuPtA2VqCSdVxkBTT9wjGxd6HMHI3kmsvKqHVyWoCzHIQpMo9KufAn36mysbQNs2kS7oDADAVAEgyWwLRm7O+6tSC9OKhF2WQ8Yy8WY5BdLHFekX5wVJBIU9dA22XegH7m52WQgnVhFC90h+WIOwvgptssLkpwlpLkMHCOHBmuHUhZWNP4GJ8SbtgZl5i1RwTiwvDbWOz2TTo3EKSctUbJGSlyTTOEsMJwWJj2wCKeoxja2ueB9MawLk9F4g2VukKCEy2Ftj8EcSXJF92PEOQLTBlGlqE0o4A0SkAwZTBRTUtG+up2q0OMKmVPC47RhA1TQpSt0jND+vMss5CYd6cq7qQpYZs4xnW6JAZaopEy0Jd9Efl5JppAU8x35CjHXYTtk2dLMiQiOU3a0uy7pGYcPmUxRd8y3IHRGhWwwwV0cXUbWzkFUkmk5mliqxlHfAdmzupMjUw63fCEhQHHlfKNoTjBcmLRvIAPpTYEHkGCg29L+vC0+yVWCjAdWcEUFn9b0FtgfOj/kRUBHajrtDSAZ2wVbZkAlqfmoJK9Kkaf15Fa0cyz/Ss4Dx4jrHF8uomM+KN48XWpYsAbtcMKfl7d5h+WBAICdEpXWJcGdNpW8SFCJnbEgMlfvBAnkBG2Mm3L2vTMS3rrHxOsUJOI9INGa0uCSozbpUqAJrui8qpcaSDmvbwSJAsXqfIoZrTNLzwIyPxuSdF7fZOBoqdDTTqqANcWLJGg2/04nqJhLRL6T0PUAzB8VB2rCTImtMSKrP80pbwhJilzd+sYkldjFBqoyOnXKWywFHAm5UMBAgt5akkoYx4igTjiv7zlwqlSQa01wkkpsxjGVn1fnvCEkqVkpfkL+TQ4twdD/pYtL9G3edPdqChQbBSdNkkskpJLRUnY5Ldb5bxKCIuzCozSVuKm8lHub2fql/yq3YCEjRvXJINerzVuTWTt9zpsOHCOVD4pdGJkoXdIaYOsskv78m0Mymut2CZNHaty41EDan7cFj+8rCIqwsUnacXE8kXZePdjeVyoNipulS1OJcFFukoE/AhI1CyrsFgPPqERYBk4Ulyjhbz9wjJSDY8WkVyJtMLolaX/+YyCRnbRUkqYJOw0U7kQwOunz9mJ+1lu7iiKZjP5ISMhCnLC3yWT0R0LySPqlnhd2eHLS50GyedJbG/dTE86fC0lRp3jCzVg8cXAnWMn2CkkVK9rcbKrU4nMhSYDCXf1m2lB/LCQkKG5dSZX25ydctvX7EnGKnfl6kp//bEikpow77lz1dDJa6dKUj/z7MqogcG5JOhmdwbKtX5eF7bwtvE6XbenTPh4SqRIwfLz9X7dpf56Jqdc7vkRWWie8UvBEZTRAMuWjvk467lcNJNZUAySnv6AlSs7c22AhnYxWWpLruoL/f9m6eC5ZXMJyW6P0KkmsdARIhrzWKL1GynTmNZ8loK+VJ8loZZj+opYcn/jz+S7I+VVp0+nZvwrJs1qKjBf3/bYckjUofxaS0YrAESTZrmR7hZAbnOS9bOv3hYj//jokhKaI/q9DEk1zfSFRMs4V8NwX971G/K1yv5CAWFDsdrBfwXliV1T+FQTlqyUjUek2/n4Lcn5XLvwLSSSXt1yQ85WvfOUrX/nKV77yla985UOlXTk5/t1ZqpHMGm5FsP7yRrvW/JrMwo81DZOiYj4U0UybmJqFhQFi0vXQBhOeGSbuY31TSFaYCOHqoCfMluWEyXCS/zGYj5iwojUjTMw0VXmGSqyd/0xVGqCydW3tsf7vxWtlHdh/8z2GiWfNfExwYwImoPb1uN6clowtT3s3mqqNlkNRdHd7XflzEpyzq8Rye72odgVWtcdTlZyv+l8Og3o+MOkALPcWgcfF7Csi9D0m85bGmBQLM0lzkj+rw6nhhmSE95HYkivqaR7SsxFMwJfge1PXpj4uIg9L4Upnqh5O1fJjGmypzhxurj6WDOp2Eh678cmKegJMiqV5KPlrMdqKTuBmFKW5YKYXVhtMzq7Sj19MjYHQmOib4aIns+GuwB2b/ZWDHPYaGu37ILLBBJS3sOPIPTh8VdFc8BgYYlL75SeiZ/8Kk/H6Uli6kT0mxRzGDT6j+VKQwYRB19V1J6fwrkP/gAnUNokGlNF8Dy1TTMzY6dXPIxdyUJxOCIvZm7EcPffKLFvRv4f9xgH4HJPWXMM3XYdrOhSj5omJsYXCrGg83Q76uTqwRnqBsMNE6YW87gpMqRCzG4H8AyYPc0NtkcxHbmBdIdjiaeucxpi0AzCo+ReeVBrtWerfVhXuh1r6J9CGu83CJl3PMan0yBOwCPeiNyYyjJKdz9YeYEFBE74nc1ajfiImAgzo0bzyE5wJSwWfY7IYlWV0wg6enDCRvr2UHh0Gtz66XiwWNar0Th0BTOwiv5HqF8gJzzExP3HRRmneg34tOWEyigGR3dqLMMmmqxn/PiY2xfETkPTjX/gnerSwYdVpWenTDINnhYkT+3E/9yUIgMvHpB/fQFjuMduTP8cEaLkBYU7T8sSE496w8d7rHiZueIWYHP49JuO/q0/LEBM5Vvb4hRQ40ogeHSsfk/34Bp+IiSEOdl3bvpkyYHFflGV7voZ84nZuAMN1DK77F3zCuC+73DDh57Ztx/kP/Z0cXON4DO2Ow+Rg/m2rtm7/wu4Y3JZ160mt/1JOmERJHOOK2a9zpzFZ+Z6vHHKRz4bUA76rwgS8ZSJzlDcm2tVs7Oe5k5i0JhrELUM3ESaMGV2DqFFh0gY8XVoMtvnl2ZwYTPDz3fs0JjhYzDZTuBhBY1IM5vfF3QJ8H4OcwI+Dn+yiMIOJbignSwqnMAF/1Cz9hPVtNCbwPXMh9tu13U/JYILBz7Df24SCviFGANeubVcP6S7icnX8Pu5+tplubXISE/NeRb9fz3GbJBoTGBTadjlXWHcI1wp6TjL4yBf8wI8Q+iLcNcburCKP5qcnC/zonUqbRv6Jj8nC390P1UFjUvK4wWASJvHYzgRMpXcoP0z8DTzE/Rkm/to3fvX8E79FLH9Gucd2/G0S+20N769Oh4mZtCYwqa4c/bmZHxfro+ONcX9sBv5WzHxMig3cgw+l9k9cNr662JEmeG83u68GO94mw2TdL6Uw0vgdBiEjNHHrirM+i6uDpf7Zj7eUXl0Yl2cO6yLApFgPsoH3j7I4MHWht15/cel5oy+be1M55b5XV7DbdBO0lZFE47E7d7U77ckVrTxzpQ4GmJh7tPR15eK8PnTH4F7lqutWH1UeFGLylS8mlHwxieWLSSxzN4f+FZDDTcvUe0v9D3P6x0kwnN3YAAAAAElFTkSuQmCC;" vertex="1" parent="1">
          <mxGeometry x="70" y="74.49000000000001" width="68.9" height="45.85" as="geometry" />
        </mxCell>
        <mxCell id="GqbFPElFmIpRKUHDmwWA-3" value="" style="shape=image;verticalLabelPosition=bottom;labelBackgroundColor=none;verticalAlign=top;aspect=fixed;imageAspect=0;image=data:image/png,iVBORw0KGgoAAAANSUhEUgAAARMAAAC3CAMAAAAGjUrGAAABIFBMVEX///8uQnc4ToU3uuguQngpt+cZKEwbtOYtuOc5T4c2TIOu3/MqP3X2/P7e8vozSH4bNXCN0u/E5/YnPG8XJkm6vswmOmrt+PzU7vlFVIEpQ3+Nov+Dlu1tuv+Ln/8/U5dYwOkeLlY4TIs6TH3C0P9QZLJhdtJNvulxg8ghMl1yiPJldrFvvv+74/VwyOye2PFLXY0aNG+Dzu51h9SUqP8AJWgiPnyJkrDU1+EXN3ljdKmereJOXIZipOVPYJbw8fVcaI6rscV6hqjJzdmaortwfKHO0t1zf6MJMXVmecdXaKaHlsdabbQAIWYAAD0OJleanaYAFkKMms45R3BWjMlIcatYbMJQgbx3h7u5x/1/kdpkqeqotuuIjaFqfdJ5ju3IsZ9CAAAP8UlEQVR4nO1d/UPbthbFjo1jR4mTGJKQfiWFLuN1SUhaKPQjQEtXNrq9t752Leve9v//F0/SlWxJlolD+RhG5yeCiWOdXB3de3RtlpYMDAwMDAwMDAwMDAwMDAwMDAwMDAwMDAwMDAwMDAwMDAwMDNLYPXz2+vXRm+u+jH8Q3mztdbtht7uzc3Tdl/IPwf7BTmADgm539bov5x+A6rM9zghlZWdr97ov6bpx2O3aMoK91/vXfVXXid2tncBOoXuLZWX/7Z6GEcpKcEuXoKO9UJoz0oudg1soK6uhJCShhSGJ7a2Tld0DSUgoIxiO+MvuzuF1X+YVovpaXn+tBOJ0Crr2rZGVwz1x2gSOJUFiZe/gVkygN3hVEUYdWilIs2rvWfW6r/iysa8XEiVUJFnpFltWcCIvTQ0tI6kJtLP243Vf+OVBSeT1QaKVlbcFlRWcyOdmRCMr1335l4D9d3vzhSQ7VOwCughHOYXkDFYK5iL8uICQZE+gYO/ddQ/k4rB7LE8bZz4Xela6W9c9lAvDwaJKIgKJb94pTLK/dWGcFEdoJU502fxZkHyV4nCy5ojjSlV9ZwVJKFtN9eJwguRVNTcr8rvsEBWKE2UO5FOV9FsKxglSv/TFggTSvIJxkjHK3NOmeJyEICHySLNDxUlPmygXJ1WPoHElw2IY0o+sLfgu0NggQyNyMWJFP+XSk6pXKpXKV8pJxcUfeT5OggAGN19WNFMMWejOeuE4CZ4/DxkDSs5xhkfNheThz5FTQE7CFxuzIJw/gXRC0vru+6hocfKSxMls46T7BY84xHGBVMVA+mlDQih6H0UxJ5N5NeCN4WT1F8uyw5nvb7zoMlnRZiuqkCAiJA/uACdP8cKD1ud91I3hZGl1QlXEebERCrIisxIoPQb0bx760YP7lBOyFqOXc63qm8PJ0q8th5AQPu9+wLICiwlStEOjMa1/PaacPHmMGXGcf/9n7gfdHE6OflvuR5iVIMCy8oEEiE8nkJXBCJ020QPOiRXhl05reeW/xYmTw73W8vLKpuVgFQlnMxoeoXYCCZKLHt2NKCdESCwn6uNThN15H3VjONkK/M2V5eVlOoFAN/yPeOkh0WCFvm7aBFYEnMCKhDbx25dDf6cwa/FWgOdKP2aFcvLDvU9OAPmanMKBkNzfIpxEf88IJw5hZKXl+/N9thvDyRoete9b5KvuI4eSgDm592rmqBOIMhKFnBO0HlEhITOPxlOBOAGf2W+RUMGyQqqfj/cwPgYhs2fxlArYj9HvTyLGCReS5b5FZ1g4WZyTDoC/rFWmPYxpRTOINj/W5u+T+jzgraPGsMoPZ3FSE0+UxQmbMEEiK87sFWHlcyj7KLjYi76jnCASQ45FhYRMG5rWLp7bNzwAvBqXPLdM4XqDocLIKDnW6yyppkOnlxwetTv0cFPLyXAgnSiTEy4jVFbIuuyEzqevmBQsNZJNQLJWzMnTdSokMG0S7V2YkwZ5XSqX6Rc2dMnlc5S9nhgGFa8sHhu58omm4mHMCnnl6jhpD5QT6XuKwGejNY7vR2SYRFYwK58JJ7bIycOnLcIJItrqwJ/CwgTzalFOGCUlSknPK8koD5I3TpWDdFzJiXqu5rCOk47ICP1LVzuBuPfIKj+QFTKBQvuVreEEZ/Kk1CFCsgxCwufXgpwAJSWIkqrHL9LDsQ0/jvj7xpwSEvLJePiJRm5yWAiXNCc1j0eSxz9FTwrVkzCZQIKshGlO0M/rXEhWWrYfr0ZoYU54lLDobXoklkuNYaczZFPB60hDwUd7oxHWHIWTSnx4NOqV4khIc1IFGtzyuNZu1yoDFy4gixOx8vMtuphEsC4rnFgoFpIgmTbR3YX9E/juy4N4Qk9dd9BkP7cHZSFQejAUpojtMY+jBhspfeVNYeC1BmMlzckImJ7yT4RLcDW5AcSJaCj5Phn08ibC6b5kKYWPEU/kBSGJImtxn41TIhwtjZOf2/QwrEcd9dKrPVFPxpQTL1mnahl6AufxhE9pwm/Ss4f6bF9OunGoBJKsSEC4KqJTK/LjaWM9ery498go6WX+6bQcj2UkxgwAwgg4gaAQRrrUdrWcUCbLU/E8lE/pvQInHzaehw7Ly6gj64exrEirsSgk4D1G5/AeWdRmU4JX5nhYmi+zlgQcfPuyKFRcDScs9OTF102/meCAeI/+6Un4AtfE8M0zWVnmshIzIiTyTEhwthJzsj2vfYtzwigZnfGnTTqsIR+0HCbSJNR81U0dJ/QnOUx4OKYmz+62Y+F6L7Q3/nQ0skJcBAYpkYfFhnuPf+BMv/52DiVsKOPhWZS0O5XGaAD5m1uJB13J4mSkKWi0nNDhu8O2hHGS3cmkTOgKE55sOF9OHNl7pBOo32pFUWuzLyTyNEYezSTvcS4lLAlha6COkua05NHUmy2nFT4Wr5M+EXBCpcVTTqPjhK1engQ3JUYMv25SEsLAwbIS2OJGD3MRGOJEHtFNDOY9/gRp7W85vUeePqQvpFLm6VpJ4KSnCW+Bk7JGEbSclDKhqdQPVoiW0nrYxrJi23yrK0hkZTlJ5EGInffgs92h3iNdjeaWxRInJU+J2PbAVS9W4KSaPhEdCvw0kE+l5aSsnj3hRBGZpaWjnRav/IglQAMB/5TIim21+v3+ZgukldCFuM8WPfyD+tO0Pg6O5xmyEieppSROQF0c4OUL52SRONkK2ApjObzm8b/6oqHkU9g+DyCc38feY2IrBTk9JTpqeilSxDMNcXGGPm52qs1YWS9q7gzKjPAUvNQ0Jt6jUPkx7/FjoPOpYUuQe493t5BkK+XlxGtAAinKLGSjZXdcE4d1kRo7ylhidFgLlMoPvMd7n9kEcmJWQEhmiPtsREgSN9a283nUNLtugOAnQQtfYkJSwslFrcVjxXM5kxPEDaW48gs/EZft6yc2gXCeiwG5G/PZovcgJJKtlM97dKmiwcoYVyltVRYSTvLkbOUcORtU1+WcnPAVBgaIqPn4mbDyKpTr4uhB7D1SIVGqwUVqwCroAP+CO2owJJxU8+T28lC1uf0SLQ11uYieE8sC64TJikMNpbT32AWfrfWUZPKOpdpKC3kFNck+6cSpfIqTc9SAkCernFSggM7yYNOcpCq/0Jl9/UH1T+5QTqiQWIKQsM6dxTylilgat9UJ0ijHnKS8grbOK0hirFPO8B5ZaIrud0VfYKyJ7SW+YCjhCeTrvcdYSJitxM6woPc4FXW2JI2700vqHdVTik0jxVMawcA7I77gpzhpsmWP2/VV4uFrSYF+NrqkiIaSpfcerSBZf4X62Fnce+QZA3xv8G27pXGzOWxwc51xEnuP7mjUc+Pcjp9oKHqP3hneY+wA4xNNG9MerSS0pBBOfE3lB+m+L3NCN7rAVmoJ/nR0/zy9W21P0FmWs5VdUgPyYbEJURE86lKMxT3qpZFwIl5a6UihnDiO2Pgo7B/LnpIdT5tWEKcsRF3O18/G/KAy0VnuqYuIF6LGBe1lLDXUzQwcNBl+bPjhT4dLZZahRIBYIi9Om+j38/f4iRZkTaiJy67MibrnNVXyr4ayk5W557XULEmld9kb6PaSKScnG1/CbiB0KCWGkkRKJKy/wMhifY+kuhCr0JFHCw5IWaawa4lfl4ZN+qfJYtJmB8nRQWdJJVfZGxXyE3oecdzx5qhLdkf1uf67Ol6Hwxdf7FPezMZa/IJYVhjk9Rd+dZ/1+JH3/TK3UalGUE39psYSsupwGu+g099LhA4bo15vRI9qGhTafA+9LeWx1dR58J/SM/Wm42bW0xb218nC44Th6SlO4Jk9Iqb7wIqjJPIIvEfGCWlpm1zdg5bmNG0InJwX26zF78/uyQu59Z4ZSpubLbAeFSF5HHuPWGjq//uWa1gMdMXKTtOp6Z8rYc3C/q99koYFQZfKChsydA4zF4GDJfKO5D3+THIYp/XbFXKSKgVknLcBNMZ+Fyo/0ueIZQW8x0RWmIsg+tO0yf5J7D2y3dKVydU9taBydiDQZcnLOpoDr7thYiiBWeJLjY9+YLUwLLbRRWMk9h5pbyxtMuj7x5d3e74ihqofqRzW+ZELYSuIUzSH9Tn6SotfbD0yIflL9h5JIOHV6BLvpa15UrIJlkovfj30JMtJZ6ksBnJ/sdxKgDm59zXd4kcCBoSEeY9PQktqMrg0TnCOK2bg7cTApsAFj2ipsr3yb5CTpTWoh4UWP9sm3uMrm7elsHZQWKUfvo97/FRb6bLuBwQHqcTlo8naSPhhWgO6Pc7BOOX1Lo41lKr8Ap+3+LGy2GE9F1HiPdK2C6nJz5q/wXM+sPLGG4yHw0qjxCpHvupUebHbI4enrCvum8KE+idq5cda/O6p3uNPEfceSdMJbzKgyJPbnxM1XjPjxF5TzTZ5gUg3JuBHWWAWBnhKUOMklR84soHqFVCfLbprWbomg0u7l7aa2iKU2jRqpdIAwA9/672p3GdLGUrhxyzvscWrQd5kkNN7PD/kGl+t76sj6bDrZWZzOUHnjpCMiI5s2meL/qIZidItbF02J0ldTCvflFh0hJZir/HND9KDHj+h8VHoHNZ4j1HS5JdUg2h22ZzgYGg2enh6sO7xFEhdPBj0RuNvKv0YwI+FlN0RZYV0Dgc671Ft8sMTKZ9/cmNAOfHJ3ZHUEhA7hy0VcSKPq8Fk2vh5vccbA7i/+JQ8SzhV+aktfmT9XVG2dRbo8bsxgF7QjRNnJvVtxYaSRInaLYwCwXu8rJzt6nE0sRy7++W5T7wTqfLjncMxI6ltHbw6M++RvNguznMf324jJwgD5/RUeJaDKCsRdD5GbFsncWMt7j2STQ60XaQHhK5aE6wiwexD98Opb8uOLBhK/U3oehS3dfCkAZ/tr+/JarxdtKeDHh1T857IShiPWbghgbc9JtMGofj+YpKbTNYK9bhHiv1329S9P6G9oDZr8QM/qdVfIWvNSl+8W+fBXcF7rNeL+bTh3ZfHyApAR/zEUKI3lcJNxX7cRNBC3HsMZ8hCvxT3qdSrqM6sFP+Hj9yRhdfMaMPZLikBWn+vASfPcZCg42I/vfxoG+5v8pMWP+GxH4FNkpAo9h7RY2Q5k/XCPPgyA/t4XSbJyVdo8aPZClpfJ3z49jq9W/TR97H3iKfNdjGFRMbu2gRnK6zFb8bSfWImhAiJ3uOMCMn2bfmvGat1LCuhTW9FVzyl6C54j3e2EMbxy+Ktv5l4RmSF3oquv784womrU0eFqW5ygcgKuRU9xQnve7TQ8e37b00/rmNZocmKGifvqZAULZHPh8M6ZCsKJ8R7nBT530GciSqVFem5FvRunaIm8vmwf7CNREosFBU6kc+HN+FE8tmKnsjnw+GkHjPiTKyiJ/L5UH29XaczCNVv4fqbhf2jl/XjY3RweMuFREXV8GFgYGBgYGBgYGBgYGBgYGBgYGBgYGBgYGBgYGBgYGBgYGBgYGBgYFBs/B+jNsAxQ/D7rQAAAABJRU5ErkJggg==;" vertex="1" parent="1">
          <mxGeometry x="-310" y="180" width="135.25" height="90" as="geometry" />
        </mxCell>
        <mxCell id="GqbFPElFmIpRKUHDmwWA-4" value="" style="shape=image;verticalLabelPosition=bottom;labelBackgroundColor=none;verticalAlign=top;aspect=fixed;imageAspect=0;image=data:image/png,iVBORw0KGgoAAAANSUhEUgAAAOEAAADhCAMAAAAJbSJIAAAAxlBMVEX////Y3+Mfs1uvvccZgEMAr0/j9usXsljF29Xg4uru8fPW3uLb4OW618wzuGpJu3cstWF1zZaq0r9cv4MOsVTH1dQAfDnS3t+Kyqebz7Tk8ekAdi4AsE52xpequcTI29eCyaBuw5A0jVen0r3CzdSy1cZhwIdDunOHyaMZhUV7xpqUza5SvX3x9PXN1ty4xc3I3tFyqoYAcyPZ6N9Ml2iqyrVgonkohEsrkVMpn1cYlEseqlee2bOH0qK248bb8+Wb2LC85cvMaqWHAAAJcElEQVR4nO2dfX+aOhTHhS5NUwM6zS3QYZU5q1Pb3d2n3T3fvf83dZEkSASRtCahfPL7a7NR8vXknJycBOz1rKysrKysrKysrKysrKysqvVwrV7YHN6101cvp393Z4gx5XN0qH9xcXdtBFAPX0Z48aHLgBnhxTvtgA/aACnhnaObEGsDpIQXF5pdUaMJOaFmV7zWB8gJNbuixkGaE+p1Rax/lGqeFU3YUK8rmiHU6YqGCDW6oiFCja5oivDiovuEulzRHKGutaI5Ql2uaJBQkysaJdTiikYJtbiiUUItrmiWUIcrmiZU74qmCdW7omlC9WUb84SqXbEFhIpdsQWEiteKLSBUPCu2gVCtK7aDUKUrtoNQpSu2g1ClK7aEUKErtoZQmSvqJHQ+1BAqc0WthO/qjKjKFbUSPt7VISpyRa2ETi2gIlesJ8SyOkH4WEuoxhVr+4Smi5GMFtNTiO9qx6kSV6zrEg5hDKQE1ycR6weqXkI8il1ZxZvTA7XGjHcKXLGO8J5IE8Ll6dD1WDct6iUcQ3lCv0lw7vcfj0kv4QpIE5LkmdOPXsJgCaCcgH8ymraJMB1N4f1YSqvguRmEZkKMJHVyym8boQFZQktoCc3LElpCS2heltASyhJKV6KeXazSTIgC7+yaotpL6iXEkStZiTqtmKzbY0O8APJljNMCK9QWQvSESlQDQb9fc1GthE+pRDUhHNYVAvQSzuQrUQ1EtnW+r5cw8GUrUQ1EiNcaQgf3Z4OzK6mvxuklTCd82VJUA9Vd0GZtltAStkGW0BJaQvOyhJbQEpbU9UoUxldnV78+9dZLiOdufHaBVXtWT4oqUfXHprQSokRNJWpZ97ARrYTdr0ShmRobtqgSNR0SFZWohQbC271qLpYiTvyz67621HYOwt8/3rzZ64/faqcLBYWo+o2Z5xP++debm1cF3dQSGtBzARc3Al/3CBdvXr3qNOHtIV/nCD/edJzwoTRGu0b4d9mEHSP8p/OEb8uAHSP81HnC7tvw384Tfu484bD7hF86T+i+7zoh/Np5QvfroRU7R+i6X0qErdIZCN2vn7+8T/WW6pN3/p2JZ+mS6vYZhKXyZTvlLr/JU1YTtlWQxN+7TZgK+JJmfHGELpREfHmELtl2ndCNf3SdEPpdJ3Tjn10nBDLD9EUSEplJ8WUSvraElrDtsoSW8JQgoTr+Tt6iohmseV/d3wQpJSTxcLxehWG4mmxdUHV6CAJIW2RaTZZxoRXxZ6vxkbvfyHAdjhudR1JHCIE78/oYZdUThPuLpMxIhpuAtWDNrpL8sB8Z9xFCUeUD0eAgSP82b4KojJD4ES4+MSjtfpAcDCyQOIfnYTHyfNZvenqt+vQfye5fQ+sGiKoI40n5dB1Gi2GxSyCsOvyDg2XWCI6zk7LYqxin/G+LBndwqiGEJKo8uYSmyz0imVQf9sVBdh1G4TjL8lVjerLNHCGEiyMnlbmB3OyU6JFaMhplbdgZS7QpYfCn1jU6+6iEkIxyQJwFkr1DMgPtGs0RH7yFei7t+XbXBkSIvaP0+SE1Yb9Jh1QQgg0HxGg62qxmq80i4KMWLWhwhL5DX8FeOGOKmO/i+c5scMAsVYo1cMqaGYql+QHXNC6O02kw03DGxyTrMEno14DXIJ/vgUsPVmIn+xYA+9/iAITcs7dum/RHBeEVH5JJnL8BEtZ7B0+zF0lEuy88ABS6zGw+LHwJ9H+FPrM4c2Voxs+NEwyEHkDoFUcdmNM4MhEaMbNRR3RJvyrW8DiDm8yGSgi5rQ6TKuhTN8NekfBe+EywKBICZudA+CQS0gjklCKQHkK4ZCYsB3kyKwRHTiiGESIQ8s8SG8Xsi5o3e2DD2QlzjKq2Wd/wNGvH7DMX8k7CuJnnsfEg5DWQxRk0MLS2ACN8xIScHm12FuHu6myLDdNEJn074kR5owIN4HGm4TM3zk4YXxXH2eHVNrvVAh2BPF4E6+JKj0wclCbf/IVyXsMf3dIo61ZDyMbQkcsNBzz5JiOGiIKNT/LuEjjw98Q8r5nuPyHkztw0wTq7H9IO9I99w/sZcpBncqnVkmG+LoSFq1TkNVOpOKMilqKKAF996c0+Pd8ZchBXvAccxJo8n2l8S5VBwnRqKKxA0vzbS8q1F77EyqPrSCafMU2YzonCKhKj/sY/ZOR5TZQZEfoMuGmcMUzogmR6wIhHS/Gd+RqK5nEha96UzzRhGjknnngjE3YSMQsdMMej2axcPtMCwrQDxI+EehRGa6H7eV5D9nGmaT7TCsJd2ZFMPGdvSCzm7PlaJaUCUusmRYSN50O3MPMRMIjyKkAKIFwnz2sIL+1IxBmFOU1107STkI9BCPzCNE+GiZdXOoS1RB5rduVH+i+/+SBVQEhzjmpPAWGav2zYzDaeFjPQnSGXc166EbLxZZ7XyOYzSgjZ2qKiBphebJ2tLUJC+71bRQgeBeOQjQBhFMY81mxl6jPKCMmqal3OCMrrQyTWe9lsIL6axxpPbt2kiDBf45d/vYOacOdGbrMqRv6ZQu1Y8h54ZXUa7AwOOsIfFIA9KElIomIJHcvt8SkgnPBam5h/QX4bPS2vVddpxFpb/tZBMSOQijNqat5XfPU+jguRku9lsNVsZZ1GrJcWelm4Bb+6eqCVkPBNI4zSNJpWtAFM+G4bq5Dm4SOJC7vczMz4YFu0sE1Fx7hZQjfO3Qajq2g2mUxW8zxjwR7ft+AvLNYTpnDKqEelgZjvRkrlM6oIi4MKZ8/3xIW9Jz4AeZ2m+NwFbubSAp7VhmXzGWWEcOgd2z/E23z/cHDsiU+lrZj9HCQdZ9TtAY8q94BxsN13/thDqyvNFPO9Ask4o3Aff1V+YFXhFAJFrNwKx/1thaexwISvpH+rTt1ZjDSNFoYhRsEMih8AZqWBmsamZXUoCRqfvtBEmI5Uf5OuHtgud7qMWLvl8zT+XDhOg8rfQt70fvfnsocaJMxuWvGT1SaKos3qflhVDd0dK0rCiGsz21a2oj31wyh5wvPBFZ9rg9UH1oQeHD/XVv4s2eu79myiJXwJsoSWsP2SIpRN61shqXtmpLPeNgh8kyD8T8mDHhVL6t61S/kfoTYuOJQA7PWanY5vlaRuzkuN+OII4VIKsNf7peTHf9QJupeShL0fDe9UaYfIUBqw1/tZeeyljYIEvH6QB0z16zU596/FqVA8/P4EA3LdXrZfT6ezsrKysrKysrKysrKysuqQ/gerM59E1TzqcQAAAABJRU5ErkJggg==;" vertex="1" parent="1">
          <mxGeometry x="-310" y="153.13" width="40" height="40" as="geometry" />
        </mxCell>
        <mxCell id="GqbFPElFmIpRKUHDmwWA-8" style="edgeStyle=orthogonalEdgeStyle;rounded=0;orthogonalLoop=1;jettySize=auto;html=1;entryX=0.75;entryY=0;entryDx=0;entryDy=0;labelBackgroundColor=none;fontColor=default;" edge="1" parent="1" source="GqbFPElFmIpRKUHDmwWA-6" target="GqbFPElFmIpRKUHDmwWA-3">
          <mxGeometry relative="1" as="geometry" />
        </mxCell>
        <mxCell id="GqbFPElFmIpRKUHDmwWA-6" value="" style="shape=image;verticalLabelPosition=bottom;labelBackgroundColor=none;verticalAlign=top;aspect=fixed;imageAspect=0;image=data:image/jpeg,/9j/4AAQSkZJRgABAQAAAQABAAD/2wCEAAkGBxITEBAPDxAQEBAPEhAQEBAPEBAQDw8PFhUWGBURFRUYHigsJBomHxMTITEhJSkrLi4uFyAzODMsNzQtLjcBCgoKDg0OGxAQGzAmICYwLS0tLS0tKzIrLSsvLy0tLSstLS0tLy01LS0tLS0vLy8rLSstLjUrLS0tLS0tLS0tLf/AABEIAOEA4QMBEQACEQEDEQH/xAAbAAEAAgMBAQAAAAAAAAAAAAAAAQYDBQcEAv/EAEIQAAIBAQMGCQoEBgIDAAAAAAABAgMEBhEFEiExQVEWIlJTYXGSwdEHE0JygZGTobHSMzRisyMyVHSDooKyJMLh/8QAGgEBAAIDAQAAAAAAAAAAAAAAAAUGAQMEAv/EADcRAQABAgMCCwcEAwEBAAAAAAABAgMEBRExURIhMkFhcYGRobHRExQVIlLB4SMzNPBCsvEkQ//aAAwDAQACEQMRAD8A7iAAAAAAAAAAAAAAAAAAAAAAAAAAAAAAAAAAAAAAAAAAAAAeG25YoUvxK0IvdjjL3I328NducmmXNdxli1y6ohpbTfizx/kjUqexRXzOyjK7s8qYhHXM8sU8mJnwa2tf2foUIr1pt/RHRTlNPPV4OSrPq/8AGjvl5pX6tGynRXsm+82RlVrfPg1Tnl/6Y8SN+bRtp0X7JrvE5Va3yRnl/wCmPF6KV/Z+nQg/Vm19Ua6spp5qm2nPq/8AKiOyWxs1+aD/ABIVKfsU18jnryq7HJmJdVvPLM8qJjxbqxZbs9X8OtBvkt5svczjuYW7b5VMpGzjbF3kVw2BodQAAAAAAAAAAAAAAAAAAAETkkm20ktbbwSMxEzxQxMxEayrOVr50aeMaK89NbVopp9e32EjYy25Xx18UeKHxOc2rfFb+afBUco3jtNbFSqOEX6FPirxJa1g7NvZGs9KCv5jiL22rSN0cTUHU4gAAAAAAADaZOy/aKOGZVbivQnx4/M5ruEs3eVHc7LGPxFnk1cW6eOFtyTfWlPCNePmpcpcam/Air+WV08dvjjxTmGzq3XxXY4M7+ZaadRSSlFqSepp4pkZMTE6SmqaoqjWJfRhkAAAAAAAAAAAAAAA1eW8u0rNHjvOm/5acf5n17kdOHwtd+eLZvcWLx1rDR83HO5zzLOXq1ofHlmw2U46Irr3k/h8JbsxxRx71VxWPu4ifmnSN0bGqOpxgAAAAAAAAAAAAbHJGWq1neNOXF205aYP2bPYc9/DW70fNHHv53VhsZdw860TxbuZ0PIV4aVpWC4lVa6cnp64vaiAxODrsTrtjetWDzC3iY0jiq3ejcHI7wAAAAAAAAAAAAKzei86oY0qOEq21640+vp6CRweBm789fJ80PmOZxY/Tt8dXk57XrSnJznJylJ4tt4tk/TTFMaRsVauuquqaqp1ljPTyAAAAAAAAAAAAAAAfVOo4tSi3GSeKaeDTMTETGksxVNM6xtX6696lUwo2hpVNUZ6lU6H0kFjMBwPnt7N25Z8uzSLulu7yuad/wCVsItNgAAAAAAAAABWb3Xi8yvM0n/GktL5uO/rJLA4P2s8Ovk+aHzPMfYR7O3yp8Py51KTbbbxb0tvW2T8RoqkzrxygyAAAAAAAAAAAAAAAAABKYF+ufeTzmFnrv8AiJYU5v01yX0/UgsfguB+pRs5+hZ8rzH2n6VyePmnf+VtIpOAAAAAAAAGpvJlhWai5aHUlxacd73voR1YTDTfr05udw4/GRhrevPOxyytVlOUpzblKTbbettlmppimNI2KZVVNdU1VbZfB6eQAAAAAJS3aerSYNux9eblyZdljWN71wKt090nm5cmXZY1jecCrdPdJ5uXJl2WNY3nAq3T3SeblyZdljWN5wKt090vlprWmutYB5mJjagyAAAAAAfUJNNNNpp4prWnvMTETGksxMxOsOnXVy2rRSwk/wCNTwU1ylsmit43C+xr4tk7PRcctxvvNvj5UbfVvDiSIAAAAAHzUqKKcpPBRTbb1JLWzMRMzpDFVUUxrLlF4MqO0V5VPQXFprdBavfrLRhbEWbcU8/OpGNxU4i7NfNzdTWHS5AAAAAAAG5uf+eof5f2pnHmH8ers84SGVfy6O3/AFl0nPe9lZXMz3vYDPe9gM972Bzryi1GrbT/ALan+5VJvLJ0tz1/aFazqnW9HVHnLQxeJLRKBmNEmQAAAAAD25HyjKhWhVjseElyobUab9mL1E0S6MLiKsPdi5Hb1OtWavGcI1IPGM0pJ9DKrXTNNU0ztheKK6a6Yqp2Synl7AAAABVL+5TzKUaEXxqumWGymvF/RknlljhV+0nZHmhM6xPAtxajbVt6vy58T6rgAAAAAAAG5uf+dof5f2pnHmH8ers84SGVfy6O3/WXRysrmAAAHOfKP+cp/wBtT/cqk1lv7U9f2hW84/ejqjzlXYSwJOJ0QsxqzxeJsiWqY0SZAAAAAALz5P8AKeMZWaT0x49P1fSj79PtZCZpY0mLsdUrJkmJ1ibNXNxx1c65kQnwAAAhsDk14bf5601KmPFxzYepHQvH2lpwlr2VqKe/rUfHX/b36q+bZHVDWnS5AAAAAAAADc3P/O0P8v7UzjzD+PV2ecJDKv5dHb/rLo5WVzAAADnXlG/OU/7an+5VJrLf2p6/tCt5x+9HVHnKtkmhn1F4GYnRiY1ZovE9xOrXMaJMsAAAAA9mSba6NanVXoSWPTHVJe7E037UXbc0b2/DXps3abkc0+HO69CaaTWlNJp70VOY04l7idY1h9BkAAau81s81Za008Hm5sfWloX1x9h0YS37S9TT/eJx4+97LD11Rt00jrnicnLUpAAAAAAAAAA3Nz/ztD/L+1M48w/j1dnnCQyr+XR2/wCsujlZXMAAAOdeUb85T/tqf7lUmst/anr+0K3nH70dUecq4iTQ4GH1F4CJ0JjVli8TZE6tUxokywAAAADqFzbZ5yyU8ddPGm/+Or5ZpWcfb4F+enj7/wArnld72mFp12xxd340bw40gAAKf5RbRhTpUuXNyfVFeMkSuVUa3Kqt0eaDz25papo3zr3f9UMnVYAAAAAA9OT7FKtUVKDgpy/lU5Zqk9ye813bsW6eFVsbbFmq9XwKdNelt+B9q3U/iI4/iVjfPckPg2K6O9HA+1bqfxEPiVjfPcfBsV0d7Y3eu3aKNppVaihmQz8c2ab0wlFaOto58XjrNyzVRTrrOnN0w68Bll+ziKblemka8/RMLgQqxgAABTr5XdtFptEKtBQcI0YU3nTUXnKdRvR1SRI4PFUWqJirf6IjMMFcv3Iqo02aebS8C7byaXxUdnxGz09yP+E4jo70q5dt5NL4qHxCz09x8JxHR3tdlPJdSzyUKzhntY5sJqbS2OW7HuOmzfpuxrS4sRhq7E8GvTXol5UzfEuaY1ZEzZE6tUxokywAAAF18nNo/HperNfNP6Ihc2o5NXXCxZDc4q6Oqfsu5DrCAAOe+UKrjaKcOTTx7Un9pO5VT+nVPT5R+VXz2vW9RTujXvn8KqSqEAAAAAAlPDStDWlNa095g2L5de8XncKFd4VlohN6qq3P9X1ILHYH2f6lvZzxu/C05ZmftdLV3lc07/z5rGRaaAAAAAAAANDem8cbNHMhhO0TXFjrVNP059y2nXhcLN2dZ2ODHY6LFOkcry6Zc3nUlOUpzk5Tm86UpPFt72T9FMUxpCq11zXVNVU8aT21pTGpMasiZsidWqY0DLAAAsVxKuFrw5VOa9zT7mR2aU62dd0wl8kq0xMxvifs6UV5bAABzO/MsbW+inBfORYcs/Y7Z+ypZ1/J7I+6vkiiQAAAAAAEp7Voa0prWmYNi+XXvF53ChXeFZaITeqqtz/V9SCx2B9n+pb2c8bvwtOWZn7XS1dn5uad/wCfNYyLTQAAAAAGhvTeONmjmQwnaJrix1qmuXPuW068LhZuzrOxwY7HU2KdI5Xl0y5vOUpylOcnKc25SlJ4uTe1k/RRFMaQqtyua5mqqeNJ7awCQJQNH2mbInVqmNAywAbi6MsLbR6c9f6S8DizCP8Az1dnnCRymdMXR2+UuqIrS5AADmV91/5b9SHeWHLP2O2fsqWdfyeyPu0BIokAAAAAAAAlPatDWlNa095g2L5de8XncKFd4VlohN6qq3P9X1ILHYH2f6lvZzxu/C05ZmftdLV2fm5p3/nzWMi00AAAGhvTeONmjmQwnaJrixelU0/Tn3LadmFws3Z1nY4MdjqbFOkcry6Zc3nKU5SnOTlObcpSk8XJ72T1FEUxpCq3Lk1zNVU8aT21gEgAJAID7TNkTq1TGgZYbe6a/wDMo9Dm/wDSXicWYfx6uzzhI5TH/ro7fKXVEVpckgAOcX9p4WmMuVTw90n9xPZVV+nVHT9vwq+e06Xqat8eU/lWiUQgAAAAAAAAAlPatDWlNa0zBsXy694vO4UK7wrLRCb0Kqtz/V9SCx2B9n+pb2c8bvwtOWZn7X9K7Pzc07/z5rGRaaANDem8cbNHMhhK0TXFjrVNP059y2nZhcLN2dZ2ODHY6mxTpHK8umXN5ylOUpzk5Tm3KUpPFyb2snqKIpjSFVuXJrmaqp40ntrAJAASAAkAB9JnuJ1app0b65VPG1p8mEn9F3nBmdWljTfMJXJadcTruifs6civLaAAKP5QqH4VTdJx96x/9SWymvSuqnfHl/1BZ7b1t0V7p07/APilk4rIAAAAAAAAAASnhpWhrSmtae8wbF8uveLzuFCs8Ky0Qm9Cqrc/1fUgsdgfZ/qW9nPG78LTlmZ+1/Su8rmnf+fNlvTeKNmjmQwlaJrixelU1y59y2nPhcLN6dZ2OrHY6mxGkcry6Zc3nKU5SnOTlObcpSk8XJ72T1FEUxpCrXLk1zNVU8aT21gEgAJAASAAkABbvJ9QxqVZ7lGK+bfcRWa3NYpp65TmR2tJrr6o+/ov5DrCAAK/fKyZ9nnhris5dcdPcdWDuezv0z2d7izGz7XDV0xt017uNzMtCkgAAAAAAAAAAAlPDStDWlNaGnvMEcTHVTbcpNyk9Lcm5Sb6WzXwIjY3e1mqfmnjfIACQAEgAJAASAAAdFuJZM2gpNaajc/Y9XySK9j7nDvT0cX97Vsyu1wMNHTx+nhotBxpEAAYLbSzoNdAHI8o2bzdWdPkyeHqvSi14a77W1TX/dVFxlj2F+q308XVOx5je5gAAAAeqwZOq1nJUYObik5YOKwT62jVdvUWo1rnRusYa7fmYtxrp1fd7eDNr5iXbp/caffsP9Xn6On4Xi/o8Y9Tgza+Yl26f3D37D/V5+h8Lxf0eMepwZtfMS7dP7h79h/q8/Q+F4v6PGPU4M2vmJdun9w9+w/1efofC8X9HjHqcGbXzEu3T+4e/Yf6vP0PheL+jxj1ODNr5iXbp/cPfsP9Xn6HwvF/R4x6vmV17XzEu3T+48zjcP8AV5+j3GXYvno8Y9XzwYtn9PLt0vuPPvtj6vP0Z+HYr6PGPU4MWz+nl26X3D32x9Xn6Hw7FfR4x6p4MWz+nl26X3D32x9Xn6Hw7FfR4x6vFlDJ1Wg4qvB03NNxxcXilr1N7zbbvUXOROrRew92zMRcp016vs8xtaQCQAADNZaDnOFNa5yUepbX7sTXduRbomueZts2pu3Kbcc8/wB8HXMmUFCnGKWCSSXUVeZmZ1ld4iIjSHrMMgACGgKDfjJ2DVZLVxZdT1P3/Ulsrv6VTann4460DneG4VEXo5uKer8T5qkTitAAAAAtnk+/EtHqQ/7Mic25FPWnsh/cr6oXQg1lAAAAAAAAAACj+Uf8SzepV/7RJfLNlXYgM65VHVP2VVEsgkhgAASBZrlZPz6jqtaI8WPXtfd7yJzK9stx1z9k9k2H45vT1R9/TvdFisFgRCfSAAAANflmxqpTlFrHFNPqPVNU0zFUbYea6IrpmmrZLlVtsrp1JU5ei9D3x2MtWHvRetxXH9lRsVh6sPdm3PZ0xzMBuc4AAAemwZTrUHKVCai5pKWMYyxS60c9/D03oiKuZ1YXF14eZmjnenhfbuej8Gl4HJ7hZ3eMpD4riN8d0HC+3c9H4NLwHuFnd4yfFcRv8ITwvt3PR+DS8B7hZ3eMnxXEb/CDhdbuej8Gl4D3Czu8ZPiuI3+EJ4XW7no/BpeA9ws7vGT4riN/hBwut3Ox+DS8B7hZ3eMnxXEb/CDhdbudj8Gl4D3Czu8ZPiuI3+EHC63c9H4NLwHuFnd4yfFcRv8ACE8Lbdzsfg0vAe4Wd3jJ8VxG/wAIOFtu52PwaXgPcLO7xk+K4jf4Q8WUsp1rQ4yryUnBNRwjGOCeGOpdBvs2KLWvBhy4jFXL8xNc7HmN7lAAEgZbPQc5xhHXJ4dXSa7tyLdE1VczbZs1Xq4op2z/AHV1LIFgVKnGKWpYf/Ss3K5rqmqdsrpat02qIop2Q2p4bAAAAAQ0BTr3ZFzlnwXGjpXStsTtwWK9jXx8mdvqjcywXvNvWnlRs9FGLJE6qdMacUoMgAAARKJiY1ZirRjaNcw2xOoBIACQAEgAAEgAJAAALpdDIrX8Sa40t/ox3dZA47E+1q4NOyPGVpyzBexo4dXKnwjd6rvGOCwOBKJAAAAAABitFFSi0wOe3nyI4ydSC9ZLb+pdJLZfjeD+lXs5p3dCBzXLuH+tajj5439PX5q0TitAAAAANGJjVmJ0fDR4mNGyJ1QYZSAAkABIAABIAABYLt5FdSSqTXF1xT2/qZE47F//ADo7Z+yeyzL9dL1yOqPv6d7otks6hFJEQn2cAAAAAAAAB5rbZVNYMDn+X8gOMnOmumUVt6V09BLYLH8H5Luzmn1QGY5Vw9btmOPnjf0x0+auE2rc8QZAAAAGB8tHiY0bIq1QYekgAJAAAJAAAN9kLIUqklKotGtRe3pfgROMx3+Fvtn0T2X5ZsuXo6o9fTvdCsFjUIrRpIhPvYAAAAAAAAAAAPParKprBoCmZeu5i3KPFlvw0Pr8TuwuOrs8U8dO70RmOyy3iPmjiq37+tU7RZ5QebNNP5PqZPWb9F2NaJVbEYa7Yq4NyNPKepiNzQAAAACGjxNL3TVvQeXtIAABIADJRoym82Ccn0bOlmu5dotxwqp0bbNmu9VwaI1lachXc0qU+NL/AFj1dPSQmJx1V35aeKPGVkwWWUWfmr46vCOr1XWx2NQWhaThSj1AAAAAAAAAAAAAA+KlNNYNAaTKeQ4zT0Jp7Gj1RXVRPCpnSXi5bpuU8GuNYU/KF3JRbcOzLufiS1jNJjiux2x6ILE5HE8didOifX11aWvQlB4Ti49er3krav27sfJOqDvYa7ZnS5TMeXfsYza0AAAAaPMw9U1b0HhsAJA+6VKUnhCLk+hfVmu5dotxrVOjbasXLs6UUzLc2C705NZ+j9Me9+BG3sy5rcds+iZw+Tc96eyPX071vyXkGMEtCS3Ii67lVc61TrKbt2qLdPBojSG9pUlFYJHhsZAAAAAAAAAAAAAAAAADDWs0Za0Bq7XkSLxw9widOOGJiJjSVftl1o6cI4dMNHy1HZbx9+jn16/7q4L2V4a5/jpPRxfjwamvdyS/lk/+Ue9HZRm0/wCVPdKOuZDH+FffHo8k8jVVsi+pvvR0U5pZnbrDkqyTExsmJ7fwwvJlbm32oeJt+IYf6vCfRpnKcX9HjHqlZMrc2+1DxE5hh/q8J9CMpxf0eMerJDI1V7Irrl4I1V5lY5te5voybE8+kdv4euhdyb/ml2Y97OavNPpp73ZRkn1190era2O6y2xcvXePy1HJcx16vn06nfayvDW+bXr9NiwWPIUVhikluWhHJMzM6y74iIjSG1o2WMdSMMs4AAAAAAAAAAAAAAAAAAAAAENAY52eL1pAYZ5Pg9gGJ5KhuAlZKhuA+45OgtgGeFmitSQGRRQEgAAAAAAAAAAAAAAAAAAAAAAAAAAAAAAAAAAAAAAAAAAAAAD/2Q==;" vertex="1" parent="1">
          <mxGeometry x="-227" y="38.75" width="37.5" height="37.5" as="geometry" />
        </mxCell>
        <mxCell id="GqbFPElFmIpRKUHDmwWA-10" style="edgeStyle=orthogonalEdgeStyle;rounded=0;orthogonalLoop=1;jettySize=auto;html=1;labelBackgroundColor=none;fontColor=default;" edge="1" parent="1" source="GqbFPElFmIpRKUHDmwWA-9" target="GqbFPElFmIpRKUHDmwWA-1">
          <mxGeometry relative="1" as="geometry" />
        </mxCell>
        <mxCell id="GqbFPElFmIpRKUHDmwWA-11" style="edgeStyle=orthogonalEdgeStyle;rounded=0;orthogonalLoop=1;jettySize=auto;html=1;labelBackgroundColor=none;fontColor=default;" edge="1" parent="1" source="GqbFPElFmIpRKUHDmwWA-9" target="GqbFPElFmIpRKUHDmwWA-2">
          <mxGeometry relative="1" as="geometry" />
        </mxCell>
        <mxCell id="GqbFPElFmIpRKUHDmwWA-9" value="" style="shape=image;verticalLabelPosition=bottom;labelBackgroundColor=none;verticalAlign=top;aspect=fixed;imageAspect=0;image=data:image/png,iVBORw0KGgoAAAANSUhEUgAAASQAAACsCAMAAADlsyHfAAAAsVBMVEX///9BcZj+vjQ8bpYyaZMpZJA7bZYsZpE1apTN1+H+vTD+uhr6+/z+uyJ6l7Jwka7j6e69y9inustQfKD+5brs8PT+uRNbgqT+47Pd5OugtMeuv8/19/n/8dr+zW/+9uaGobn+wUD//fj+1o2VrMH+w0tmiqnU3eX+z3X+3J7++e3/9OD+4KrF0dx/m7T/6sj+04P+yFz+yWT/6cP+xlb+0Xz+2Zb+wkj/79T+3aMPWorAIVKxAAAPr0lEQVR4nO2daUOjOhSGoayF0kWktS1qbbHVahfXq/7/H3azQIHkhGVmWhR874eZaZGbPGY5OTk5kaSGytucBdvecrnsbWfBZLrpV12gb6fO1NVUUwml66apGsZy4lVdru+ktqIqMifF1Lq/mCINNJ5QyMlYVV24byIPM9KhtoSk/Y5NRF2ERws2SwNsS6Oqi/ct5KOGpA5839+YECVjXHUBv4M2Kmouvud5fbApmZOqC/gdNDFlPcCQxnB/W1ZdwO+grUIh+SsVnuKqLuB3UFdHIDzfb4/g+c3sVF3CbyAMSdF7rgEzkg2/6hJ+A20JHEWA6BcSUQDO/LG0X0iSNNUMIk0zNAOwu38hSdhH0l6N+2h2873+ajDjKP1C4tVnKTV5TPJXg0mANJkONqu+7+OJ3u8PupyxhCDNH3bn57vrqot8ag2WhqGaiq4rpqmqeDDSFUVX0R/Q7HY/dJBsa7Guutwn1EoWOEYgIUgLp0XkDO+rLvrJNBU62SCpHenOaoWy76ou/InULsUIQ3o6QGo5+6qLfxJ1coxHVnpHasWQWsNd1RU4hfIsbE6SZMeMWtZN1RU4hQQOEZGUkbROQmrZL1XX4Phqg641sfSZdJmCZD1XXYXjq2xvU6fSuZOE1BrOq67D0bUsbiERaZ60sFKQ7I+q63B0lWSEXdw3aUjOY9V1OLb8kuO2NmaGJDQoLaquxLHllbMktTNJurIYSFdVV+LYgveN4J6mqPpAks6ZhtSyXquuxLG1gjfXTNXQdFl2Xfx3Q8PS3e2gAzBqWbdVV+LYgiDp2miy6Sd2jjo+9S9J0uUVx6jVaiIko0sjR+br9Xo+j4yg+fryfHFjWzyjJnY3A4070vndzXBo20Mq27HxvxwHQNSEgZuLikAWtbSzHAvkAcqqvbfEYyApLmI0LE4Iyam9e7LDGJPqQJo7+WBSkM6rrsTRxY5IHem+JCT7oeo6HF291OINR/vdlOpsCFLVVTi+JilXiR5I62E5Rk3wJ6WdbuZU2pUdkmrvBEBKQTLa0mNJSMMm7OQGyU1ao3/YeSyoJvQ2xlmCJre3cuP28LLqCpxEk6SpxLuLsuXU3uMWanmghJ2zz2UgOY3obERbLTSW9JkIkoXFfThsSjvCWnVVzVBVVZtCkCzHtm9eX29v0J82DrohxBxneNWM8SiWt2pv2m0fgOTcXkSz/Hx9ubu4X+zvrt4Wn7v677cJxUKq/2ZIrrzJSNbPkp/wLem/xfnu8uHh8uNj9/LyUv+tSEbjnmYqsqImP4PGJAePRnRAsltVFbYabZYatbZTh0Zz7aTKyntidTwcoX04PYKWtbGEkCIToLJSn1L+xFWNVKx/6qDfHQzJchZPdmMgBXgY4ny2seAFrnX3sF6/OE3YikTjkALEIxnJI2ywq8TZra+v17dWAzaQPPCItpZsSAKnm/OJIaGu6HxWVfgTaWrwAf6os81SD81B9621x5Dunbq7RrwRGByh95jnnqCR23q9Xq/XC6vmQ9IUPi+KdyPT2sFNydl/tlBDqrXB3RUEIgHZR/ZA5AjB1GrZdV7Iea4gyBZMq/Em2uce1nrbvysKRFYC6PHdrc1HkFiOVe8NbWG0tnkG/8Dl+6sTO9gsvMJ9ujhtmU+uM1GQrQ62JKqH3cXn4u3u6upu/37xUX8X23ikwQHbv6l+khp3YUzabwaypDwXHJSgVD99uS09LN7vPx8vzne7j4/Lh+t1/bsb0QxalPDGJGKkqRPpg5xGdiKv5LD24aNUU3CKA7K0jRS9y56OqP/qnwoObE+5JYlwdIArPTCQGnIkGT5so7ALXJywTNakawZSrY3thEAjQDbZx3C3NLz0IdLmREb0QCOAW+LiCEFjzPiV6h+IHCqApjd+ZYIhqRuJgdSEqD+sM3B64/L9EUgDielu9V7cxhrAKziNSWWHGxya89K+bqcBJ9uJNjAk1LVSwkYnMsQbdxyZqg1DYo0AfMBbn0lpb1ID4v6pBJDYRS4e3pUZczLAbkquJEF3k5Uu9xRal/zXTEjw4k1mTKWoC96mIDkN8QII7CTCJM5mR1NOILvgNQ2pwnKfVIJstpiJG5oBG5k+o4yYTcqmQPIzcgAorid57UCOHkGQnhsJSWBLhlRwzFLcHRGkq0ZC6gqHJKhlMdFcDZndSiVvQy0pfRLHrnc0SSTYMSmGtE93t2Z4ASalWtKSySVV85ibSGWGJGxMvqfdAHYjciW6ZZJuoWUJA6llNWHoLpVOCi1wOUit+lOC72oRtqSAT6Jg2bX3TopcALC0KZRpwq77QUnYwS3obPh04CcQq+zUfLO7W3zcNl289Q1Gvdv1NpdKNCMa2AVCqncagCwXQEqqG15O1kBImS6AZDM6bFVeQJDqvZFbLMetsYz3BEBIwzrbSuMipqSSOtMFQbJrffxG7LmNZY5SW0vnPCSn1pFc0wLDtsnsUfKQ6u0JKJIGmAtW5iHVe1upyKjNXUvKQar3bQBFOhsf9c5Cqnf6VjbhJig+npuFVO8IpUImktpmf4yFVOu4kiKdDbrbjoNUYzuy2C0AwMEAFlKdje1i/n/gcCBrcWe0JC0tQ14G/KnVv9ESv/Zrk//gn2lVzLUNHMXlIIkTSvLMTW30L286J8HVBjds/isVWY/gWvE/yUESD9zgG7V/+IsnkPi55R9pU8yNZAIHKFl/UklI4NGeP9VxIRXcbIPqUxqSGinMGPMPL4Q/KqSCDQmsDrsRkAdJ37Q3VNMwc+W/a0pHhVRwRAKGbYnbUsqDlEx6Rk+Pq9wpsT/VMSEVcrWJ+gW7g5sLqcN+knVUvJyOCQk8UMoL7hZ/BYncFa9sD//u+P1+30ufz/DQR+P47+BNzehz7AnkIUEvpF+M24MBvvAY+A5UMee/OQN/mE3JVQoSCfTVSXy4twl6rqmRe9HdbcJB3EMffWE07a6Ov3WDdNB9fzIy0eea0m2nIPUHwdJV8Qs11Z2lDI3OdGQYZPJAf4yCIk2v2FWJigz/NJtzOiPWDWhJ4bECJE1N5EdTVOWACa8FUMW9UZjWCVmgiUGssz3kVVNoAroQkv+l6ocXKoohx5g2ZjJVnaJ/FaBUrLdpAtOYzYBXChIpK3W/sIXQZglI5lk7ma8gpuQpXOEjSOyv/rALNmCHYHBCgsqeJ0M0BbFZOctAolF1dB1B/qroSCGNKD0aWVXSdDyKEn0Xjkyd6AM5RpiClHohZRE6qRUTm2omfkEBSIUuuGOSlSXEZuTKOMzFQgq9M9QowBeiy8vuLJj1ohjoBCQk3XB7XZf+SOT7m9HwDtNwR64RpseKIGnohS554ZJ+E3pVw9/M8gwN3NPJ1tVULR9SkWAbU2wVv/4ppH4vVeHtYBx906F1Dzs4haRoMzK5jmkzoC6b8PdrTEnDWtHMRhGkxAt9+g56zIoYhWrMxd/08sekAsE2UH6JSOwlL444aDIBqT+NcseAEwKtyCCGpEShB+E0Q99Cix7vTYjtJAqTfIPbRMLqKKb8cVuRM4wJLpuy2McdQxrFU5IBWV+kS4RHowmkRM0TjYJ4nBNudzGkbUwdQ6YTagnlu9uUrJQ37I6SI04yFUM6/GJ0HZw0eUjxBE4W4xStHPMiEkMi/0MKKb9KgHI3AMDfdSQu32RGuHsMKeziitZLGtDeYDLbdrezyWamFIFEJ7BEVgcWUv/wwm7ckmjaA7UbEE2L+UbzIGmZw9o1myMwI1dpDAmfYFVMo5cs4QDNM6auoP9CWy8XEtkES46XaUhT9oUU0lQN2zCWaRp6kfV1TncTGkhU7J3ALee9AKT+l6Euz5JNvrPkslsVhJTYLk1C8kdcxkwKKbatolaQOjYLK3vgxtdvZInLgZuRrSSG1JmOmblgSTsg+qUjC08vA0nQklyde2E4Xa7YX0dOO8DKNgFSsUiAuFAA660AJE7U7afrwZRYeMUg0TEp4aBKQKKGqi4H2GQMuqm6eD3NSDlH9VxI2ceS8iBxIZMZaaYyIJGBNXZYnf317EYsLf3QkRKzG5aP/SRIZ9RvLVqXxmLvk0xLlGEyEpe8PCOmNAMSbfaHshY0AaidFHeWBCTSwYwDPwYSW6acliCJUgGFyhuTuDT4GSFcGZDoOuRgDxSEFB47S9eEQOqQBYt2+EYIKRB9wSj70G1Ohkl26dbKuB2gREvSC0Gi96rHWbATLYnUyThQT1jcaQm/YJU5vXEZuNICTpYIn82A1EsOIX5AqpgPKdzB0N1p3/f77Qn9H7QPT0Xec2+rJnqVux0cuuGKwixgUU6zmlKmvQ0leB8KH86ARKdYczRot6ddI3SA5ENaRb4hQ0MTlpmAFG7E9PALe0bKBBiZqiYvt8FkEoR5/o18RtluNzYjUFoPfFJuccREBqSOEdYWTctRwy4ASQr4qZlC6of44nk+hkRmUmSHm6E7ToUyjXJqZ/jd+NyJSb0A3U24E5ABSdoki4DKXxCSFHCGehgwcZZ+YWJ8ZncZ1YJbyDOxQZltAwAHucRetyxI0kZR6XoB9Z2tPzEKQpLarnFwuyDz2lCjOJWBGno4FdUIOjMjhpS8kkUxD870XImDAbIhAfdzijOWkaikL6FvatB1VRy0RNZ0ky/ti/aCHhN0JJN/J0bKVbCU0ZhkyqNuMEgsdzpT+sIecVzO0AsppE57spTJ1hXSKCi+yS6OKs0ek4DLpzMcSt9IHW+8Wo1LepU2omEpM8n0HLhMoc4nlARZk7KNSc5R0qp3Ztcx3OGyjVHoRGCdEykL0t1lexGgW97qfP4GzuQGZnSPBV+Ge6ISVyDYi2tkRqZ8gJfg2PU9pQT2NiiSNKE92JLqe3AC9pdkXzIxB+94q/ERHDBsMmc3GL5Ssb6Jy2EDgDsBmNIleHkZGrhvTlXqEwu+hyPTkFzz97lHg1JNE7uBU5syAqM4qdbAsi1qSk+nK/gJJciapOhCe/uFv7QsMSrV8mIO4d6bIYON6fIZvibwQKn1I1wB5dRnfQAKdm/iCD3AJbW+eLXzbuZuOc67+EzXz1TH1bTQDaUhMKo86m2Ds0GbcbjMr3eP+xvgekAQk31VuwHc74+x+n0v3cHWl7vzi8/F/u7pBt8p5QjnNF7W8Lmexvd8/fDx8XLxeL94u3q+bTlDm1yXSO5LLEwngakOmRTm6+vL3e788f59f/X0eoP6yND+KyyMMqKVfoguLHor24HJ30Nh9fNv6cqfowQ1ByR69Kd74LhwRxDG4RbAIR60MYwbpP+QbqnwX9En+Hn84NA+NE78/E/PYk5uQky3h8TNiEPburl9unpb3H9evOw+HtZzpLxX4mfWD5cfH2hGJOPc838/PZfCendxv9i/XWHd3b3t94v3+8eLc4zkGDds/g9vsyCwu+9ROgAAAABJRU5ErkJggg==;" vertex="1" parent="1">
          <mxGeometry x="-116.99999999999997" y="193.13" width="135.82" height="80" as="geometry" />
        </mxCell>
        <mxCell id="GqbFPElFmIpRKUHDmwWA-17" style="edgeStyle=orthogonalEdgeStyle;rounded=0;orthogonalLoop=1;jettySize=auto;html=1;labelBackgroundColor=none;fontColor=default;" edge="1" parent="1" source="GqbFPElFmIpRKUHDmwWA-13" target="GqbFPElFmIpRKUHDmwWA-15">
          <mxGeometry relative="1" as="geometry" />
        </mxCell>
        <mxCell id="GqbFPElFmIpRKUHDmwWA-13" value="" style="shape=image;verticalLabelPosition=bottom;labelBackgroundColor=none;verticalAlign=top;aspect=fixed;imageAspect=0;image=data:image/png,iVBORw0KGgoAAAANSUhEUgAAARMAAAC3CAMAAAAGjUrGAAABnlBMVEX///9ChvX5vQXrQzhhYmc0qFNfYGX8/PxjZGlZWl///v9cXWJWV1xfYGb19Pf7+/vS0tJ1dHpobG36/Pju9+44gvNBhPDf9ObQ4Pknpk6ys7c4p1f5//87lLtChfnj5eeMjZAzqkz/+v////epqap+f4TBwsSSk5XOzs74vgX7ugzt7vFRUlXZ2txRUli/v7/rRC7qOCvyvgCgoaV8fH+QkJBmamv98Oj52NP0wbrsqqHtkYntiYT1rar/6+b1nJfuaGXnRUDuNynsOyH1MCPoc2350cr2xLTlg3PmSzv12czyVUn0OjfrMCjyYlbxuLHcVz/rMRDHp7f3bmmpX48qeflws+uqXJqJp+7jQ0acvPff8Pxxp/Pvo5ijY5Gu0PzxkX/5taOfZ6Fvlfk/d+npNzvqUi3nYCzybyj1fiD4nRf+rRb5tzH72YH76rT/+Nv30mnycQ/2yUD64Zb3/OP4xTj/36H98b5smvE9iOf24HPK2fuewOzy0Vr90mP/7NH2z0OmriBkuYPA4cXnxga2sB+rv/+6vFWw37xcsXC7PJN7AAAVY0lEQVR4nO1di3/bVJZWYlevq4dl1aZRheVatvyQ5TzsJoVCC2lh6FKYZbfZZZKymd2G1+w0ZYHQhpahwDAz/Nd7zpUfkizlVScZu/p+fbiSLd373fP4zrlyyjApUqRIkSJFihQpUqQ4FkRR5OC3yTAm/IY/ACqncxx33iM7P3BIgr527bXXr19/A3D9zdeurel4TD/voZ0jbrx28623l9dvLy8vr9+6dev2+vIf3nnz3TVGPO+BnT3AQGDW6u/eu7O+vLSUybyd8XEnk7m7/MH6+9f/hTN19bxHecaoiOaNT97P3L2bicPS8gcfvqkCb5XzHucZomKu3Vz6IJYPn5SlzPL7v1+jkfflgMjov397OZNZXkrihJrPB2+9y5gviaWI5rV3MvFOE8Kd9cwbN14SUsw3M+voHYfh7tLS7X9996VwH/OPmeU7h1uJj+XMJ8xMJ2ZTFHVTeWf5qIQAljIf/Ztpm7Ora0HJmzf+/TiUZN7+6N7GfyjiDHMCuvWtW4cHkoCZ3PrPYnHjY312/Yfj1GM6zvK9YmkOSRFnNdSa5hvHouQPt+6V5hCFTXtmved3t4/lOOv3CnP7lJWNS+c99FMBBIRrmVtJSXjZR5iTe6XiHKWkUCxuzWJIMc21hJSzdDvz4fWbr7/+5ifXP8x8MLSkW0iJj8Jc8b6pzl6drJufxBV9S+uZ995du2j60NfefS+zTmm5/V8QXecGKO5sM7MXZs1rn8b5TObmDVOsVHRdrai6XlEY88ZNOApWMlcslkpzQ0uZM+3znsKkIZp/jHoOcHTrnRvROIEi5p3lj+6VSiMrQUMpbM5eP/La3Wh8vbOUeU03YyKnbf73/8yFGKGsbJ39oE8Zb6xHKVl/+5qpxL2VM+2tBzv7EUo2Ns96yKcL0VzL3EHf+fTTpc8+//yLL774/LPPPoRIouviuETV7Yq+dR9jSSnASalgzpL3wLxv3gJClj7/8k//22o2V1aazeb8nx/uPkICYmOnvlUsFMKWUtq2Zyj1iKb+4d3lpS//NE/JaLXm4XerCb++2rXjSxndfrpfCgeVwn1mZgwFrES8tvzZl62VJnAxj38AMfPNFqVn77vYiXK6/axQChtKYWtW0rFZEXXz5v8BB/MxgINf/2jqnD4u3ZX9jXDyKWzb3Gx4j2ib5qM/r9Dpx5EC+AYYEcfNZXsnElCeXAL7mQlWRHt3bwWnnmAnrfnW82+ZcU44PZKOS6jwp58TXTd18Zt4t+mDhpa9x6YddR7b/lsk88yVdjaBlClnBeQH892BlPTNZeXHcZnCXBoXszubuj7lTx2AKttdOZwSsJSVR3Y0zFb0B1FDKZZ2nplT7j4687h5OCOUlK+iiZYT7ftjzlOc29nWp7sRKX67d0RKmt+PuYSubxbnIhoFebk01TJF1L9qHclOwEwq0SjLmfp2YSyigPs8mW7feRxDSRP1ffjIfOv7im6L4fWHlLVNu0kRM9kvTXGFzJnc3vw4KeNSpQmUjKVixNONjTHfAXfad/UprZFBcu5iqRflBKriEC1oJaIYz0lxfzwdz5VKz858MpOCzezFpGEo+/7yw/OVwIH5hxU7lhLm6YPixpjzwIF9RZ/OnQ3bfExVamDyEEj2vqMNE/vRD5QvKI7BSkCaxM/RNK3NIiTgcKwFjT+1uu1hNGy0Wg8rpi/NTPPxHjgQCLqvKsxBq25v3d8oFMNhpXT/rKYwadgrUU6au6befxjLts1vnwMjza/QcRI54RjTZjb3S2FOioUpbVibP0ZTbusbU+SGNmEza1+3QJeMafowRNPUNyOdlOK0biCbu/MRUv4S2bkwH6+ALjk8Mujck4jvFKZVojyMypBHkacY9cquzR0hg5j2pWi/+slpDfqU8TyizX7gIo13ECW6Lh5evVQ47kmIlGJp/7QGfbowm6EuQbO1e1JRoYv6s9BeKW72THawZ4X5ICegQx4x+gkrWtF+WghzsjOlnLSCDbYmhBPmhI0PqA4vFYObPYXSznQmYzss6ZsYYk9mJ5xdAU5CEWVKOWFC4QRqQdzHOdGFIBJfKhQDnBTndmJ33//5sRfMO615UGwn3fA17c1iiJNSYbJDPSuYX4e2uVqt59wJ7USv6A+KQSULwWXCgz0jmA8jW39Q7ZzwUvbTsLYvFR9MdKhnh92wjJ1v7aknI0W/+CDSWprWJ7nER1FO5r8/2ZX0jyO9AnwWZbKDPSPo5l4zwsn8X2xdFem3qsehjoPDTT9b3yyUInZSnNLHLkT7m6idNFf2HuuMWBHNcdD5R8AxIsdcul+KPASJPaXp9B3dXIs6D1jKTz//8sorF2MQQ4muX9y69PFO1EjokyjnPbuTAbzkeahrD1K/9dOVhYWFCwvjuPJqaRwgRDaQkXAeLhX3TXU67UTUzcehbkHrr61fLy9ciAdwErWGJBR3ntlTur/DcCbzdVih/H3hypXLL8gJ2A2YSdyzxlMAu6Izj5oD78EXvy5cvnD5yovayf7Gti1OKScIc9h/bK60flpI9JxjcFIs3Z/S3kkftjjyHqAkwUaOZyelrfhNw2mBrj8aZJ5fL1+5nBRMjhVPnk7tHuAQP65gSGn+tHAAIUfmpATS5LwnNAGYu83WCiThCxcmwElx52/T7Tg+bHMXKElOwsezk+2Z+KpkRRcf/f3K5csHU3IYJ0WUr6X9p0xlupPOCK/8fOXKwa5zqJ2Azi88mdLGdBygEP7lt4UDEvER7GS/UNoWp/0R6gCwX6//47cFVGxJPpTECf3yKJaDz1xG52YhmAQgmr/8fBlCLcVYVXx54dVCcQzoMfv7xULx/rOtqRcl4zDxuZuLr/zj598ux+LCq6XCOICX0pPN7S38itzs+M0Aosno9Kk1/eLFV+KwdSkOW1umadu2qnIn3VidTYihv1KkSJEiRYoUKVKkSJEiRYoUKVKkSJEiRYoUKVKkSJEiRYoUKVKkSJEiRYqXGBz+wq9B07/OezT/JEh5GAdnLXbLmlauG97s/Y9Rx4TvKFY1L0kCYWWZCFK+a52G3ahVwzCqST/6Mm5odHB6xJcn4tv9K3AJyw93UKqrhM0OwUqk7r7wbcegCIBV9TicjDAYPAa8F7fj/hPaB5DbyEtIBT8kheclucFM2oUUAnTnxaNzwqjeotHtVg3HGh6CBQS88Fg4RoXLqHFz5HABDEnmCcvyEqItSVme8DxLqhN+sltUZOSEOwonHN7b6+bbQh89Q6FLC3Pprea1Cfy0KYPP87mEmzNVAQwEONCqDVdVlZzRIwRsRqq/+H3DQE7k/FHiCZq2VRaIb7o8n5VlKe/4J0QNot4Egl1VkKUkTgyJZ7O8pDloRtTBxFxZ4qXuxL9M5HNyFN+BYThZAcYlCPCZLJFYHoJcV8EzogYmPQG3rgrZeE44ptHOsng/3Y/nKNpURjQ6dXXi34k4Oic4YsIT0ik7nutaOUeTYN2EsnoWnDAuWKbMS0b0uHUKGuVonNCoUe0AJWx1NAivJ2T5tjPgZCK+k8RJncUFqEbVyKmI2iPaCTqOxPOCZo1yJZBTbUuLePbU7cQiPMuz5ZgMcwqsHJUTxpJZXugpgUHgi6qBWef07aQKfspmj6DPBl9D46Iyp//vpEFy/T9ULswJN5KS4zZaF1g+78Zdlku0Ey78evRPyP2DVRgexOCZxImaByEidRPmE4FiWZY7fneISZ5nueGb0heK53kuM8i9XJgTmJWKF1THv+BmQZIRGgk0hzjx/xLV0evBGAYf9pdMDJ5T/VdJnORQmhAr5kwUrlHjBanD16qRd1vdWlaSCF8z3NCSq04NRSAp5zgFyhwjF/WdXFkjnTbRumO370oyKSdZXsh3wJca3Zqm9crGyNZhJTx1tDr4z+BoNV6rO0qy7xiotnuHByzV4DtQELE8VIikqvTHC59TukRAXkHzdXiDGy2515MIii1eIHVLIlKnGubErUvgIKg9BGF4wf7NNDkreUnuGPYdp9cWZBku0sZh+W+AQ+0hC6rbltoafSn6o4UIKgn5BmPEcsIxXeCEHOo6uluGsNMvh6AUwoRAP85YmoQxmtZKPCuUFT88qIxDCB6Bj4Du0uCsYIw4AeVjaQIPyML0eFmohVbFAp2WT1ynoJ0oXRiXLMsCJV/zfBprIHpHtgdFFqv5s7U0HBRhYXWJ5DixnKhMGTgRgtqE65bDwE+5PclfUQJriwpvtX9LCwojutICEZAYqabgVVWmIeFsYT0EggqUz4Y4ETmXx3yXhY8RkB1UjI3ggOsk1xUjO1HVMpgaYbV6t8bCK2HVt44EThhXI1lZWi13uzUCGrnMxtsJ5cQJHtJgmEMILJUEZWqebDfneVVeAJsgPWqnSg/uxwt5w/NyXYKzhzCAHmVhtZCVNCOXM2ogNbJRTuC+MCLNsawcziusGaEQEcY0ZIQTahBGB2qSMnbAdNeARSGaexAndVjZjoFndKve4WHqMZzoA04CnqtlA30UMEjgpNHBF+W+u3bb8C+pSl8KaLJ91wP/gsl3GoyqMzV0icG8FiGusCFOwBKAS/8aYBYsqnh3NIgucLJ4CCdoJ5aUHV4EAhhqmu4BnDgwWtIYHKaFbzIn1eAxLdBFQSoMCHnAklAe6pIq1owyrIjL++z0Tyg1cGu2B+/LoauBDu/rEGAgFE8YsQYf7FT7DTO3l/WZHdzgKJzge+uElerDnAv+CqbpgpnGcyLWWD5ofuUkO6Exthy8o9aRBsCABFfxsN+06voZBcIjcsSjTy0COSQQHj2MLoLnGympi2pfr4llNmgn8EZ4H+m3QLyrPJzNyuwolx6REwUMg7UGPysUlBnchk46nhMLnF5TR7LFiucEpgVvzOaD0tQdQoEEjnOvoi11falDBaLTwSnDvQnPd4ZJj6O+xLIGo+ShqpQ9ZigekdURJxxmQYwgkBshldL8JOW7I06qEGONRPE+9B2wC6E+0mYMNc+amMSJIWFZNxRvHFeLjbFIHsQAIb46BNvMsvApsCUWVn9EnEVFjcigk0luYPCQ3VjI7C7hZVYLZBKFD3MCvsy2LdBPPPZFeCL0nGDfrNHmj5J3gNmwOcHsiQaGHM9JF97eCFIYr9ngBGRsOeQ8I7h5sE3epdTI1igEijhFFgQErD7LBpOoR1gWZmNJcuSaGhvixLensgDmIkMSrcMExICtWpBBVhObi0NOwH4jc5JlNq8gJ9kYTq4KKNgDK7gYzwmHJ/wYMI4G9rlqEIxYGlJHnjjgpI2CLHgXDzyRXEXNxR/CCUZVbCwSoi26GKWCJY8KKV5qMAmIcBL0MbBfnnIiC9bwuM8Jx1wllJNhUcDEazaAtQozRrkR0Y0QjDSQe+1FdCEYe1Bqu9hqBt/A3Q9JCXwQqie0ExeTXi0wCzUf8J1VEWYDBghOA8VQw49S4egBmY1AYIgMyS92B302v4YLMwc5HfUvcELGOamzdBYjxNsJArwStGA5aqqwmCA3SF7xayISbDo5eIDGWFjt4ahU1Y/GmLxhcHxAcFgknIsh3KGN5KsYV8dEPIdJnia2mD5XoFcAcwoMCwwAMgvpMdROArOHkEk5gWmQ0TU5Gi7jOdEVyB5g2WOkgJiEdI+pDfM+mw+cr7H+shsCH0jkHAagLI/VF6R+ngSkAKx7iBPIQ8A39sRVTh3f1uP8K487tIOHhpxYHSgyhh8V0ZlYGpsxxo4m60k+JzAN8OtA3Z6XE3vUFq1IsIDyN3tQtjBujSr1Hu0EwYd5SCf9syjBgBPL79GhCtbxx7TDp+o0sQN5mKxZcN7+RoDFh+sdCBi+StNx15PTGSfvMSGrUPMYcTzsvAy6IVT78V6AE06D6sUYdEN0HZdEwABzVaCZvl+mlglPY6wCxSbwLPoX1DGcJHGiMjncDOVJ+2pu0KHxuquYo7OyX2iiNoPquX8WKQH9SK0PLUheRK5gUF2sdCEAiRiKMAr3J+r1MHiE6p3FNgQUyfB34TiHCLhNETQWDwsM1hEH9TcWluDMhM0FdOyiJPPsSB/VJUjFuAa4OUMVIddXt76273Z4oecy/TaTh9V8QjwBNMAOsjIkAq1uOI5R7WGRCyXSIFZgfICKpOxYitso0wJYo7kOymLMWvWG61oOKHu4BlgWcNJAlgXesPAEbSWEewVQ0CIpZfxgrg5eGhDpPhxBxjfkBtHGdbArwULlO6p3lJ4ssFp/Wm69MyhnLLj3oAHiYU+CaP5oZYgR/STt5dn4escH+Pcqmio6i4DPFsAQQXiQfG7Q17TgDMwdd1w6WDqxpH+tBpEhnhHcTG1DHQ5h00LHFjEg4ETbPLaaQr2CLN0HtPLIFBb4BHtCvKS5TIQUgqWhpHVhmZxqne/A+/HyUCpoMFj6Zg+DvQBr5XrVPNhDu0qnw2A1KtXoYRZtPKv1eQaaobp33UadJX1Okrp5SDL2jPoVMUR9mE850BL08oTgBiV95oDPjpKNIwtylucHBWN+aMlVpMJ/Oy9ow7zDwlLTPpuVJ3x/1x4u2O5F+49QENQwbrH+bjEqD7Ald7g36ttPg2VlltDaDB26795gKDIsqiB1JIFtV7U+J5AXgRSWCHBYhvkZAnsQJ3RLSRo0CcDY2nmHY9RRTHfL0uBZDNKpDR5OwUZbr0OIz4kglQOL7RD6qALwKNW8YV1MCFnlaOR0y21hQCV+MAyajRap9KcDQivNN2iEAE4EQgazr3WQV1wViTc4rh/VG0TIYkAAj69yeUHQ+vN0JFAe+AG2XVMciXQSOekHna6GrgMQePRjPZAJcI+/zAsCPddgQmca2LuWBIGvB57jgYyiGPR6EFVUd1AD1rBzhz0lfE+uTJdYyJaxXIzRIlAi1uhN8Sr1HH00B4/jRQZrIjo1ljo8ip2R9rNqdC5CzWOUerlc998NKbCbxeOk54CR1co1L5GTweJYXsNZbOSs+FrD9RqLDS9mKwhOONETSLNq5RoNT2FoATS++9r/YO7AzSXXyzmLTtKQ/LfkGuNv4KxFw2hY4zOmsziNjd/I/ROODfUUJBFZcuLfdLrDiBwcGtIR70wfAx1kmuTbJt85pEa9q748or/qkJ6GdSYX/BQXPjI+Jn9g0avHvS10HS7hp2fSKZ7LE4yq0yNSj4YkHAHoWCziJ2sVUwZOxRTWrit+KeNC6Z9tJzfiXwpw/ZKohhlKcUBOsGz+FB6jnCqIUA6COAWRkF/lcd+F78RE2JcNShnrFXw0DxVVVupOOMdMI3S1LhBf3OMOqJH+EGWqY3O1LFYqEkGBO4M/f/xksJxqtWo0pvQ/kz1dpG4zBD5oq07+IdsUKVKkSJEiRYoULy3+H4JybjpgsxLjAAAAAElFTkSuQmCC;" vertex="1" parent="1">
          <mxGeometry x="220" y="-82.75" width="150.27" height="100" as="geometry" />
        </mxCell>
        <mxCell id="GqbFPElFmIpRKUHDmwWA-20" style="edgeStyle=orthogonalEdgeStyle;rounded=0;orthogonalLoop=1;jettySize=auto;html=1;labelBackgroundColor=none;fontColor=default;" edge="1" parent="1" source="GqbFPElFmIpRKUHDmwWA-15" target="GqbFPElFmIpRKUHDmwWA-19">
          <mxGeometry relative="1" as="geometry" />
        </mxCell>
        <mxCell id="GqbFPElFmIpRKUHDmwWA-15" value="" style="shape=image;verticalLabelPosition=bottom;labelBackgroundColor=none;verticalAlign=top;aspect=fixed;imageAspect=0;image=data:image/png,iVBORw0KGgoAAAANSUhEUgAAAOEAAADhCAMAAAAJbSJIAAAAyVBMVEX///9EhvlEhvhEhvdEhfVFhfNEhfRDh/xDh/tDhvpGg+tFhfJAe95Ae91FhO5Gg+xEhvZFhPA/fOM/fOU6g/2Ttf6Vs/EpceC/0PTv8/wxdeFNhOT4+v6dt+3o7/4qcuLX4/3f5/o4ddgzgPzH1vVzov0wf/3q8Pxil/d3ovY0ffNZi+Uzdt82fe+Srualwf5Sj/y0y/6hvvyNsftelPisxftmmfe+0ft3numqwPBrlueJqep4nubc5v+AqfhxnvUPZ9ywxe9rlOBXVYQBAAAMZklEQVR4nO2dC3eiPBPH0Xp5benFS4tGVBTqBWFrW6213dqn+/0/1IsXJGCAhEyEnuP/7Dn7PO0C+TGTmclAVJLOOuuss84666yzzjrr1+tr+XQvVk/Lr/Twlo/Dod4QLX04fFymwvei643yadTQ9Xv11HzPw1Ph7SGHzyflU9+GJ+XbaPh2QjOOyqc14E6N8uhUgF09Bb6N9O5pANWU+DY6jaPO03DRnRrzUwA+peWjG+lP4gFHp4+iuIbio81jej66UeNRNKCWrgkdI2qCCWcpA5bLM7GAz2mGmZ10oeWbmj6ggygyKd43/pe+GvfiALvDtOm2Goor3t7KacNtVX4TBWhkw4SOEQ1BhHfZMKFjxDsxgAs9bbKD9IUIQDUrPrrRUETGWGchU7hqrOEB+1kyoWPEPjjhPO1SJiDwtfAy7TVFUEPoLnG5kjWVYQFf9LSBjqS/QAK2hmnzEDRsARJOGmnjENSYwAFqWTShY0QNjHCWvTizEVxDY5m9MLOTDpUxsjgJd2rAAN5nmBCkoTHKZpjZCaQF/ljOZVdlgBa4NkybIlIAGWNWSRsiUhXujPGsp80QI94WuNrItgkdIzb4GhqvjbQJYtV45QHsZjvM7MTVAn/Luo9uVOFogRu/wYROsEneAr/7DSZ0jJi4Bb7IeqZwlbQFrg7zv0UJW+BrM+2BU8tM1ALv/x4TOkZM0gKfV9IeNoMqCVrgSz3tUTMpQUOjkkt70EzKVVgBXxppj5lRDcYWeOt3+ehGOlsLfPKbwsxOFaYWuPabMoUrpobGLHchQnmnhqw4tW5eyNlzDA2NpQl99XzFNHX9Yv49mUy+5xdD3TQr4JwmfcYAvnjONHOThYG3NkfGYrL5Meh18iYt4D2kCfOmPl+Qa6r+Yq6bkDfTpGyBj3S4a+bNyktUk6H7UoFkpNyQ8ViBumDenMVPjeUMjrFC1QI3dKjrmRd0U395BzYtqBoaM6A7mmPYG/GkA8WcPEXGWADdT3PM8lhoNIa6bGxDQ4WZFHnmzS1POsyFzbiGxitImMmZGiOgUynCZMdKTAu8q98BqDIj1/kjzWg2m4ZG9t/WrAJx8ZiM8ZYHuIY5Pj6xajxMe44QQpu/pp9NgjeNTYCr5yNb4AbEJczjSzQ/HLZ6zVPd6vU+msc3GOT6URnj7oL/ApWgBdUO6uF0B8perxM05BjAUS8iWuBPALfwKCN1/NbzMaJeJ/CvZwDTxAyN4yoA4IXpDzJaDYXg7YRqfp9qmQBuFJox1gCZQtd8p/zs1ePU+/TfEp1/EJWQFvgXwLn9DtJqo1jAeh21fWbvAFQ3OvmzNOb8GTfnizJ9RAPoICLf+nHKX9zkiC3wpc594gsdz+X9eA89eCqOOOoV+AdCWtXkCtzy+SgDYACxgwoXvEPJHQO+mPyEJex8LYsB0PFUfC7W69xDMY9a4C0AQF+vq81GaLWxY5u9eol7MMHSeALgpHiu/6QLMpgR8aTRrnMj5gItcE3nB8RNaLBMwp16WOpf9vgdNZCZZ3l+Qhs7X40ZsF6vYcdvPIDTiv7y8RliFmJzu8PqoxuhTuAEnIgm/k4fAGABW3mqvUQ27Hnl5Gjr5Zwjwlrg9wCEeayMCDPhdvHriMKI0+1P+KzotcC7AGGmgDe5QhDQqr9Vtx2C2PNOsUIAiAe3+gbIFAXTq0qaYYTuoj6U0Fv1uxURF2Lue3cywyzxq1Dw7v9HyIrXIwxbEX94J7H2JynyjGrf0JgXAAjzXoJ14kxCQjzWvFs1fsTCHMyEJdubhkbYqj6eEHlZf3U4C8+wtkac5CEIsQbXAwfhA+k+cVhx41oqiAlLprcynIY1nuIJ69PDWUaYr3MgmiqQk5Z0L0aETUMKwhoin4aD0JCebAhAbGk44iHsea5Qw10hsRXtJ2kNMg0LXkWjKZjX7UVNqGghzp4UMb+WxhC5olT4JoWIuv8/aLzUC1gflu83SQc2lm4gAPF02PQI3fS2z5A0hF5V8+4nTGrFG6kIosKaRKjsOwktJQlhMCQXS0lGdiXdwBASbQhLWEs0shtpnOjOHBES52ECQmweHqfVK/aBlcbSugBC6DW7NXpCpOyEEWqH85AKB3ZEZ/o82RCEpeJhZCNvwDGE6Ge0VevaOwLLhyQxD8zJh4YJQVjEOgbUNjz8v0cYUtMkt6JT06hAhKS6lJkQr0uVGlGMiJtHiROQiYivLQ6JjJnQIq4tOBx1G+Nh3JS4PmQmJK4Peay4u/FzCCNiCVE9+BczoYKt8cPWYCyI+3IZxIglUp+GltDNHnifJhyQwVHdufNduOIX3mtzHcyN/TGEh6CCVTT9kECztyKdDnVI1wQgxCbiIV9Yf6kIP9yBY7liZQWpEiCahzb8g81PWMJ73u7wFIOC8OdwQ/CedyQgHaLtRWbJLvIjmthzCyTvxiHv/DSS8OCPMsKeW0Q6KR1iEX8YtgTwU9v37MkdiKzGEI4O/9T37CnaSakQ/dsv5iVuQt8tkw8DaauRhCMPRcaOjweMRSz5Xz/TIIyI3TO8WdMNJTR8CxHNO7wZ/aoYFWLwJd4Jf8Yo+p7je1ZQmmoY4Y93Iyzfc3wawGjEQnArWwvYiFgwlNE+HRxleBkz1RQ7ls6E0YhH72JIL/wZo3iF37LjqRS1xrfwAcnHv2dFtAlbSktXVV7hWV/qIjkgy62r28HfyAh/ObtjHf0+VFXyqK/wl5dcLU1uwqrpe68tiFj7+2N89TXjR64FAX3vtSn0gA4ieSDE3TrjIjdh0fduYtcKkNQsCyFkHf/Y93r9NMjPjlgkvEvv6AvAiD4/lVpTi2KI1tT/finNMTGIZsh3ta0BytNAFvqMrb5qiv8d4f5/1GHGVfUozIR9TIYKkDGKNut73lpgFJ34mxKHGL4zaAGxxrgMjhiFl2AWCr6rD4FoR+zuqgKsMWzCfguyHRE62m8BgVishgNKBshamLRnRglY0kIKYc8MCGLknhnpjX+NQbCitNv3hBS0k4KmD0bULjoexFL0R3+BNDSu7Mske9eAEM2Y3c6vNn9SdDKurcVCBOXf0d5hKmywvGjHfQSfCkLo5FxCkIzU6j//EUkR7dgPxXqGQbyypyz7gFtTJCsQiDbFR2FeghA6Nb9Cb0Zn2jkDhEAMZmOSNIDydIdoyaH5wKembO0GyI8YnSlcfZegEGXU/onna6PDYoIXsfYRchG/RkBG3CDWkNWJmo+jjoXwxRInokI59x+A4ukG0Vn8KdNVyGebrKZKcK3IhWj9oQOUJCjCLeIGElnvK9/n07SM1d/aER4nYs2iBZSWwIjOxTeFqCJPP97/vn9MZWVbppLHGUS0qAlR/KQ/aA5FWK3e+O7yTtEDDSBSA9baITQkQWWMLeI19RiJiPSHaQyE0rqQFcQ/FuVBg78sgFLLvAFEZCXEEDtHXdfQYxi/duYFLNhUeaxIH0ot1lJfAgRMjsiQK2pxQEdqQhoxoaP+oXZRGdGVwD6NIQkTWNGS3YKcRtN4oCP1ATNGIkQWKYm+Su8VaI3hIgoEHHzG4xCkQmYMsYhKwm+AWNg3oLq9FiRrlQxw09AAJawKQpSvkwJKBrARBSEijq8H/oY1ohjEAV3rgqyuCUsoBFHh+pruz1LmERNmCleqDeyn4Iiyxfnlx8/AwQYc0WJoXZDVhiaERZRZWhdkadDBBhaRrXVB1qR6e3ML++fmEgpw8I8fUBrZt+ACQ0QQ338oPVQzi0jf5I5W9SariAMYQGkpwE9BEK0ErQuypgL8FAAxUeuCrC8RRuRHRIlaF2StRRiRF5GxyR2tlhAjciJakN+tLnWyh8je5I6WiIzBhwiVKVw17UtBSmpCjtYFWW9Cgo2jhIg8rQuy+mJmYlJHhcwUrl7rGULkbF2QpYoyYhJE3tYFWavsICZvckfrUhQhMyJ/64IsQ5gRGRF5mtzR+haVMdgQuZrc0RqZwghZEGnfz0uih7qoyubykjr1D4BaF0Sp9dv0EcVkClc/wspTakT+Jne02gKNSIcI17ogSxNpRBpE7LOyBGlSTRURpMkdrZFQI8YiItDWBVmLNBFFFaR+vQn100jEgegws5N6KzKeRiIOhKZCTyOReT8KcSCwXAsgXgqs3rYi8l2fIMq4Uj/EhhsSovXvRC6619IWbMagAUUXawR16mKnI443GJB3fYtW8922Q77lAEKDvSzrH9hzQnb1m4sHYfrjqLNqCuiMnnXWWWedddZZZ5111qn1f9J4g6DuxjFHAAAAAElFTkSuQmCC;" vertex="1" parent="1">
          <mxGeometry x="512" y="153" width="86.25" height="86.25" as="geometry" />
        </mxCell>
        <mxCell id="GqbFPElFmIpRKUHDmwWA-19" value="" style="shape=image;verticalLabelPosition=bottom;labelBackgroundColor=none;verticalAlign=top;aspect=fixed;imageAspect=0;image=data:image/png,iVBORw0KGgoAAAANSUhEUgAAAOIAAADfCAMAAADcKv+WAAAA8FBMVEX///8AAAD/43X0pQDgggD9wAbslwD7tQDokADvnAD2qQD/zSf/3l7/4W7mjQD/32TjhwDyoQD8uwP/3VT/0C/+yBv/2Uf/1Dn/32H8uAL/10LrlQD/yyL/3VXIyMicnJxLS0uLi4v/9dH/++7aigH/1Cfy8vL5xGn1zp/77MPOfQLedgDW1tbffAD5sADvxp9cXFxpaWnm5ub0zZ/ZgQFAQEC3t7cjIyN+fn7Q0NCEhIRmZma6uroyMjKTk5OsrKw7OzsVFRX979f6zID4tjX85sb/44b6wyfmmQ3/8sX/8Lj/2j3z07TKcADno1z45tVsSI0JAAAHzElEQVR4nO3ca1faSByAcaMxEEUIigqGi1Rlt1vKAlsQFETa7a5t9/L9v83ONZeZSeKeajOT839Oe6AU0/yYyUz0RXd2IAiCIAiCIAiCIAiCIAiCIAiCIAiCIAiCIAiCIAiChD5++imln/M+vRfo095BpL099Iv8ZtUPrvI+w+/tc0wohpEHeZ/i9/Z7hvBgr/4573P8zkYZQDRVTb8ck338giwoMbrkFJO4F62AxPimUUCi4CsecS8+SeuFIwpAllscojxF8TDW60UhimsMn6T1ohCTBrBeCCK+/g5iwjp/LAxRGryYrxhE1SpaLxYxHVgsYl3hKxJRvgYLQ6wnwIpETM+tuwUiukUdRZeXBHQd04mOG1aPQl0KLAIxyBfHksFNIl79cR6t0UC/Gvx5o/Gn68eIrnnEq/OkGqy6g40uW0gNJB6l+1CHZceNj6BhxJssYePmyXdFoEnEq5vzi1QgChNdMaOIWcLGU9mRhK5vLFHkJRLNHUXJd3jYeKoWZxTlATw8LBRRDSREvxDEJCDq6Voiohs744jJQAWR3LsaRWxIwMNYEaLDgIYRU6Yoqt2OEB0OdJyyQcRUIBK2Y6PoFIAoAqNExzGfeNiQgIzoxIEGE2Vg+7RNRtFxjCW2U33t01NCFHy+4xtIlK9BCiTEsig0cRSThlAeRd844mkGUBjFAGsUUTlFA6A8UX3jiBlAFCf6dKEhT/3qb3mf+nOLEpU+1PWHcngNEp9vFrEtJgoJ0Q+Gjwq1Jb6R+nJxxjpPACLidZnIHM7z/XJZT+LXI0W7YRenCuA+GUWC43O0jNOS+LW2m9G5Ygj39ymR+5hQT+JRlnC3pgCi2HITE2pJfJNN3G0rgJhYDX06E99mEo8E4r5ALDOgbyoRLz1t2RcQy+EIGklky2tbAaTEsiAse2YRgx1EBSwAMbpJKoUBsWwmMX4fgDd6EZhANOVajPlqtSOFz+hRjA9g7X8Rq1UDiEfiCNbSiIKvagBR8BEg6lnEqgFEcQDDnkGsVvUnSlfgM4ieCNSZmDiAJBXwOCBWo2lKVC0xGcTjY06sxvN+zRsk9zYD2Gw2ZeIxJ1bFtBzFWtoUbTYF4jEDUqIk1Jwoz9AmSwFUEz1Py4la44uoGlipVJrCFGVJRM/TmChNUD6AlUqMGAGKo+jRbB2JTcUSGgWiFEBhFD1Pa2LCFVgJU/hiRM/TnJgB7HQqSuHx9S+eCNSUWEkDdnAVFbDFiJ5nElHyUWGnIxNbLUr0xLQmKmZoJ4HYIiGinMZEGZhEbPHMIiYO4AkuSmy1TCQ2a4olhvio8ORkXyVE1+IHQ4gdYROshAMoEluxjCKqlpiTSPsSsFQqqYnvtSTGdnnZx4gtQWgkscOFJ2LSCCYRbVtjonKC0s5O0K2MCFQRbVtT4kkc2AlXGQpEKYAy0bY1JqaN4FmUWColEm1bZ2KGLySW4kWItm0AMQXIiHjg1ETb1px4pvJFgZRYkmJE29ad+OUsC4iJMnBEibZtIvFMShaORoQoAs0gSr6LC4mIfCYR355lACXiiGYiUcmTiCNzifIVqCKOwswh0msxkRcjjkYlE4kfv2UAQ+IoVgLxr7xBijoZQE4ciSmJ7/LmqPr47SLNx4gSUEl8/07HQcT/7cu3m/TU/9H0h7/fCb3/59+8MRAE6dGUNHidgw+kgw+Hr/MvpTSxWHfTlz94jx/8shu+0k39klfo0gp6+X+7Hx68T1/JiTgdDKZdTH3xOYSIywE6+kPwAeZEpJcKmrHjlz44ItLpv0FzlTzJlTiw+LOXqx/MDHRw8pgrcWfGz2faRy9ePtDPf764Y+/sL1b0yXSxoG9cLmbr2R2f3nfoVTTfx5HpHhK3WhAv2fks+ArxEDvLoWWtd/hpLvHjmL1vQV+2rNWcLM3hwaOj+Mi/NkfiLX2GT/xhs1kw45AvhnjJoAM7oyOCHhbLaXfMjejRsmaTbT88eEBEsjl/kh8RWWboYc4Xhim7NrfWlvwZ0zfkGTX1+B/vGT0Y+DBGHKDHe/pKnkQswtfabTCqc0qZRATkPFd0nvKPAq9TffaGhXDwcF/ki3VOxPlqtUFDYU12iDQ4T3r9dOloLa3bBzpBJ+RhST8R3Nq6pG+/FQ8e2fq35PLN+e6GLBMrftGgHimJDkEfLZV0+LZkMNFONx/SZnQdop9RrD570/ySX8j5EdfjHl1K+GqJm9A5e0+kazSW5GMY0uHrWZHI1aomshX1gc3rfFdUfirBvragf7XBZzXAo3CPh6tHX8XnPOaRdSeViDdG/CFqQIyewiWdqAN8ea7w8zk+zTVdOnp8CwlKJy7ogTUgosWlx5/TXQRvgFt0hguCxbOVjNkmXG6Ct5tBHPDbEHLR0RsVPDW3ZBV6tCbdcJMRRJkTdbCjBRH/me7oaEayv0Eatr0/WNsxv41bi998pRLvrGB+507EtwB9xOk+hvcq6HaA7nlLvHyyiYyfb/CXLvvUoSb25qjeLOdNI/4t1CrYCoJ7gH5wc21FvnHehJsGI96LB78L33IbbEo/nDiRvkuc0h/njMNTQVcl2y0XwW0bfvmebooT+k75/m2nu70lrfn3Yfhz+fE/n1J9GzwdDgfqNw0GyW98pZ/iQRAEQRAEQRAEQRAEQRAEQRAEQRAEQRAEQRAEQVAB+g+CoxJAeYgz+wAAAABJRU5ErkJggg==;" vertex="1" parent="1">
          <mxGeometry x="170" y="111.34" width="171.62" height="169.33" as="geometry" />
        </mxCell>
        <mxCell id="GqbFPElFmIpRKUHDmwWA-23" style="edgeStyle=orthogonalEdgeStyle;rounded=0;orthogonalLoop=1;jettySize=auto;html=1;labelBackgroundColor=none;fontColor=default;" edge="1" parent="1" source="GqbFPElFmIpRKUHDmwWA-21" target="GqbFPElFmIpRKUHDmwWA-19">
          <mxGeometry relative="1" as="geometry" />
        </mxCell>
        <mxCell id="GqbFPElFmIpRKUHDmwWA-21" value="" style="shape=image;verticalLabelPosition=bottom;labelBackgroundColor=none;verticalAlign=top;aspect=fixed;imageAspect=0;image=data:image/png,iVBORw0KGgoAAAANSUhEUgAAAOEAAADhCAMAAAAJbSJIAAABU1BMVEX/////Nzf+cjaIUP8kzHEBtv/+Wjn+dDb//v/+bC3/ODf/NiiyR7SFTvsfz2z6rIlYkras6MgQxmj5jo3Svff/LS3+aib4xrIAsfqARPv6///2//8At/4As/9Eiv4gzG//8O/4e0X99P/f////+f/G8//t///h/fDq//f90NL+trf6oaH7no37sJH9vKD+zrH+5M//+O39c3T7Pj7+Uy/8onj80rv8Skv7h1L4fXv/5eT6XV35VFX6lWr1ODj4i1r/7uP0lJP4o6D/wcD/8eb6hIX+zc3tYF/ow/PZmePBaMquQLHdlrf2y7nlyby6vbePsbdyp7d+u9Ct1ufa7fCrh/Gh5fxNyvcdv/tu1PTFqPyQYPCMWviK4f2acfMaufbVvf3GwfqdvPzq3f9zpf29nvTHrvheyvKmffW08P511qE3ynyX47tU0Y7R+uOk7MeF5rCLBaLSAAAFoklEQVR4nO2b61saRxSHKUJl09oUqmbl0kUQRG2sjTFXm2jTxt7b1AQhSkhrq1EE/f8/dRaBgMzuHHWfZ86Q3/tNn/0w7/ObM5czGgoBAAAAAAAAAAAAAAAAAAAAAAAAAAAAAAAAAAAA+BDILiwufSHjq5sSbi9/vfKN7iFfhuzindUpD+5acsKza/eMkIwJv837U1MfefHxeNgDy3qwbITj4qq3nq+hYPrBPd3DV5J92Pa7cTVDwW3dBn6IGfrosW+ABMPpNdYz9dH6lHd6NMOw9S1jxawyQbXheNha0+3hSeyhWlCdoUiRbS0uKqcozTA8vqJbRU72ic8SeilD66luFzlLhDlKMwxPs9wWs/cpgjRDniEukiKkGfKsRMpCSjbkuJwSJynVkOG2v0DZKsiG4fEN3UJDEMuQajjNrxCXgs2Q4X6xGbDhLd1CQ2wGPEtH3XCcoeF3I1+Hz4KdpRa/tXQhWMPZ73ULDZFdD9KQ45km9EOg59Jl3ToSngWZIcu7RfZxcIZMm1G0kyntjr/iNl/5sU5RJPVpeEYYCj0PKsPZDZ4Rnp++r93zFhHyO7F1mSN0MtSGLHeKLtk7Abxb3NRt4UtWue+rDFkn2Gbpib+jv6E1y7cGeyxs+bxx+xta1tqG7uGTeL71pC15Q6ysF/E2tKzZNY5ntWFisVBsYWlr9RM5d6elCL3lDd1DvxS5H3/6+VMJv/x6q5/ffv/jzxeCv7ZfpnQP+TLkJl/tTUxMjEmYmez7Ll/eqaddolHbrlQLRW0jvhy517szMzK7jmGsjfCr1u1oH0LyyIgg3+556vUZhoq1tB1N9xuKn+ydgu7hK5l75ef3fpbmdwby6+WYriX1CqjIvfEX7BoW6pkLAXZiTNtV1jM1t6sQ7BgW0pmozND9VYazojLBjmG+Lg2wQ6am28MbRQ12DYsV+RTtFWNZt4gXk2rBtmHN9vMT1PO6VeTMSbf4YcO8SjCdqep2kXNAiNA1PMz4C7qlyHJbzO0SBIVhXpFgmyrHVtRbSoTCsKaOkGklEhZS1/DvHYJgNMNwOc3tUQTHZv6pkwwP+R3e9kkRjs38SynDaLTC7yZF2QxdvqQZpvkVImmvoBva/PaL/4I1ZLgjwtD8WRpwHUb5GQa8ljI81Iz+fkg7eJt8pqGfSyknb/tIt44EWiGKu4W0jXgBhmUorvgB3g+ZXvJJF0Rxx6+qp6nNMcJQKEYJ0e3TKENkGqHYMAitKLfXVlZVYoVnhILXtH5pStGLYrmQnhNT7xjtnrfbEvYRZNjB6JF7R3u3yFcuvqz1SNu8X59Uj2vdtyePx7V2gqwFBQf+y033/bBYtWUzNVPhW4M99jsPUHLT3jt+8qjSjrF/smbsKttVtJ/Y5Dvfd/zOV6FiuTKQo50+5Hcp9CC2f/BmQs7A32IUC9WK3SG9U85zr8ABSi+3X3wuY3vwu1S+UK7VykeFoll68eNGIvGZlLjuwQVA6qQRcZyInITUkOFDkzfJeCPhpedpaBKlYz+/ETCcbyb8/Mw3nG/6Bmi+Yamp8DPdMHWsmKJmG4oFP64WNNlQnMEaakGzDU8IERptWGqo1lHTDeMEP6MNk8ejbkibpCYbtkiCJhtSNkOzDUl7hdGGZzD8UAwj5hqOfh3G/bsXPVq6B3plWqQMnUZJ90CvDO1M4zSNavwOkCRc8EUZnuge5zWg3S3mdQ/zGlCmqcmTVHBK6EOZu5K6pJR9GudY9xiviaoSnYbJVeiSVJzcEqe6R3htkn6vFo7RO0WXko9i4ozx//fSEYryPcMZEUGxoJ5FZIpOw/wa7NEajtFJNE1fRXu4D/KpeNN5/5DvOAmn2TL6KCMh1TprRBLnRJpnI+fXJjXfOhXEW6WR1AMAAAAAAAAAAAAAAAAAAAAAAAAAAAAAAAAAAABwZf4HOl7uC7eok4UAAAAASUVORK5CYII=;" vertex="1" parent="1">
          <mxGeometry x="400" y="282" width="125" height="125" as="geometry" />
        </mxCell>
      </root>
    </mxGraphModel>
  </diagram>
</mxfile>
